<?xml version="1.0" encoding="UTF-8" standalone="no"?>
<!-- Created with Inkscape (http://www.inkscape.org/) -->

<svg
   xmlns:dc="http://purl.org/dc/elements/1.1/"
   xmlns:cc="http://creativecommons.org/ns#"
   xmlns:rdf="http://www.w3.org/1999/02/22-rdf-syntax-ns#"
   xmlns:svg="http://www.w3.org/2000/svg"
   xmlns="http://www.w3.org/2000/svg"
   xmlns:sodipodi="http://sodipodi.sourceforge.net/DTD/sodipodi-0.dtd"
   xmlns:inkscape="http://www.inkscape.org/namespaces/inkscape"
   width="210mm"
   height="297mm"
   viewBox="0 0 744.09448819 1052.3622047"
   id="svg12382"
   version="1.1"
   inkscape:version="0.91 r13725"
   sodipodi:docname="AO.svg"
   inkscape:export-filename="/home/yusei/Documents/DNA/AO.png"
   inkscape:export-xdpi="90"
   inkscape:export-ydpi="90">
  <defs
     id="defs12384">
    <marker
       inkscape:isstock="true"
       style="overflow:visible;"
       id="marker18032"
       refX="0.0"
       refY="0.0"
       orient="auto"
       inkscape:stockid="Arrow1Mend">
      <path
         transform="scale(0.4) rotate(180) translate(10,0)"
         style="fill-rule:evenodd;stroke:#ff0000;stroke-width:1pt;stroke-opacity:1;fill:#ff0000;fill-opacity:1"
         d="M 0.0,0.0 L 5.0,-5.0 L -12.5,0.0 L 5.0,5.0 L 0.0,0.0 z "
         id="path18034" />
    </marker>
    <marker
       inkscape:stockid="Arrow1Mend"
       orient="auto"
       refY="0.0"
       refX="0.0"
       id="marker17972"
       style="overflow:visible;"
       inkscape:isstock="true"
       inkscape:collect="always">
      <path
         id="path17974"
         d="M 0.0,0.0 L 5.0,-5.0 L -12.5,0.0 L 5.0,5.0 L 0.0,0.0 z "
         style="fill-rule:evenodd;stroke:#0000ff;stroke-width:1pt;stroke-opacity:1;fill:#0000ff;fill-opacity:1"
         transform="scale(0.4) rotate(180) translate(10,0)" />
    </marker>
    <marker
       inkscape:isstock="true"
       style="overflow:visible;"
       id="marker17061"
       refX="0.0"
       refY="0.0"
       orient="auto"
       inkscape:stockid="Arrow1Mend"
       inkscape:collect="always">
      <path
         transform="scale(0.4) rotate(180) translate(10,0)"
         style="fill-rule:evenodd;stroke:#000000;stroke-width:1pt;stroke-opacity:1;fill:#000000;fill-opacity:1"
         d="M 0.0,0.0 L 5.0,-5.0 L -12.5,0.0 L 5.0,5.0 L 0.0,0.0 z "
         id="path17063" />
    </marker>
    <marker
       inkscape:stockid="Arrow1Mend"
       orient="auto"
       refY="0.0"
       refX="0.0"
       id="marker16333"
       style="overflow:visible;"
       inkscape:isstock="true"
       inkscape:collect="always">
      <path
         id="path16335"
         d="M 0.0,0.0 L 5.0,-5.0 L -12.5,0.0 L 5.0,5.0 L 0.0,0.0 z "
         style="fill-rule:evenodd;stroke:#000000;stroke-width:1pt;stroke-opacity:1;fill:#000000;fill-opacity:1"
         transform="scale(0.4) rotate(180) translate(10,0)" />
    </marker>
    <marker
       inkscape:isstock="true"
       style="overflow:visible;"
       id="marker15497"
       refX="0.0"
       refY="0.0"
       orient="auto"
       inkscape:stockid="Arrow1Mend"
       inkscape:collect="always">
      <path
         transform="scale(0.4) rotate(180) translate(10,0)"
         style="fill-rule:evenodd;stroke:#000000;stroke-width:1pt;stroke-opacity:1;fill:#000000;fill-opacity:1"
         d="M 0.0,0.0 L 5.0,-5.0 L -12.5,0.0 L 5.0,5.0 L 0.0,0.0 z "
         id="path15499" />
    </marker>
    <marker
       inkscape:stockid="Arrow1Mend"
       orient="auto"
       refY="0.0"
       refX="0.0"
       id="Arrow1Mend"
       style="overflow:visible;"
       inkscape:isstock="true"
       inkscape:collect="always">
      <path
         id="path14784"
         d="M 0.0,0.0 L 5.0,-5.0 L -12.5,0.0 L 5.0,5.0 L 0.0,0.0 z "
         style="fill-rule:evenodd;stroke:#000000;stroke-width:1pt;stroke-opacity:1;fill:#000000;fill-opacity:1"
         transform="scale(0.4) rotate(180) translate(10,0)" />
    </marker>
    <marker
       inkscape:stockid="Arrow1Lend"
       orient="auto"
       refY="0.0"
       refX="0.0"
       id="Arrow1Lend"
       style="overflow:visible;"
       inkscape:isstock="true">
      <path
         id="path14778"
         d="M 0.0,0.0 L 5.0,-5.0 L -12.5,0.0 L 5.0,5.0 L 0.0,0.0 z "
         style="fill-rule:evenodd;stroke:#000000;stroke-width:1pt;stroke-opacity:1;fill:#000000;fill-opacity:1"
         transform="scale(0.8) rotate(180) translate(12.5,0)" />
    </marker>
    <clipPath
       id="clipPath12967"
       clipPathUnits="userSpaceOnUse">
      <path
         inkscape:connector-curvature="0"
         id="path12969"
         d="M 0,0 612,0 612,792 0,792 0,0 Z" />
    </clipPath>
  </defs>
  <sodipodi:namedview
     id="base"
     pagecolor="#ffffff"
     bordercolor="#666666"
     borderopacity="1.0"
     inkscape:pageopacity="0.0"
     inkscape:pageshadow="2"
     inkscape:zoom="1.4"
     inkscape:cx="386.61935"
     inkscape:cy="635.82344"
     inkscape:document-units="px"
     inkscape:current-layer="g19164"
     showgrid="true"
     showguides="false"
     inkscape:window-width="2495"
     inkscape:window-height="1056"
     inkscape:window-x="65"
     inkscape:window-y="24"
     inkscape:window-maximized="1">
    <inkscape:grid
       type="xygrid"
       id="grid12930" />
  </sodipodi:namedview>
  <metadata
     id="metadata12387">
    <rdf:RDF>
      <cc:Work
         rdf:about="">
        <dc:format>image/svg+xml</dc:format>
        <dc:type
           rdf:resource="http://purl.org/dc/dcmitype/StillImage" />
        <dc:title></dc:title>
      </cc:Work>
    </rdf:RDF>
  </metadata>
  <g
     inkscape:label="レイヤー 1"
     inkscape:groupmode="layer"
     id="layer1">
    <g
       transform="matrix(1.25,0,0,-1.25,-27.685182,981.51521)"
       inkscape:label="pip"
       id="g12959">
      <g
         id="g12961" />
      <g
         id="g12963">
        <g
           clip-path="url(#clipPath12967)"
           id="g12965">
          <text
             xml:space="preserve"
             style="font-style:normal;font-weight:normal;font-size:11px;line-height:125%;font-family:sans-serif;letter-spacing:0px;word-spacing:0px;fill:#000000;fill-opacity:1;stroke:none;stroke-width:1px;stroke-linecap:butt;stroke-linejoin:miter;stroke-opacity:1"
             x="-17.851854"
             y="-399.32239"
             id="text14765"
             sodipodi:linespacing="125%"
             transform="scale(1,-1)"><tspan
               sodipodi:role="line"
               id="tspan14767"
               x="-17.851854"
               y="-399.32239">a</tspan></text>
          <g
             id="g19214"
             transform="matrix(1.0072994,0,0,0.96078115,0.85243012,19.875925)">
            <g
               transform="matrix(1.52064,0,0,1.52064,-102.35557,-246.20826)"
               id="g17864">
              <path
                 d="m 195.75112,466.56191 c 0,0.46691 -0.37851,0.84542 -0.84542,0.84542 -0.46691,0 -0.84542,-0.37851 -0.84542,-0.84542 0,-0.46691 0.37851,-0.84542 0.84542,-0.84542 0.46691,0 0.84542,0.37851 0.84542,0.84542 z"
                 style="fill:#0000ff;fill-opacity:1;fill-rule:nonzero;stroke:#0000ff;stroke-width:0.23910095;stroke-linecap:butt;stroke-linejoin:miter;stroke-miterlimit:10;stroke-dasharray:none;stroke-opacity:1"
                 id="path13331"
                 inkscape:connector-curvature="0" />
              <text
                 transform="scale(1,-1)"
                 style="font-variant:normal;font-weight:normal;font-size:7.17314863px;font-family:CMR12;-inkscape-font-specification:CMR12;writing-mode:lr-tb;fill:#000000;fill-opacity:1;fill-rule:nonzero;stroke:none"
                 id="text13335"
                 x="195.02151"
                 y="-458.86743">
                <tspan
                   x="195.02151 198.53351 202.04549"
                   y="-458.86743"
                   sodipodi:role="line"
                   id="tspan13337">663</tspan>
              </text>
              <path
                 d="m 187.24707,481.29143 c 0,0.46692 -0.37852,0.84543 -0.84544,0.84543 -0.46691,0 -0.84543,-0.37851 -0.84543,-0.84543 0,-0.46691 0.37852,-0.84543 0.84543,-0.84543 0.46692,0 0.84544,0.37852 0.84544,0.84543 z"
                 style="fill:#000000;fill-opacity:1;fill-rule:nonzero;stroke:#000000;stroke-width:0.23910095;stroke-linecap:butt;stroke-linejoin:miter;stroke-miterlimit:10;stroke-dasharray:none;stroke-opacity:1"
                 id="path13341"
                 inkscape:connector-curvature="0" />
              <text
                 transform="scale(1,-1)"
                 style="font-variant:normal;font-weight:normal;font-size:7.17314863px;font-family:CMR12;-inkscape-font-specification:CMR12;writing-mode:lr-tb;fill:#000000;fill-opacity:1;fill-rule:nonzero;stroke:none"
                 id="text13345"
                 x="188.74731"
                 y="-478.98013">
                <tspan
                   x="188.74731 192.25929 195.77127"
                   y="-478.98013"
                   sodipodi:role="line"
                   id="tspan13347">662</tspan>
              </text>
              <path
                 d="m 178.74298,496.02097 c 0,0.46691 -0.37852,0.84543 -0.84543,0.84543 -0.46691,0 -0.84543,-0.37852 -0.84543,-0.84543 0,-0.46692 0.37852,-0.84543 0.84543,-0.84543 0.46691,0 0.84543,0.37851 0.84543,0.84543 z"
                 style="fill:#000000;fill-opacity:1;fill-rule:nonzero;stroke:#000000;stroke-width:0.23910095;stroke-linecap:butt;stroke-linejoin:miter;stroke-miterlimit:10;stroke-dasharray:none;stroke-opacity:1"
                 id="path13351"
                 inkscape:connector-curvature="0" />
              <text
                 transform="scale(1,-1)"
                 style="font-variant:normal;font-weight:normal;font-size:7.17314863px;font-family:CMR12;-inkscape-font-specification:CMR12;writing-mode:lr-tb;fill:#000000;fill-opacity:1;fill-rule:nonzero;stroke:none"
                 id="text13355"
                 x="178.01321"
                 y="-499.0928">
                <tspan
                   x="178.01321 181.52519 185.03717"
                   y="-499.0928"
                   sodipodi:role="line"
                   id="tspan13357">666</tspan>
              </text>
              <path
                 d="m 195.75112,496.02097 c 0,0.46691 -0.37851,0.84543 -0.84542,0.84543 -0.46691,0 -0.84542,-0.37852 -0.84542,-0.84543 0,-0.46692 0.37851,-0.84543 0.84542,-0.84543 0.46691,0 0.84542,0.37851 0.84542,0.84543 z"
                 style="fill:#000000;fill-opacity:1;fill-rule:nonzero;stroke:#000000;stroke-width:0.23910095;stroke-linecap:butt;stroke-linejoin:miter;stroke-miterlimit:10;stroke-dasharray:none;stroke-opacity:1"
                 id="path13361"
                 inkscape:connector-curvature="0" />
              <text
                 transform="scale(1,-1)"
                 style="font-variant:normal;font-weight:normal;font-size:7.17314863px;font-family:CMR12;-inkscape-font-specification:CMR12;writing-mode:lr-tb;fill:#000000;fill-opacity:1;fill-rule:nonzero;stroke:none"
                 id="text13365"
                 x="195.02151"
                 y="-499.0928">
                <tspan
                   x="195.02151 198.53351 202.04549"
                   y="-499.0928"
                   sodipodi:role="line"
                   id="tspan13367">661</tspan>
              </text>
              <path
                 d="m 161.73482,496.02097 c 0,0.46691 -0.37851,0.84543 -0.84543,0.84543 -0.46691,0 -0.84542,-0.37852 -0.84542,-0.84543 0,-0.46692 0.37851,-0.84543 0.84542,-0.84543 0.46692,0 0.84543,0.37851 0.84543,0.84543 z"
                 style="fill:#000000;fill-opacity:1;fill-rule:nonzero;stroke:#000000;stroke-width:0.23910095;stroke-linecap:butt;stroke-linejoin:miter;stroke-miterlimit:10;stroke-dasharray:none;stroke-opacity:1"
                 id="path13371"
                 inkscape:connector-curvature="0" />
              <text
                 transform="scale(1,-1)"
                 style="font-variant:normal;font-weight:normal;font-size:7.17314863px;font-family:CMR12;-inkscape-font-specification:CMR12;writing-mode:lr-tb;fill:#000000;fill-opacity:1;fill-rule:nonzero;stroke:none"
                 id="text13375"
                 x="161.00497"
                 y="-499.0928">
                <tspan
                   x="161.00497 164.51694 168.02892"
                   y="-499.0928"
                   sodipodi:role="line"
                   id="tspan13377">667</tspan>
              </text>
              <path
                 d="m 144.72667,496.02097 c 0,0.46691 -0.37852,0.84543 -0.84543,0.84543 -0.46692,0 -0.84542,-0.37852 -0.84542,-0.84543 0,-0.46692 0.3785,-0.84543 0.84542,-0.84543 0.46691,0 0.84543,0.37851 0.84543,0.84543 z"
                 style="fill:#000000;fill-opacity:1;fill-rule:nonzero;stroke:#000000;stroke-width:0.23910095;stroke-linecap:butt;stroke-linejoin:miter;stroke-miterlimit:10;stroke-dasharray:none;stroke-opacity:1"
                 id="path13381"
                 inkscape:connector-curvature="0" />
              <text
                 transform="scale(1,-1)"
                 style="font-variant:normal;font-weight:normal;font-size:7.17314863px;font-family:CMR12;-inkscape-font-specification:CMR12;writing-mode:lr-tb;fill:#000000;fill-opacity:1;fill-rule:nonzero;stroke:none"
                 id="text13385"
                 x="143.9967"
                 y="-499.0928">
                <tspan
                   x="143.9967 147.50867 151.02065"
                   y="-499.0928"
                   sodipodi:role="line"
                   id="tspan13387">672</tspan>
              </text>
              <path
                 d="m 170.23891,481.29143 c 0,0.46692 -0.37851,0.84543 -0.84543,0.84543 -0.46692,0 -0.84543,-0.37851 -0.84543,-0.84543 0,-0.46691 0.37851,-0.84543 0.84543,-0.84543 0.46692,0 0.84543,0.37852 0.84543,0.84543 z"
                 style="fill:#000000;fill-opacity:1;fill-rule:nonzero;stroke:#000000;stroke-width:0.23910095;stroke-linecap:butt;stroke-linejoin:miter;stroke-miterlimit:10;stroke-dasharray:none;stroke-opacity:1"
                 id="path13391"
                 inkscape:connector-curvature="0" />
              <text
                 transform="scale(1,-1)"
                 style="font-variant:normal;font-weight:normal;font-size:7.17314863px;font-family:CMR12;-inkscape-font-specification:CMR12;writing-mode:lr-tb;fill:#000000;fill-opacity:1;fill-rule:nonzero;stroke:none"
                 id="text13395"
                 x="171.73901"
                 y="-478.98013">
                <tspan
                   x="171.73901 175.25098 178.76295"
                   y="-478.98013"
                   sodipodi:role="line"
                   id="tspan13397">665</tspan>
              </text>
              <path
                 d="m 153.23076,481.29143 c 0,0.46692 -0.37852,0.84543 -0.84543,0.84543 -0.46692,0 -0.84543,-0.37851 -0.84543,-0.84543 0,-0.46691 0.37851,-0.84543 0.84543,-0.84543 0.46691,0 0.84543,0.37852 0.84543,0.84543 z"
                 style="fill:#000000;fill-opacity:1;fill-rule:nonzero;stroke:#000000;stroke-width:0.23910095;stroke-linecap:butt;stroke-linejoin:miter;stroke-miterlimit:10;stroke-dasharray:none;stroke-opacity:1"
                 id="path13401"
                 inkscape:connector-curvature="0" />
              <text
                 transform="scale(1,-1)"
                 style="font-variant:normal;font-weight:normal;font-size:7.17314863px;font-family:CMR12;-inkscape-font-specification:CMR12;writing-mode:lr-tb;fill:#000000;fill-opacity:1;fill-rule:nonzero;stroke:none"
                 id="text13405"
                 x="154.73074"
                 y="-478.98013">
                <tspan
                   x="154.73074 158.24271 161.75468"
                   y="-478.98013"
                   sodipodi:role="line"
                   id="tspan13407">668</tspan>
              </text>
              <path
                 d="m 136.2226,481.29143 c 0,0.46692 -0.37851,0.84543 -0.84543,0.84543 -0.46691,0 -0.84545,-0.37851 -0.84545,-0.84543 0,-0.46691 0.37854,-0.84543 0.84545,-0.84543 0.46692,0 0.84543,0.37852 0.84543,0.84543 z"
                 style="fill:#000000;fill-opacity:1;fill-rule:nonzero;stroke:#000000;stroke-width:0.23910095;stroke-linecap:butt;stroke-linejoin:miter;stroke-miterlimit:10;stroke-dasharray:none;stroke-opacity:1"
                 id="path13411"
                 inkscape:connector-curvature="0" />
              <text
                 transform="scale(1,-1)"
                 style="font-variant:normal;font-weight:normal;font-size:7.17314863px;font-family:CMR12;-inkscape-font-specification:CMR12;writing-mode:lr-tb;fill:#000000;fill-opacity:1;fill-rule:nonzero;stroke:none"
                 id="text13415"
                 x="137.72247"
                 y="-478.98013">
                <tspan
                   x="137.72247 141.23444 144.74641"
                   y="-478.98013"
                   sodipodi:role="line"
                   id="tspan13417">671</tspan>
              </text>
              <path
                 d="m 178.74298,466.56191 c 0,0.46691 -0.37852,0.84542 -0.84543,0.84542 -0.46691,0 -0.84543,-0.37851 -0.84543,-0.84542 0,-0.46691 0.37852,-0.84542 0.84543,-0.84542 0.46691,0 0.84543,0.37851 0.84543,0.84542 z"
                 style="fill:#0000ff;fill-opacity:1;fill-rule:nonzero;stroke:#0000ff;stroke-width:0.23910095;stroke-linecap:butt;stroke-linejoin:miter;stroke-miterlimit:10;stroke-dasharray:none;stroke-opacity:1"
                 id="path13421"
                 inkscape:connector-curvature="0" />
              <text
                 transform="scale(1,-1)"
                 style="font-variant:normal;font-weight:normal;font-size:7.17314863px;font-family:CMR12;-inkscape-font-specification:CMR12;writing-mode:lr-tb;fill:#000000;fill-opacity:1;fill-rule:nonzero;stroke:none"
                 id="text13425"
                 x="178.01321"
                 y="-458.86743">
                <tspan
                   x="178.01321 181.52519 185.03717"
                   y="-458.86743"
                   sodipodi:role="line"
                   id="tspan13427">664</tspan>
              </text>
              <path
                 d="m 161.73482,466.56191 c 0,0.46691 -0.37851,0.84542 -0.84543,0.84542 -0.46691,0 -0.84542,-0.37851 -0.84542,-0.84542 0,-0.46691 0.37851,-0.84542 0.84542,-0.84542 0.46692,0 0.84543,0.37851 0.84543,0.84542 z"
                 style="fill:#000000;fill-opacity:1;fill-rule:nonzero;stroke:#000000;stroke-width:0.23910095;stroke-linecap:butt;stroke-linejoin:miter;stroke-miterlimit:10;stroke-dasharray:none;stroke-opacity:1"
                 id="path13431"
                 inkscape:connector-curvature="0" />
              <text
                 transform="scale(1,-1)"
                 style="font-variant:normal;font-weight:normal;font-size:7.17314863px;font-family:CMR12;-inkscape-font-specification:CMR12;writing-mode:lr-tb;fill:#000000;fill-opacity:1;fill-rule:nonzero;stroke:none"
                 id="text13435"
                 x="161.00497"
                 y="-458.86743">
                <tspan
                   x="161.00497 164.51694 168.02892"
                   y="-458.86743"
                   sodipodi:role="line"
                   id="tspan13437">669</tspan>
              </text>
              <path
                 d="m 144.72667,466.56191 c 0,0.46691 -0.37852,0.84542 -0.84543,0.84542 -0.46692,0 -0.84542,-0.37851 -0.84542,-0.84542 0,-0.46691 0.3785,-0.84542 0.84542,-0.84542 0.46691,0 0.84543,0.37851 0.84543,0.84542 z"
                 style="fill:#000000;fill-opacity:1;fill-rule:nonzero;stroke:#000000;stroke-width:0.23910095;stroke-linecap:butt;stroke-linejoin:miter;stroke-miterlimit:10;stroke-dasharray:none;stroke-opacity:1"
                 id="path13441"
                 inkscape:connector-curvature="0" />
              <text
                 transform="scale(1,-1)"
                 style="font-variant:normal;font-weight:normal;font-size:7.17314863px;font-family:CMR12;-inkscape-font-specification:CMR12;writing-mode:lr-tb;fill:#000000;fill-opacity:1;fill-rule:nonzero;stroke:none"
                 id="text13445"
                 x="143.9967"
                 y="-458.86743">
                <tspan
                   x="143.9967 147.50867 151.02065"
                   y="-458.86743"
                   sodipodi:role="line"
                   id="tspan13447">670</tspan>
              </text>
              <path
                 d="m 194.42166,495.18262 -7.53599,-13.05285 m 1e-5,-1.67668 7.53599,-13.05284 m -0.48095,-0.83834 -15.07819,0 m -1.44902,0.83834 -7.53599,13.05284 m 0,1.67668 7.536,13.05285 m -0.48095,0.83835 -15.07819,0 m -1.44903,-0.83835 -7.53599,-13.05285 m 1e-5,-1.67668 7.53599,-13.05284 m -0.48095,-0.83834 -15.07819,0 m -1.44903,0.83834 -7.53598,13.05284 m 1e-5,1.67668 7.53598,13.05285"
                 style="fill:none;stroke:#000000;stroke-width:0.80000001;stroke-linecap:butt;stroke-linejoin:miter;stroke-miterlimit:10;stroke-dasharray:none;stroke-opacity:1"
                 id="path13451"
                 inkscape:connector-curvature="0" />
              <path
                 d="m 193.94072,496.02097 -15.07819,0"
                 style="fill:none;stroke:#ff0000;stroke-width:0.80000001;stroke-linecap:butt;stroke-linejoin:miter;stroke-miterlimit:10;stroke-dasharray:0.80000004, 4.00010051;stroke-dashoffset:0;stroke-opacity:1"
                 id="path13455"
                 inkscape:connector-curvature="0" />
              <path
                 d="m 185.43665,481.29143 -15.07819,0"
                 style="fill:none;stroke:#ff0000;stroke-width:0.23910095;stroke-linecap:butt;stroke-linejoin:miter;stroke-miterlimit:10;stroke-dasharray:0.23910096, 1.19553478;stroke-dashoffset:0;stroke-opacity:1"
                 id="path13459"
                 inkscape:connector-curvature="0" />
              <path
                 d="m 176.93257,466.56191 -15.07819,0"
                 style="fill:none;stroke:#ff0000;stroke-width:0.80000001;stroke-linecap:butt;stroke-linejoin:miter;stroke-miterlimit:10;stroke-dasharray:0.80000004, 4.00010051;stroke-dashoffset:0;stroke-opacity:1"
                 id="path13463"
                 inkscape:connector-curvature="0" />
              <path
                 d="m 168.42849,481.29143 -15.07818,0"
                 style="fill:none;stroke:#ff0000;stroke-width:0.23910095;stroke-linecap:butt;stroke-linejoin:miter;stroke-miterlimit:10;stroke-dasharray:0.23910096, 1.19553478;stroke-dashoffset:0;stroke-opacity:1"
                 id="path13467"
                 inkscape:connector-curvature="0" />
              <path
                 style="fill:none;fill-rule:evenodd;stroke:#000000;stroke-width:0.42481744;stroke-linecap:butt;stroke-linejoin:miter;stroke-miterlimit:4;stroke-dasharray:none;stroke-opacity:1;marker-end:url(#Arrow1Mend)"
                 d="m 206.26244,495.49384 -9.0235,0"
                 id="path15387"
                 inkscape:connector-curvature="0" />
              <path
                 inkscape:connector-curvature="0"
                 id="use17057"
                 d="m 141.86244,495.60812 -9.0235,0"
                 style="fill:none;fill-rule:evenodd;stroke:#000000;stroke-width:0.42481744;stroke-linecap:butt;stroke-linejoin:miter;stroke-miterlimit:4;stroke-dasharray:none;stroke-opacity:1;marker-end:url(#marker17061)" />
            </g>
            <path
               inkscape:connector-curvature="0"
               id="path17960"
               d="m 217.2041,458.33832 0,-12.16512 -109.48608,0 0,12.16512"
               style="fill:none;fill-rule:evenodd;stroke:#000000;stroke-width:1.21651208px;stroke-linecap:butt;stroke-linejoin:miter;stroke-opacity:1" />
            <path
               inkscape:connector-curvature="0"
               id="path17964"
               d="m 162.46106,458.33832 0,-18.24768"
               style="fill:none;fill-rule:evenodd;stroke:#0000ff;stroke-width:0.60825604;stroke-linecap:butt;stroke-linejoin:miter;stroke-miterlimit:4;stroke-dasharray:none;stroke-opacity:1;marker-end:url(#marker17972)" />
            <text
               transform="scale(1,-1)"
               sodipodi:linespacing="125%"
               id="text18110"
               y="-428.18622"
               x="132.01352"
               style="font-style:normal;font-weight:normal;font-size:16.72703934px;line-height:125%;font-family:sans-serif;letter-spacing:0px;word-spacing:0px;fill:#0000ff;fill-opacity:1;stroke:none;stroke-width:1px;stroke-linecap:butt;stroke-linejoin:miter;stroke-opacity:1"
               xml:space="preserve"><tspan
                 y="-428.18622"
                 x="132.01352"
                 id="tspan18112"
                 sodipodi:role="line">Obtuse</tspan></text>
          </g>
          <g
             id="g19164"
             transform="matrix(1.0637082,0,0,1.0145849,16.140712,-3.631798)">
            <g
               transform="matrix(1.44,0,0,1.44,-86.555221,-207.3964)"
               id="g17915">
              <path
                 d="m 303.16629,464.39048 c 0,0.46691 -0.37851,0.84542 -0.84542,0.84542 -0.46691,0 -0.84542,-0.37851 -0.84542,-0.84542 0,-0.46691 0.37851,-0.84542 0.84542,-0.84542 0.46691,0 0.84542,0.37851 0.84542,0.84542 z"
                 style="fill:#ff0000;fill-opacity:1;fill-rule:nonzero;stroke:#ff0000;stroke-width:0.23910142;stroke-linecap:butt;stroke-linejoin:miter;stroke-miterlimit:10;stroke-dasharray:none;stroke-opacity:1"
                 id="path13471"
                 inkscape:connector-curvature="0" />
              <text
                 transform="scale(1,-1)"
                 style="font-variant:normal;font-weight:normal;font-size:7.17316294px;font-family:CMR12;-inkscape-font-specification:CMR12;writing-mode:lr-tb;fill:#000000;fill-opacity:1;fill-rule:nonzero;stroke:none"
                 id="text13475"
                 x="302.43661"
                 y="-456.69598">
                <tspan
                   x="302.43661 305.94858 309.46057"
                   y="-456.69598"
                   sodipodi:role="line"
                   id="tspan13477">667</tspan>
              </text>
              <path
                 d="m 294.66222,479.12003 c 0,0.46692 -0.37852,0.84543 -0.84544,0.84543 -0.46691,0 -0.84542,-0.37851 -0.84542,-0.84543 0,-0.46691 0.37851,-0.84543 0.84542,-0.84543 0.46692,0 0.84544,0.37852 0.84544,0.84543 z"
                 style="fill:#000000;fill-opacity:1;fill-rule:nonzero;stroke:#000000;stroke-width:0.80000001;stroke-linecap:butt;stroke-linejoin:miter;stroke-miterlimit:10;stroke-dasharray:0.80000004, 4.00010051;stroke-dashoffset:0;stroke-opacity:1"
                 id="path13481"
                 inkscape:connector-curvature="0" />
              <text
                 transform="scale(1,-1)"
                 style="font-variant:normal;font-weight:normal;font-size:7.17316294px;font-family:CMR12;-inkscape-font-specification:CMR12;writing-mode:lr-tb;fill:#000000;fill-opacity:1;fill-rule:nonzero;stroke:none"
                 id="text13485"
                 x="296.16229"
                 y="-476.80878">
                <tspan
                   x="296.16229 299.67429 303.18628"
                   y="-476.80878"
                   sodipodi:role="line"
                   id="tspan13487">666</tspan>
              </text>
              <path
                 d="m 286.15812,493.8496 c 0,0.46691 -0.37852,0.84543 -0.84543,0.84543 -0.46691,0 -0.84543,-0.37852 -0.84543,-0.84543 0,-0.46692 0.37852,-0.84543 0.84543,-0.84543 0.46691,0 0.84543,0.37851 0.84543,0.84543 z"
                 style="fill:#000000;fill-opacity:1;fill-rule:nonzero;stroke:#000000;stroke-width:0.80000001;stroke-linecap:butt;stroke-linejoin:miter;stroke-miterlimit:10;stroke-dasharray:0.80000004, 4.00010051;stroke-dashoffset:0;stroke-opacity:1"
                 id="path13491"
                 inkscape:connector-curvature="0" />
              <text
                 transform="scale(1,-1)"
                 style="font-variant:normal;font-weight:normal;font-size:7.17316294px;font-family:CMR12;-inkscape-font-specification:CMR12;writing-mode:lr-tb;fill:#000000;fill-opacity:1;fill-rule:nonzero;stroke:none"
                 id="text13495"
                 x="285.42831"
                 y="-496.92148">
                <tspan
                   x="285.42831 288.94028 292.45227"
                   y="-496.92148"
                   sodipodi:role="line"
                   id="tspan13497">662</tspan>
              </text>
              <path
                 d="m 303.16629,493.8496 c 0,0.46691 -0.37851,0.84543 -0.84542,0.84543 -0.46691,0 -0.84542,-0.37852 -0.84542,-0.84543 0,-0.46692 0.37851,-0.84543 0.84542,-0.84543 0.46691,0 0.84542,0.37851 0.84542,0.84543 z"
                 style="fill:#000000;fill-opacity:1;fill-rule:nonzero;stroke:#000000;stroke-width:0.80000001;stroke-linecap:butt;stroke-linejoin:miter;stroke-miterlimit:10;stroke-dasharray:0.80000004, 4.00010051;stroke-dashoffset:0;stroke-opacity:1"
                 id="path13501"
                 inkscape:connector-curvature="0" />
              <text
                 transform="scale(1,-1)"
                 style="font-variant:normal;font-weight:normal;font-size:7.17316294px;font-family:CMR12;-inkscape-font-specification:CMR12;writing-mode:lr-tb;fill:#000000;fill-opacity:1;fill-rule:nonzero;stroke:none"
                 id="text13505"
                 x="302.43661"
                 y="-496.92148">
                <tspan
                   x="302.43661 305.94858 309.46057"
                   y="-496.92148"
                   sodipodi:role="line"
                   id="tspan13507">661</tspan>
              </text>
              <path
                 d="m 269.14992,493.8496 c 0,0.46691 -0.3785,0.84543 -0.84543,0.84543 -0.46691,0 -0.84542,-0.37852 -0.84542,-0.84543 0,-0.46692 0.37851,-0.84543 0.84542,-0.84543 0.46693,0 0.84543,0.37851 0.84543,0.84543 z"
                 style="fill:#000000;fill-opacity:1;fill-rule:nonzero;stroke:#000000;stroke-width:0.80000001;stroke-linecap:butt;stroke-linejoin:miter;stroke-miterlimit:10;stroke-dasharray:0.80000004, 4.00010051;stroke-dashoffset:0;stroke-opacity:1"
                 id="path13511"
                 inkscape:connector-curvature="0" />
              <text
                 transform="scale(1,-1)"
                 style="font-variant:normal;font-weight:normal;font-size:7.17316294px;font-family:CMR12;-inkscape-font-specification:CMR12;writing-mode:lr-tb;fill:#000000;fill-opacity:1;fill-rule:nonzero;stroke:none"
                 id="text13515"
                 x="268.42001"
                 y="-496.92148">
                <tspan
                   x="268.42001 271.93198 275.44397"
                   y="-496.92148"
                   sodipodi:role="line"
                   id="tspan13517">663</tspan>
              </text>
              <path
                 d="m 252.14174,493.8496 c 0,0.46691 -0.37852,0.84543 -0.84543,0.84543 -0.46692,0 -0.84543,-0.37852 -0.84543,-0.84543 0,-0.46692 0.37851,-0.84543 0.84543,-0.84543 0.46691,0 0.84543,0.37851 0.84543,0.84543 z"
                 style="fill:#000000;fill-opacity:1;fill-rule:nonzero;stroke:#000000;stroke-width:0.23910142;stroke-linecap:butt;stroke-linejoin:miter;stroke-miterlimit:10;stroke-dasharray:none;stroke-opacity:1"
                 id="path13521"
                 inkscape:connector-curvature="0" />
              <text
                 transform="scale(1,-1)"
                 style="font-variant:normal;font-weight:normal;font-size:7.17316294px;font-family:CMR12;-inkscape-font-specification:CMR12;writing-mode:lr-tb;fill:#000000;fill-opacity:1;fill-rule:nonzero;stroke:none"
                 id="text13525"
                 x="251.41171"
                 y="-496.92148">
                <tspan
                   x="251.41171 254.92368 258.43567"
                   y="-496.92148"
                   sodipodi:role="line"
                   id="tspan13527">672</tspan>
              </text>
              <path
                 d="m 277.65403,479.12003 c 0,0.46692 -0.37851,0.84543 -0.84543,0.84543 -0.46692,0 -0.84543,-0.37851 -0.84543,-0.84543 0,-0.46691 0.37851,-0.84543 0.84543,-0.84543 0.46692,0 0.84543,0.37852 0.84543,0.84543 z"
                 style="fill:#000000;fill-opacity:1;fill-rule:nonzero;stroke:#000000;stroke-width:0.80000001;stroke-linecap:butt;stroke-linejoin:miter;stroke-miterlimit:10;stroke-dasharray:0.80000004, 4.00010051;stroke-dashoffset:0;stroke-opacity:1"
                 id="path13531"
                 inkscape:connector-curvature="0" />
              <text
                 transform="scale(1,-1)"
                 style="font-variant:normal;font-weight:normal;font-size:7.17316294px;font-family:CMR12;-inkscape-font-specification:CMR12;writing-mode:lr-tb;fill:#000000;fill-opacity:1;fill-rule:nonzero;stroke:none;stroke-width:0.80000001;stroke-miterlimit:10;stroke-dasharray:0.80000004, 4.00010051;stroke-dashoffset:0"
                 id="text13535"
                 x="280.75403"
                 y="-480.00879">
                <tspan
                   x="280.75403 284.26599 287.77798"
                   y="-480.00879"
                   sodipodi:role="line"
                   id="tspan13537">665</tspan>
              </text>
              <path
                 d="m 260.64584,479.12003 c 0,0.46692 -0.37851,0.84543 -0.84543,0.84543 -0.46692,0 -0.84543,-0.37851 -0.84543,-0.84543 0,-0.46691 0.37851,-0.84543 0.84543,-0.84543 0.46692,0 0.84543,0.37852 0.84543,0.84543 z"
                 style="fill:#000000;fill-opacity:1;fill-rule:nonzero;stroke:#000000;stroke-width:0.80000001;stroke-linecap:butt;stroke-linejoin:miter;stroke-miterlimit:10;stroke-dasharray:0.80000004, 4.00010051;stroke-dashoffset:0;stroke-opacity:1"
                 id="path13541"
                 inkscape:connector-curvature="0" />
              <text
                 transform="scale(1,-1)"
                 style="font-variant:normal;font-weight:normal;font-size:7.17316294px;font-family:CMR12;-inkscape-font-specification:CMR12;writing-mode:lr-tb;fill:#000000;fill-opacity:1;fill-rule:nonzero;stroke:none;stroke-width:0.80000001;stroke-miterlimit:10;stroke-dasharray:0.80000004, 4.00010051;stroke-dashoffset:0"
                 id="text13545"
                 x="263.74573"
                 y="-480.00879">
                <tspan
                   x="263.74573 267.25769 270.76968"
                   y="-480.00879"
                   sodipodi:role="line"
                   id="tspan13547">664</tspan>
              </text>
              <path
                 d="m 243.63765,479.12003 c 0,0.46692 -0.37851,0.84543 -0.84543,0.84543 -0.46691,0 -0.84545,-0.37851 -0.84545,-0.84543 0,-0.46691 0.37854,-0.84543 0.84545,-0.84543 0.46692,0 0.84543,0.37852 0.84543,0.84543 z"
                 style="fill:#000000;fill-opacity:1;fill-rule:nonzero;stroke:#000000;stroke-width:0.23910142;stroke-linecap:butt;stroke-linejoin:miter;stroke-miterlimit:10;stroke-dasharray:none;stroke-opacity:1"
                 id="path13551"
                 inkscape:connector-curvature="0" />
              <text
                 transform="scale(1,-1)"
                 style="font-variant:normal;font-weight:normal;font-size:7.17316294px;font-family:CMR12;-inkscape-font-specification:CMR12;writing-mode:lr-tb;fill:#000000;fill-opacity:1;fill-rule:nonzero;stroke:none"
                 id="text13555"
                 x="245.13742"
                 y="-476.80878">
                <tspan
                   x="245.13742 248.64938 252.16138"
                   y="-476.80878"
                   sodipodi:role="line"
                   id="tspan13557">671</tspan>
              </text>
              <path
                 d="m 286.15812,464.39048 c 0,0.46691 -0.37852,0.84542 -0.84543,0.84542 -0.46691,0 -0.84543,-0.37851 -0.84543,-0.84542 0,-0.46691 0.37852,-0.84542 0.84543,-0.84542 0.46691,0 0.84543,0.37851 0.84543,0.84542 z"
                 style="fill:#ff0000;fill-opacity:1;fill-rule:nonzero;stroke:#ff0000;stroke-width:0.80000001;stroke-linecap:butt;stroke-linejoin:miter;stroke-miterlimit:10;stroke-dasharray:0.80000004, 4.00010051;stroke-dashoffset:0;stroke-opacity:1"
                 id="path13561"
                 inkscape:connector-curvature="0" />
              <text
                 transform="scale(1,-1)"
                 style="font-variant:normal;font-weight:normal;font-size:7.17316294px;font-family:CMR12;-inkscape-font-specification:CMR12;writing-mode:lr-tb;fill:#000000;fill-opacity:1;fill-rule:nonzero;stroke:none"
                 id="text13565"
                 x="285.42831"
                 y="-456.69598">
                <tspan
                   x="285.42831 288.94028 292.45227"
                   y="-456.69598"
                   sodipodi:role="line"
                   id="tspan13567">668</tspan>
              </text>
              <path
                 d="m 269.14992,464.39048 c 0,0.46691 -0.3785,0.84542 -0.84543,0.84542 -0.46691,0 -0.84542,-0.37851 -0.84542,-0.84542 0,-0.46691 0.37851,-0.84542 0.84542,-0.84542 0.46693,0 0.84543,0.37851 0.84543,0.84542 z"
                 style="fill:#000000;fill-opacity:1;fill-rule:nonzero;stroke:#000000;stroke-width:0.80000001;stroke-linecap:butt;stroke-linejoin:miter;stroke-miterlimit:10;stroke-dasharray:0.80000004, 4.00010051;stroke-dashoffset:0;stroke-opacity:1"
                 id="path13571"
                 inkscape:connector-curvature="0" />
              <text
                 transform="scale(1,-1)"
                 style="font-variant:normal;font-weight:normal;font-size:7.17316294px;font-family:CMR12;-inkscape-font-specification:CMR12;writing-mode:lr-tb;fill:#000000;fill-opacity:1;fill-rule:nonzero;stroke:none;stroke-width:0.80000001;stroke-miterlimit:10;stroke-dasharray:0.80000004, 4.00010051;stroke-dashoffset:0"
                 id="text13575"
                 x="268.42001"
                 y="-456.69598">
                <tspan
                   x="268.42001 271.93198 275.44397"
                   y="-456.69598"
                   sodipodi:role="line"
                   id="tspan13577">669</tspan>
              </text>
              <path
                 d="m 252.14174,464.39048 c 0,0.46691 -0.37852,0.84542 -0.84543,0.84542 -0.46692,0 -0.84543,-0.37851 -0.84543,-0.84542 0,-0.46691 0.37851,-0.84542 0.84543,-0.84542 0.46691,0 0.84543,0.37851 0.84543,0.84542 z"
                 style="fill:#000000;fill-opacity:1;fill-rule:nonzero;stroke:#000000;stroke-width:0.23910142;stroke-linecap:butt;stroke-linejoin:miter;stroke-miterlimit:10;stroke-dasharray:none;stroke-opacity:1"
                 id="path13581"
                 inkscape:connector-curvature="0" />
              <text
                 transform="scale(1,-1)"
                 style="font-variant:normal;font-weight:normal;font-size:7.17316294px;font-family:CMR12;-inkscape-font-specification:CMR12;writing-mode:lr-tb;fill:#000000;fill-opacity:1;fill-rule:nonzero;stroke:none"
                 id="text13585"
                 x="251.41171"
                 y="-456.69598">
                <tspan
                   x="251.41171 254.92368 258.43567"
                   y="-456.69598"
                   sodipodi:role="line"
                   id="tspan13587">670</tspan>
              </text>
              <path
                 d="m 301.35589,493.8496 -15.07822,0 m -1.92997,0 -15.07821,0 m -1.44904,-0.83835 -7.53601,-13.05288 m 0.48095,-0.83834 15.07822,0 m 1.92997,0 15.07823,0 m 1.44902,-0.83834 7.53601,-13.05287 m -0.48095,-0.83834 -15.07822,0 m -1.92997,0 -15.07821,0 m -1.92998,0 -15.07822,0 m -1.44903,0.83834 -7.536,13.05287 m 1e-5,1.67668 7.536,13.05288"
                 style="fill:none;stroke:#000000;stroke-width:0.80000001;stroke-linecap:butt;stroke-linejoin:miter;stroke-miterlimit:10;stroke-dasharray:none;stroke-opacity:1"
                 id="path13591"
                 inkscape:connector-curvature="0" />
              <path
                 d="m 301.83683,493.01125 -7.53601,-13.05288"
                 style="fill:none;stroke:#ff0000;stroke-width:0.80000001;stroke-linecap:butt;stroke-linejoin:miter;stroke-miterlimit:10;stroke-dasharray:0.80000004, 4.00010051;stroke-dashoffset:0;stroke-opacity:1"
                 id="path13595"
                 inkscape:connector-curvature="0" />
              <path
                 d="m 284.82865,493.01125 -7.53601,-13.05288"
                 style="fill:none;stroke:#ff0000;stroke-width:0.80000001;stroke-linecap:butt;stroke-linejoin:miter;stroke-miterlimit:10;stroke-dasharray:0.80000004, 4.00010051;stroke-dashoffset:0;stroke-opacity:1"
                 id="path13599"
                 inkscape:connector-curvature="0" />
              <path
                 d="m 260.28446,478.28169 7.536,-13.05287"
                 style="fill:none;stroke:#ff0000;stroke-width:0.80000001;stroke-linecap:butt;stroke-linejoin:miter;stroke-miterlimit:10;stroke-dasharray:0.80000004, 4.00010051;stroke-dashoffset:0;stroke-opacity:1"
                 id="path13603"
                 inkscape:connector-curvature="0" />
              <path
                 d="m 277.29264,478.28169 7.53601,-13.05287"
                 style="fill:none;stroke:#ff0000;stroke-width:0.80000001;stroke-linecap:butt;stroke-linejoin:miter;stroke-miterlimit:10;stroke-dasharray:0.80000004, 4.00010051;stroke-dashoffset:0;stroke-opacity:1"
                 id="path13607"
                 inkscape:connector-curvature="0" />
              <path
                 inkscape:connector-curvature="0"
                 id="use15493"
                 d="m 314.14816,494.00813 -9.0235,0"
                 style="fill:none;fill-rule:evenodd;stroke:#000000;stroke-width:0.42481744;stroke-linecap:butt;stroke-linejoin:miter;stroke-miterlimit:4;stroke-dasharray:none;stroke-opacity:1;marker-end:url(#marker15497)" />
              <path
                 style="fill:none;fill-rule:evenodd;stroke:#000000;stroke-width:0.42481744;stroke-linecap:butt;stroke-linejoin:miter;stroke-miterlimit:4;stroke-dasharray:none;stroke-opacity:1;marker-end:url(#marker16333)"
                 d="m 249.86244,494.00812 -9.0235,0"
                 id="use16329"
                 inkscape:connector-curvature="0" />
            </g>
            <path
               inkscape:connector-curvature="0"
               id="path17962"
               d="m 267.89811,456.66118 0,-11.52 103.68,0 0,11.52"
               style="fill:none;fill-rule:evenodd;stroke:#000000;stroke-width:1.15200007px;stroke-linecap:butt;stroke-linejoin:miter;stroke-opacity:1" />
            <path
               inkscape:connector-curvature="0"
               id="path18090"
               d="m 319.73811,456.66118 0,-17.28"
               style="fill:#ff0000;fill-opacity:1;fill-rule:evenodd;stroke:#ff0000;stroke-width:0.57600003;stroke-linecap:butt;stroke-linejoin:miter;stroke-miterlimit:4;stroke-dasharray:none;stroke-opacity:1;marker-end:url(#marker18032)" />
            <text
               inkscape:export-ydpi="90"
               inkscape:export-xdpi="90"
               xml:space="preserve"
               style="font-style:normal;font-weight:normal;font-size:15.84000015px;line-height:125%;font-family:sans-serif;letter-spacing:0px;word-spacing:0px;fill:#ff0000;fill-opacity:1;stroke:none;stroke-width:1px;stroke-linecap:butt;stroke-linejoin:miter;stroke-opacity:1"
               x="298.78809"
               y="-428.10803"
               id="use18114"
               sodipodi:linespacing="125%"
               transform="scale(1,-1)"><tspan
                 sodipodi:role="line"
                 id="tspan18118"
                 x="298.78809"
                 y="-428.10803">Acute</tspan></text>
          </g>
        </g>
      </g>
    </g>
  </g>
</svg>
