<?xml version="1.0" encoding="UTF-8" standalone="no"?>
<!-- Created with Inkscape (http://www.inkscape.org/) -->

<svg
   xmlns:dc="http://purl.org/dc/elements/1.1/"
   xmlns:cc="http://creativecommons.org/ns#"
   xmlns:rdf="http://www.w3.org/1999/02/22-rdf-syntax-ns#"
   xmlns:svg="http://www.w3.org/2000/svg"
   xmlns="http://www.w3.org/2000/svg"
   xmlns:sodipodi="http://sodipodi.sourceforge.net/DTD/sodipodi-0.dtd"
   xmlns:inkscape="http://www.inkscape.org/namespaces/inkscape"
   width="210mm"
   height="297mm"
   viewBox="0 0 744.09448819 1052.3622047"
   id="svg12382"
   version="1.1"
   inkscape:version="0.91 r13725"
   sodipodi:docname="AO.svg"
   inkscape:export-filename="/home/yusei/Documents/DNA/AO.png"
   inkscape:export-xdpi="90"
   inkscape:export-ydpi="90">
  <defs
     id="defs12384">
    <marker
       inkscape:isstock="true"
       style="overflow:visible;"
       id="marker18032"
       refX="0.0"
       refY="0.0"
       orient="auto"
       inkscape:stockid="Arrow1Mend">
      <path
         transform="scale(0.4) rotate(180) translate(10,0)"
         style="fill-rule:evenodd;stroke:#ff0000;stroke-width:1pt;stroke-opacity:1;fill:#ff0000;fill-opacity:1"
         d="M 0.0,0.0 L 5.0,-5.0 L -12.5,0.0 L 5.0,5.0 L 0.0,0.0 z "
         id="path18034" />
    </marker>
    <marker
       inkscape:stockid="Arrow1Mend"
       orient="auto"
       refY="0.0"
       refX="0.0"
       id="marker17972"
       style="overflow:visible;"
       inkscape:isstock="true"
       inkscape:collect="always">
      <path
         id="path17974"
         d="M 0.0,0.0 L 5.0,-5.0 L -12.5,0.0 L 5.0,5.0 L 0.0,0.0 z "
         style="fill-rule:evenodd;stroke:#0000ff;stroke-width:1pt;stroke-opacity:1;fill:#0000ff;fill-opacity:1"
         transform="scale(0.4) rotate(180) translate(10,0)" />
    </marker>
    <marker
       inkscape:isstock="true"
       style="overflow:visible;"
       id="marker17061"
       refX="0.0"
       refY="0.0"
       orient="auto"
       inkscape:stockid="Arrow1Mend"
       inkscape:collect="always">
      <path
         transform="scale(0.4) rotate(180) translate(10,0)"
         style="fill-rule:evenodd;stroke:#000000;stroke-width:1pt;stroke-opacity:1;fill:#000000;fill-opacity:1"
         d="M 0.0,0.0 L 5.0,-5.0 L -12.5,0.0 L 5.0,5.0 L 0.0,0.0 z "
         id="path17063" />
    </marker>
    <marker
       inkscape:stockid="Arrow1Mend"
       orient="auto"
       refY="0.0"
       refX="0.0"
       id="marker16333"
       style="overflow:visible;"
       inkscape:isstock="true"
       inkscape:collect="always">
      <path
         id="path16335"
         d="M 0.0,0.0 L 5.0,-5.0 L -12.5,0.0 L 5.0,5.0 L 0.0,0.0 z "
         style="fill-rule:evenodd;stroke:#000000;stroke-width:1pt;stroke-opacity:1;fill:#000000;fill-opacity:1"
         transform="scale(0.4) rotate(180) translate(10,0)" />
    </marker>
    <marker
       inkscape:isstock="true"
       style="overflow:visible;"
       id="marker15497"
       refX="0.0"
       refY="0.0"
       orient="auto"
       inkscape:stockid="Arrow1Mend"
       inkscape:collect="always">
      <path
         transform="scale(0.4) rotate(180) translate(10,0)"
         style="fill-rule:evenodd;stroke:#000000;stroke-width:1pt;stroke-opacity:1;fill:#000000;fill-opacity:1"
         d="M 0.0,0.0 L 5.0,-5.0 L -12.5,0.0 L 5.0,5.0 L 0.0,0.0 z "
         id="path15499" />
    </marker>
    <marker
       inkscape:stockid="Arrow1Mend"
       orient="auto"
       refY="0.0"
       refX="0.0"
       id="Arrow1Mend"
       style="overflow:visible;"
       inkscape:isstock="true"
       inkscape:collect="always">
      <path
         id="path14784"
         d="M 0.0,0.0 L 5.0,-5.0 L -12.5,0.0 L 5.0,5.0 L 0.0,0.0 z "
         style="fill-rule:evenodd;stroke:#000000;stroke-width:1pt;stroke-opacity:1;fill:#000000;fill-opacity:1"
         transform="scale(0.4) rotate(180) translate(10,0)" />
    </marker>
    <marker
       inkscape:stockid="Arrow1Lend"
       orient="auto"
       refY="0.0"
       refX="0.0"
       id="Arrow1Lend"
       style="overflow:visible;"
       inkscape:isstock="true">
      <path
         id="path14778"
         d="M 0.0,0.0 L 5.0,-5.0 L -12.5,0.0 L 5.0,5.0 L 0.0,0.0 z "
         style="fill-rule:evenodd;stroke:#000000;stroke-width:1pt;stroke-opacity:1;fill:#000000;fill-opacity:1"
         transform="scale(0.8) rotate(180) translate(12.5,0)" />
    </marker>
    <clipPath
       id="clipPath12967"
       clipPathUnits="userSpaceOnUse">
      <path
         inkscape:connector-curvature="0"
         id="path12969"
         d="M 0,0 612,0 612,792 0,792 0,0 Z" />
    </clipPath>
  </defs>
  <sodipodi:namedview
     id="base"
     pagecolor="#ffffff"
     bordercolor="#666666"
     borderopacity="1.0"
     inkscape:pageopacity="0.0"
     inkscape:pageshadow="2"
     inkscape:zoom="1.4"
     inkscape:cx="355.99717"
     inkscape:cy="695.86945"
     inkscape:document-units="px"
     inkscape:current-layer="g19782"
     showgrid="true"
     showguides="false"
     inkscape:window-width="2495"
     inkscape:window-height="1056"
     inkscape:window-x="65"
     inkscape:window-y="24"
     inkscape:window-maximized="1">
    <inkscape:grid
       type="xygrid"
       id="grid12930" />
  </sodipodi:namedview>
  <metadata
     id="metadata12387">
    <rdf:RDF>
      <cc:Work
         rdf:about="">
        <dc:format>image/svg+xml</dc:format>
        <dc:type
           rdf:resource="http://purl.org/dc/dcmitype/StillImage" />
        <dc:title />
      </cc:Work>
    </rdf:RDF>
  </metadata>
  <g
     inkscape:label="レイヤー 1"
     inkscape:groupmode="layer"
     id="layer1">
    <g
       transform="matrix(2.16,0,0,-2.16,-186.90421,1405.0757)"
       inkscape:label="pip"
       id="g12959">
      <g
         id="g12961" />
      <g
         id="g12963">
        <g
           clip-path="url(#clipPath12967)"
           id="g12965">
          <g
             id="g19782">
            <path
               inkscape:connector-curvature="0"
               id="path13331"
               style="fill:#0000ff;fill-opacity:1;fill-rule:nonzero;stroke:#0000ff;stroke-width:0.35768378;stroke-linecap:butt;stroke-linejoin:miter;stroke-miterlimit:10;stroke-dasharray:none;stroke-opacity:1"
               d="m 197.58951,464.97165 c 0,0.68215 -0.57978,1.23516 -1.29496,1.23516 -0.71519,0 -1.29497,-0.55301 -1.29497,-1.23516 0,-0.68216 0.57978,-1.23516 1.29497,-1.23516 0.71518,0 1.29496,0.553 1.29496,1.23516 z" />
            <text
               y="-464.58432"
               x="191.88167"
               id="text13335"
               style="font-variant:normal;font-weight:normal;font-size:10.73069286px;font-family:CMR12;-inkscape-font-specification:CMR12;writing-mode:lr-tb;fill:#000000;fill-opacity:1;fill-rule:nonzero;stroke:none"
               transform="scale(1.0239224,-0.97663647)">
              <tspan
                 id="tspan13337"
                 sodipodi:role="line"
                 y="-464.58432"
                 x="191.88167 197.13544 202.38921">663</tspan>
            </text>
            <path
               inkscape:connector-curvature="0"
               id="path13341"
               style="fill:#000000;fill-opacity:1;fill-rule:nonzero;stroke:#000000;stroke-width:0.35768378;stroke-linecap:butt;stroke-linejoin:miter;stroke-miterlimit:10;stroke-dasharray:none;stroke-opacity:1"
               d="m 184.56352,486.49151 c 0,0.68217 -0.57979,1.23517 -1.29499,1.23517 -0.71519,0 -1.29498,-0.553 -1.29498,-1.23517 0,-0.68216 0.57979,-1.23518 1.29498,-1.23518 0.7152,0 1.29499,0.55302 1.29499,1.23518 z" />
            <text
               y="-494.672"
               x="182.49576"
               id="text13345"
               style="font-variant:normal;font-weight:normal;font-size:10.73069286px;font-family:CMR12;-inkscape-font-specification:CMR12;writing-mode:lr-tb;fill:#000000;fill-opacity:1;fill-rule:nonzero;stroke:none"
               transform="scale(1.0239224,-0.97663647)">
              <tspan
                 id="tspan13347"
                 sodipodi:role="line"
                 y="-494.672"
                 x="182.49576 187.74951 193.00327">662</tspan>
            </text>
            <path
               inkscape:connector-curvature="0"
               id="path13351"
               style="fill:#000000;fill-opacity:1;fill-rule:nonzero;stroke:#000000;stroke-width:0.35768378;stroke-linecap:butt;stroke-linejoin:miter;stroke-miterlimit:10;stroke-dasharray:none;stroke-opacity:1"
               d="m 171.53747,508.0114 c 0,0.68215 -0.5798,1.23517 -1.29498,1.23517 -0.71519,0 -1.29498,-0.55302 -1.29498,-1.23517 0,-0.68217 0.57979,-1.23518 1.29498,-1.23518 0.71518,0 1.29498,0.55301 1.29498,1.23518 z" />
            <text
               y="-524.75958"
               x="166.43805"
               id="text13355"
               style="font-variant:normal;font-weight:normal;font-size:10.73069286px;font-family:CMR12;-inkscape-font-specification:CMR12;writing-mode:lr-tb;fill:#000000;fill-opacity:1;fill-rule:nonzero;stroke:none"
               transform="scale(1.0239224,-0.97663647)">
              <tspan
                 id="tspan13357"
                 sodipodi:role="line"
                 y="-524.75958"
                 x="166.43805 171.6918 176.94556">666</tspan>
            </text>
            <path
               inkscape:connector-curvature="0"
               id="path13361"
               style="fill:#000000;fill-opacity:1;fill-rule:nonzero;stroke:#000000;stroke-width:0.35768378;stroke-linecap:butt;stroke-linejoin:miter;stroke-miterlimit:10;stroke-dasharray:none;stroke-opacity:1"
               d="m 197.58951,508.0114 c 0,0.68215 -0.57978,1.23517 -1.29496,1.23517 -0.71519,0 -1.29497,-0.55302 -1.29497,-1.23517 0,-0.68217 0.57978,-1.23518 1.29497,-1.23518 0.71518,0 1.29496,0.55301 1.29496,1.23518 z" />
            <text
               y="-524.75958"
               x="191.88167"
               id="text13365"
               style="font-variant:normal;font-weight:normal;font-size:10.73069286px;font-family:CMR12;-inkscape-font-specification:CMR12;writing-mode:lr-tb;fill:#000000;fill-opacity:1;fill-rule:nonzero;stroke:none"
               transform="scale(1.0239224,-0.97663647)">
              <tspan
                 id="tspan13367"
                 sodipodi:role="line"
                 y="-524.75958"
                 x="191.88167 197.13544 202.38921">661</tspan>
            </text>
            <path
               inkscape:connector-curvature="0"
               id="path13371"
               style="fill:#000000;fill-opacity:1;fill-rule:nonzero;stroke:#000000;stroke-width:0.35768378;stroke-linecap:butt;stroke-linejoin:miter;stroke-miterlimit:10;stroke-dasharray:none;stroke-opacity:1"
               d="m 145.48539,508.0114 c 0,0.68215 -0.57978,1.23517 -1.29498,1.23517 -0.71518,0 -1.29496,-0.55302 -1.29496,-1.23517 0,-0.68217 0.57978,-1.23518 1.29496,-1.23518 0.7152,0 1.29498,0.55301 1.29498,1.23518 z" />
            <text
               y="-524.75958"
               x="140.99452"
               id="text13375"
               style="font-variant:normal;font-weight:normal;font-size:10.73069286px;font-family:CMR12;-inkscape-font-specification:CMR12;writing-mode:lr-tb;fill:#000000;fill-opacity:1;fill-rule:nonzero;stroke:none"
               transform="scale(1.0239224,-0.97663647)">
              <tspan
                 id="tspan13377"
                 sodipodi:role="line"
                 y="-524.75958"
                 x="140.99452 146.24826 151.50201">667</tspan>
            </text>
            <path
               inkscape:connector-curvature="0"
               id="path13381"
               style="fill:#000000;fill-opacity:1;fill-rule:nonzero;stroke:#000000;stroke-width:0.35768378;stroke-linecap:butt;stroke-linejoin:miter;stroke-miterlimit:10;stroke-dasharray:none;stroke-opacity:1"
               d="m 119.43333,508.0114 c 0,0.68215 -0.57979,1.23517 -1.29498,1.23517 -0.7152,0 -1.29496,-0.55302 -1.29496,-1.23517 0,-0.68217 0.57976,-1.23518 1.29496,-1.23518 0.71519,0 1.29498,0.55301 1.29498,1.23518 z" />
            <text
               y="-524.75958"
               x="115.55095"
               id="text13385"
               style="font-variant:normal;font-weight:normal;font-size:10.73069286px;font-family:CMR12;-inkscape-font-specification:CMR12;writing-mode:lr-tb;fill:#000000;fill-opacity:1;fill-rule:nonzero;stroke:none"
               transform="scale(1.0239224,-0.97663647)">
              <tspan
                 id="tspan13387"
                 sodipodi:role="line"
                 y="-524.75958"
                 x="115.55095 120.80468 126.05843">672</tspan>
            </text>
            <path
               inkscape:connector-curvature="0"
               id="path13391"
               style="fill:#000000;fill-opacity:1;fill-rule:nonzero;stroke:#000000;stroke-width:0.35768378;stroke-linecap:butt;stroke-linejoin:miter;stroke-miterlimit:10;stroke-dasharray:none;stroke-opacity:1"
               d="m 158.51144,486.49151 c 0,0.68217 -0.57977,1.23517 -1.29497,1.23517 -0.7152,0 -1.29498,-0.553 -1.29498,-1.23517 0,-0.68216 0.57978,-1.23518 1.29498,-1.23518 0.7152,0 1.29497,0.55302 1.29497,1.23518 z" />
            <text
               y="-494.672"
               x="157.05214"
               id="text13395"
               style="font-variant:normal;font-weight:normal;font-size:10.73069286px;font-family:CMR12;-inkscape-font-specification:CMR12;writing-mode:lr-tb;fill:#000000;fill-opacity:1;fill-rule:nonzero;stroke:none"
               transform="scale(1.0239224,-0.97663647)">
              <tspan
                 id="tspan13397"
                 sodipodi:role="line"
                 y="-494.672"
                 x="157.05214 162.30588 167.55963">665</tspan>
            </text>
            <path
               inkscape:connector-curvature="0"
               id="path13401"
               style="fill:#000000;fill-opacity:1;fill-rule:nonzero;stroke:#000000;stroke-width:0.35768378;stroke-linecap:butt;stroke-linejoin:miter;stroke-miterlimit:10;stroke-dasharray:none;stroke-opacity:1"
               d="m 132.45938,486.49151 c 0,0.68217 -0.57979,1.23517 -1.29498,1.23517 -0.7152,0 -1.29497,-0.553 -1.29497,-1.23517 0,-0.68216 0.57977,-1.23518 1.29497,-1.23518 0.71519,0 1.29498,0.55302 1.29498,1.23518 z" />
            <text
               y="-494.672"
               x="131.60857"
               id="text13405"
               style="font-variant:normal;font-weight:normal;font-size:10.73069286px;font-family:CMR12;-inkscape-font-specification:CMR12;writing-mode:lr-tb;fill:#000000;fill-opacity:1;fill-rule:nonzero;stroke:none"
               transform="scale(1.0239224,-0.97663647)">
              <tspan
                 id="tspan13407"
                 sodipodi:role="line"
                 y="-494.672"
                 x="131.60857 136.8623 142.11606">668</tspan>
            </text>
            <path
               inkscape:connector-curvature="0"
               id="path13411"
               style="fill:#000000;fill-opacity:1;fill-rule:nonzero;stroke:#000000;stroke-width:0.35768378;stroke-linecap:butt;stroke-linejoin:miter;stroke-miterlimit:10;stroke-dasharray:none;stroke-opacity:1"
               d="m 106.40731,486.49151 c 0,0.68217 -0.57978,1.23517 -1.29498,1.23517 -0.71519,0 -1.29501,-0.553 -1.29501,-1.23517 0,-0.68216 0.57982,-1.23518 1.29501,-1.23518 0.7152,0 1.29498,0.55302 1.29498,1.23518 z" />
            <text
               y="-494.672"
               x="106.16499"
               id="text13415"
               style="font-variant:normal;font-weight:normal;font-size:10.73069286px;font-family:CMR12;-inkscape-font-specification:CMR12;writing-mode:lr-tb;fill:#000000;fill-opacity:1;fill-rule:nonzero;stroke:none"
               transform="scale(1.0239224,-0.97663647)">
              <tspan
                 id="tspan13417"
                 sodipodi:role="line"
                 y="-494.672"
                 x="106.16499 111.41873 116.67249">671</tspan>
            </text>
            <path
               inkscape:connector-curvature="0"
               id="path13421"
               style="fill:#0000ff;fill-opacity:1;fill-rule:nonzero;stroke:#0000ff;stroke-width:0.35768378;stroke-linecap:butt;stroke-linejoin:miter;stroke-miterlimit:10;stroke-dasharray:none;stroke-opacity:1"
               d="m 171.53747,464.97165 c 0,0.68215 -0.5798,1.23516 -1.29498,1.23516 -0.71519,0 -1.29498,-0.55301 -1.29498,-1.23516 0,-0.68216 0.57979,-1.23516 1.29498,-1.23516 0.71518,0 1.29498,0.553 1.29498,1.23516 z" />
            <text
               y="-464.58432"
               x="166.43805"
               id="text13425"
               style="font-variant:normal;font-weight:normal;font-size:10.73069286px;font-family:CMR12;-inkscape-font-specification:CMR12;writing-mode:lr-tb;fill:#000000;fill-opacity:1;fill-rule:nonzero;stroke:none"
               transform="scale(1.0239224,-0.97663647)">
              <tspan
                 id="tspan13427"
                 sodipodi:role="line"
                 y="-464.58432"
                 x="166.43805 171.6918 176.94556">664</tspan>
            </text>
            <path
               inkscape:connector-curvature="0"
               id="path13431"
               style="fill:#000000;fill-opacity:1;fill-rule:nonzero;stroke:#000000;stroke-width:0.35768378;stroke-linecap:butt;stroke-linejoin:miter;stroke-miterlimit:10;stroke-dasharray:none;stroke-opacity:1"
               d="m 145.48539,464.97165 c 0,0.68215 -0.57978,1.23516 -1.29498,1.23516 -0.71518,0 -1.29496,-0.55301 -1.29496,-1.23516 0,-0.68216 0.57978,-1.23516 1.29496,-1.23516 0.7152,0 1.29498,0.553 1.29498,1.23516 z" />
            <text
               y="-464.58432"
               x="140.99452"
               id="text13435"
               style="font-variant:normal;font-weight:normal;font-size:10.73069286px;font-family:CMR12;-inkscape-font-specification:CMR12;writing-mode:lr-tb;fill:#000000;fill-opacity:1;fill-rule:nonzero;stroke:none"
               transform="scale(1.0239224,-0.97663647)">
              <tspan
                 id="tspan13437"
                 sodipodi:role="line"
                 y="-464.58432"
                 x="140.99452 146.24826 151.50201">669</tspan>
            </text>
            <path
               inkscape:connector-curvature="0"
               id="path13441"
               style="fill:#000000;fill-opacity:1;fill-rule:nonzero;stroke:#000000;stroke-width:0.35768378;stroke-linecap:butt;stroke-linejoin:miter;stroke-miterlimit:10;stroke-dasharray:none;stroke-opacity:1"
               d="m 119.43333,464.97165 c 0,0.68215 -0.57979,1.23516 -1.29498,1.23516 -0.7152,0 -1.29496,-0.55301 -1.29496,-1.23516 0,-0.68216 0.57976,-1.23516 1.29496,-1.23516 0.71519,0 1.29498,0.553 1.29498,1.23516 z" />
            <text
               y="-464.58432"
               x="115.55095"
               id="text13445"
               style="font-variant:normal;font-weight:normal;font-size:10.73069286px;font-family:CMR12;-inkscape-font-specification:CMR12;writing-mode:lr-tb;fill:#000000;fill-opacity:1;fill-rule:nonzero;stroke:none"
               transform="scale(1.0239224,-0.97663647)">
              <tspan
                 id="tspan13447"
                 sodipodi:role="line"
                 y="-464.58432"
                 x="115.55095 120.80468 126.05843">670</tspan>
            </text>
            <path
               inkscape:connector-curvature="0"
               id="path13451"
               style="fill:none;stroke:#000000;stroke-width:1.19676232;stroke-linecap:butt;stroke-linejoin:miter;stroke-miterlimit:10;stroke-dasharray:none;stroke-opacity:1"
               d="m 195.55312,506.78657 -11.54317,-19.07025 m 1e-5,-2.44963 11.54318,-19.07023 m -0.73669,-1.22481 -23.09586,0 m -2.21953,1.22481 -11.54317,19.07023 m 0,2.44963 11.54319,19.07025 m -0.73669,1.22483 -23.09586,0 m -2.21954,-1.22483 -11.54318,-19.07025 m 2e-5,-2.44963 11.54317,-19.07023 m -0.73669,-1.22481 -23.09586,0 m -2.21954,1.22481 -11.54316,19.07023 m 2e-5,2.44963 11.54316,19.07025" />
            <path
               inkscape:connector-curvature="0"
               id="path13455"
               style="fill:none;stroke:#ff0000;stroke-width:1.19676232;stroke-linecap:butt;stroke-linejoin:miter;stroke-miterlimit:10;stroke-dasharray:1.19676242, 5.98396214;stroke-dashoffset:0;stroke-opacity:1"
               d="m 194.81645,508.0114 -23.09586,0" />
            <path
               inkscape:connector-curvature="0"
               id="path13459"
               style="fill:none;stroke:#ff0000;stroke-width:0.35768378;stroke-linecap:butt;stroke-linejoin:miter;stroke-miterlimit:10;stroke-dasharray:0.35768379, 1.78846378;stroke-dashoffset:0;stroke-opacity:1"
               d="m 181.79043,486.49151 -23.09587,0" />
            <path
               inkscape:connector-curvature="0"
               id="path13463"
               style="fill:none;stroke:#ff0000;stroke-width:1.19676232;stroke-linecap:butt;stroke-linejoin:miter;stroke-miterlimit:10;stroke-dasharray:1.19676242, 5.98396214;stroke-dashoffset:0;stroke-opacity:1"
               d="m 168.76439,464.97165 -23.09586,0" />
            <path
               inkscape:connector-curvature="0"
               id="path13467"
               style="fill:none;stroke:#ff0000;stroke-width:0.35768378;stroke-linecap:butt;stroke-linejoin:miter;stroke-miterlimit:10;stroke-dasharray:0.35768379, 1.78846378;stroke-dashoffset:0;stroke-opacity:1"
               d="m 155.73835,486.49151 -23.09585,0" />
            <path
               inkscape:connector-curvature="0"
               id="path15387"
               d="m 213.69012,507.24126 -13.82166,0"
               style="fill:none;fill-rule:evenodd;stroke:#000000;stroke-width:0.63550693;stroke-linecap:butt;stroke-linejoin:miter;stroke-miterlimit:4;stroke-dasharray:none;stroke-opacity:1;marker-end:url(#Arrow1Mend)" />
            <path
               style="fill:none;fill-rule:evenodd;stroke:#000000;stroke-width:0.63550693;stroke-linecap:butt;stroke-linejoin:miter;stroke-miterlimit:4;stroke-dasharray:none;stroke-opacity:1;marker-end:url(#marker17061)"
               d="m 115.04608,507.40822 -13.82166,0"
               id="use17057"
               inkscape:connector-curvature="0" />
            <path
               inkscape:connector-curvature="0"
               id="path17960"
               d="m 219.64199,462.0906 0,-11.68801 -110.28526,0 0,11.68801"
               style="fill:none;fill-rule:evenodd;stroke:#000000;stroke-width:1.19675926;stroke-linecap:butt;stroke-linejoin:miter;stroke-opacity:1;stroke-miterlimit:4;stroke-dasharray:none" />
            <path
               inkscape:connector-curvature="0"
               id="path17964"
               d="m 164.49936,460.23874 0,-17.53202"
               style="fill:none;fill-rule:evenodd;stroke:#0000ff;stroke-width:0.59838122;stroke-linecap:butt;stroke-linejoin:miter;stroke-miterlimit:4;stroke-dasharray:none;stroke-opacity:1;marker-end:url(#marker17972)" />
            <text
               transform="scale(1.0239224,-0.9766365)"
               sodipodi:linespacing="125%"
               id="text18110"
               y="-441.58618"
               x="130.70284"
               style="font-style:normal;font-weight:normal;font-size:16.45548248px;line-height:125%;font-family:sans-serif;letter-spacing:0px;word-spacing:0px;fill:#0000ff;fill-opacity:1;stroke:none;stroke-width:1px;stroke-linecap:butt;stroke-linejoin:miter;stroke-opacity:1"
               xml:space="preserve"><tspan
                 y="-441.58618"
                 x="130.70284"
                 id="tspan18112"
                 sodipodi:role="line">Obtuse</tspan></text>
            <path
               inkscape:connector-curvature="0"
               id="path13471"
               style="fill:#ff0000;fill-opacity:1;fill-rule:nonzero;stroke:#ff0000;stroke-width:0.35768449;stroke-linecap:butt;stroke-linejoin:miter;stroke-miterlimit:10;stroke-dasharray:none;stroke-opacity:1"
               d="m 388.44309,464.42251 c 0,0.68216 -0.57978,1.23516 -1.29497,1.23516 -0.71518,0 -1.29496,-0.553 -1.29496,-1.23516 0,-0.68216 0.57978,-1.23516 1.29496,-1.23516 0.71519,0 1.29497,0.553 1.29497,1.23516 z" />
            <text
               y="-464.022"
               x="378.27612"
               id="text13475"
               style="font-variant:normal;font-weight:normal;font-size:10.7307148px;font-family:CMR12;-inkscape-font-specification:CMR12;writing-mode:lr-tb;fill:#000000;fill-opacity:1;fill-rule:nonzero;stroke:none"
               transform="scale(1.0239224,-0.9766365)">
              <tspan
                 id="tspan13477"
                 sodipodi:role="line"
                 y="-464.022"
                 x="378.27612 383.52988 388.78363">667</tspan>
            </text>
            <path
               inkscape:connector-curvature="0"
               id="path13481"
               style="fill:#000000;fill-opacity:1;fill-rule:nonzero;stroke:#000000;stroke-width:1.19676244;stroke-linecap:butt;stroke-linejoin:miter;stroke-miterlimit:10;stroke-dasharray:1.19676246, 5.98396235;stroke-dashoffset:0;stroke-opacity:1"
               d="m 375.41706,485.94242 c 0,0.68217 -0.57979,1.23517 -1.29499,1.23517 -0.71518,0 -1.29496,-0.553 -1.29496,-1.23517 0,-0.68216 0.57978,-1.23518 1.29496,-1.23518 0.7152,0 1.29499,0.55302 1.29499,1.23518 z" />
            <text
               y="-494.1098"
               x="368.89005"
               id="text13485"
               style="font-variant:normal;font-weight:normal;font-size:10.7307148px;font-family:CMR12;-inkscape-font-specification:CMR12;writing-mode:lr-tb;fill:#000000;fill-opacity:1;fill-rule:nonzero;stroke:none"
               transform="scale(1.0239224,-0.9766365)">
              <tspan
                 id="tspan13487"
                 sodipodi:role="line"
                 y="-494.1098"
                 x="368.89005 374.14383 379.39761">666</tspan>
            </text>
            <path
               inkscape:connector-curvature="0"
               id="path13491"
               style="fill:#000000;fill-opacity:1;fill-rule:nonzero;stroke:#000000;stroke-width:1.19676244;stroke-linecap:butt;stroke-linejoin:miter;stroke-miterlimit:10;stroke-dasharray:1.19676246, 5.98396235;stroke-dashoffset:0;stroke-opacity:1"
               d="m 362.391,507.46235 c 0,0.68216 -0.5798,1.23518 -1.29498,1.23518 -0.71519,0 -1.29498,-0.55302 -1.29498,-1.23518 0,-0.68217 0.57979,-1.23517 1.29498,-1.23517 0.71518,0 1.29498,0.553 1.29498,1.23517 z" />
            <text
               y="-524.19745"
               x="352.83252"
               id="text13495"
               style="font-variant:normal;font-weight:normal;font-size:10.7307148px;font-family:CMR12;-inkscape-font-specification:CMR12;writing-mode:lr-tb;fill:#000000;fill-opacity:1;fill-rule:nonzero;stroke:none"
               transform="scale(1.0239224,-0.9766365)">
              <tspan
                 id="tspan13497"
                 sodipodi:role="line"
                 y="-524.19745"
                 x="352.83252 358.08624 363.34003">662</tspan>
            </text>
            <path
               inkscape:connector-curvature="0"
               id="path13501"
               style="fill:#000000;fill-opacity:1;fill-rule:nonzero;stroke:#000000;stroke-width:1.19676244;stroke-linecap:butt;stroke-linejoin:miter;stroke-miterlimit:10;stroke-dasharray:1.19676246, 5.98396235;stroke-dashoffset:0;stroke-opacity:1"
               d="m 388.44309,507.46235 c 0,0.68216 -0.57978,1.23518 -1.29497,1.23518 -0.71518,0 -1.29496,-0.55302 -1.29496,-1.23518 0,-0.68217 0.57978,-1.23517 1.29496,-1.23517 0.71519,0 1.29497,0.553 1.29497,1.23517 z" />
            <text
               y="-524.19745"
               x="378.27612"
               id="text13505"
               style="font-variant:normal;font-weight:normal;font-size:10.7307148px;font-family:CMR12;-inkscape-font-specification:CMR12;writing-mode:lr-tb;fill:#000000;fill-opacity:1;fill-rule:nonzero;stroke:none"
               transform="scale(1.0239224,-0.9766365)">
              <tspan
                 id="tspan13507"
                 sodipodi:role="line"
                 y="-524.19745"
                 x="378.27612 383.52988 388.78363">661</tspan>
            </text>
            <path
               inkscape:connector-curvature="0"
               id="path13511"
               style="fill:#000000;fill-opacity:1;fill-rule:nonzero;stroke:#000000;stroke-width:1.19676244;stroke-linecap:butt;stroke-linejoin:miter;stroke-miterlimit:10;stroke-dasharray:1.19676246, 5.98396235;stroke-dashoffset:0;stroke-opacity:1"
               d="m 336.33886,507.46235 c 0,0.68216 -0.57976,1.23518 -1.29498,1.23518 -0.71518,0 -1.29496,-0.55302 -1.29496,-1.23518 0,-0.68217 0.57978,-1.23517 1.29496,-1.23517 0.71522,0 1.29498,0.553 1.29498,1.23517 z" />
            <text
               y="-524.19745"
               x="327.38889"
               id="text13515"
               style="font-variant:normal;font-weight:normal;font-size:10.7307148px;font-family:CMR12;-inkscape-font-specification:CMR12;writing-mode:lr-tb;fill:#000000;fill-opacity:1;fill-rule:nonzero;stroke:none"
               transform="scale(1.0239224,-0.9766365)">
              <tspan
                 id="tspan13517"
                 sodipodi:role="line"
                 y="-524.19745"
                 x="327.38889 332.64264 337.89642">663</tspan>
            </text>
            <path
               inkscape:connector-curvature="0"
               id="path13521"
               style="fill:#000000;fill-opacity:1;fill-rule:nonzero;stroke:#000000;stroke-width:0.35768449;stroke-linecap:butt;stroke-linejoin:miter;stroke-miterlimit:10;stroke-dasharray:none;stroke-opacity:1"
               d="m 310.28675,507.46235 c 0,0.68216 -0.57979,1.23518 -1.29498,1.23518 -0.7152,0 -1.29498,-0.55302 -1.29498,-1.23518 0,-0.68217 0.57978,-1.23517 1.29498,-1.23517 0.71519,0 1.29498,0.553 1.29498,1.23517 z" />
            <text
               y="-524.19745"
               x="301.94528"
               id="text13525"
               style="font-variant:normal;font-weight:normal;font-size:10.7307148px;font-family:CMR12;-inkscape-font-specification:CMR12;writing-mode:lr-tb;fill:#000000;fill-opacity:1;fill-rule:nonzero;stroke:none"
               transform="scale(1.0239224,-0.9766365)">
              <tspan
                 id="tspan13527"
                 sodipodi:role="line"
                 y="-524.19745"
                 x="301.94528 307.19901 312.45279">672</tspan>
            </text>
            <path
               inkscape:connector-curvature="0"
               id="path13531"
               style="fill:#000000;fill-opacity:1;fill-rule:nonzero;stroke:#000000;stroke-width:1.19676244;stroke-linecap:butt;stroke-linejoin:miter;stroke-miterlimit:10;stroke-dasharray:1.19676246, 5.98396235;stroke-dashoffset:0;stroke-opacity:1"
               d="m 349.36494,485.94242 c 0,0.68217 -0.57978,1.23517 -1.29498,1.23517 -0.7152,0 -1.29498,-0.553 -1.29498,-1.23517 0,-0.68216 0.57978,-1.23518 1.29498,-1.23518 0.7152,0 1.29498,0.55302 1.29498,1.23518 z" />
            <text
               y="-498.89688"
               x="345.84"
               id="text13535"
               style="font-variant:normal;font-weight:normal;font-size:10.7307148px;font-family:CMR12;-inkscape-font-specification:CMR12;writing-mode:lr-tb;fill:#000000;fill-opacity:1;fill-rule:nonzero;stroke:none;stroke-width:0.80000001;stroke-miterlimit:10;stroke-dasharray:0.80000004, 4.00010051;stroke-dashoffset:0"
               transform="scale(1.0239224,-0.9766365)">
              <tspan
                 id="tspan13537"
                 sodipodi:role="line"
                 y="-498.89688"
                 x="345.84 351.09375 356.3475">665</tspan>
            </text>
            <path
               inkscape:connector-curvature="0"
               id="path13541"
               style="fill:#000000;fill-opacity:1;fill-rule:nonzero;stroke:#000000;stroke-width:1.19676244;stroke-linecap:butt;stroke-linejoin:miter;stroke-miterlimit:10;stroke-dasharray:1.19676246, 5.98396235;stroke-dashoffset:0;stroke-opacity:1"
               d="m 323.31282,485.94242 c 0,0.68217 -0.57978,1.23517 -1.29498,1.23517 -0.7152,0 -1.29498,-0.553 -1.29498,-1.23517 0,-0.68216 0.57978,-1.23518 1.29498,-1.23518 0.7152,0 1.29498,0.55302 1.29498,1.23518 z" />
            <text
               y="-498.89688"
               x="320.39639"
               id="text13545"
               style="font-variant:normal;font-weight:normal;font-size:10.7307148px;font-family:CMR12;-inkscape-font-specification:CMR12;writing-mode:lr-tb;fill:#000000;fill-opacity:1;fill-rule:nonzero;stroke:none;stroke-width:0.80000001;stroke-miterlimit:10;stroke-dasharray:0.80000004, 4.00010051;stroke-dashoffset:0"
               transform="scale(1.0239224,-0.9766365)">
              <tspan
                 id="tspan13547"
                 sodipodi:role="line"
                 y="-498.89688"
                 x="320.39639 325.65012 330.9039">664</tspan>
            </text>
            <path
               inkscape:connector-curvature="0"
               id="path13551"
               style="fill:#000000;fill-opacity:1;fill-rule:nonzero;stroke:#000000;stroke-width:0.35768449;stroke-linecap:butt;stroke-linejoin:miter;stroke-miterlimit:10;stroke-dasharray:none;stroke-opacity:1"
               d="m 297.2607,485.94242 c 0,0.68217 -0.57978,1.23517 -1.29498,1.23517 -0.71518,0 -1.29501,-0.553 -1.29501,-1.23517 0,-0.68216 0.57983,-1.23518 1.29501,-1.23518 0.7152,0 1.29498,0.55302 1.29498,1.23518 z" />
            <text
               y="-494.1098"
               x="292.55923"
               id="text13555"
               style="font-variant:normal;font-weight:normal;font-size:10.7307148px;font-family:CMR12;-inkscape-font-specification:CMR12;writing-mode:lr-tb;fill:#000000;fill-opacity:1;fill-rule:nonzero;stroke:none"
               transform="scale(1.0239224,-0.9766365)">
              <tspan
                 id="tspan13557"
                 sodipodi:role="line"
                 y="-494.1098"
                 x="292.55923 297.81296 303.06674">671</tspan>
            </text>
            <path
               inkscape:connector-curvature="0"
               id="path13561"
               style="fill:#ff0000;fill-opacity:1;fill-rule:nonzero;stroke:#ff0000;stroke-width:1.19676244;stroke-linecap:butt;stroke-linejoin:miter;stroke-miterlimit:10;stroke-dasharray:1.19676246, 5.98396235;stroke-dashoffset:0;stroke-opacity:1"
               d="m 362.391,464.42251 c 0,0.68216 -0.5798,1.23516 -1.29498,1.23516 -0.71519,0 -1.29498,-0.553 -1.29498,-1.23516 0,-0.68216 0.57979,-1.23516 1.29498,-1.23516 0.71518,0 1.29498,0.553 1.29498,1.23516 z" />
            <text
               y="-464.022"
               x="352.83252"
               id="text13565"
               style="font-variant:normal;font-weight:normal;font-size:10.7307148px;font-family:CMR12;-inkscape-font-specification:CMR12;writing-mode:lr-tb;fill:#000000;fill-opacity:1;fill-rule:nonzero;stroke:none"
               transform="scale(1.0239224,-0.9766365)">
              <tspan
                 id="tspan13567"
                 sodipodi:role="line"
                 y="-464.022"
                 x="352.83252 358.08624 363.34003">668</tspan>
            </text>
            <path
               inkscape:connector-curvature="0"
               id="path13571"
               style="fill:#000000;fill-opacity:1;fill-rule:nonzero;stroke:#000000;stroke-width:1.19676244;stroke-linecap:butt;stroke-linejoin:miter;stroke-miterlimit:10;stroke-dasharray:1.19676246, 5.98396235;stroke-dashoffset:0;stroke-opacity:1"
               d="m 336.33886,464.42251 c 0,0.68216 -0.57976,1.23516 -1.29498,1.23516 -0.71518,0 -1.29496,-0.553 -1.29496,-1.23516 0,-0.68216 0.57978,-1.23516 1.29496,-1.23516 0.71522,0 1.29498,0.553 1.29498,1.23516 z" />
            <text
               y="-464.022"
               x="327.38889"
               id="text13575"
               style="font-variant:normal;font-weight:normal;font-size:10.7307148px;font-family:CMR12;-inkscape-font-specification:CMR12;writing-mode:lr-tb;fill:#000000;fill-opacity:1;fill-rule:nonzero;stroke:none;stroke-width:0.80000001;stroke-miterlimit:10;stroke-dasharray:0.80000004, 4.00010051;stroke-dashoffset:0"
               transform="scale(1.0239224,-0.9766365)">
              <tspan
                 id="tspan13577"
                 sodipodi:role="line"
                 y="-464.022"
                 x="327.38889 332.64264 337.89642">669</tspan>
            </text>
            <path
               inkscape:connector-curvature="0"
               id="path13581"
               style="fill:#000000;fill-opacity:1;fill-rule:nonzero;stroke:#000000;stroke-width:0.35768449;stroke-linecap:butt;stroke-linejoin:miter;stroke-miterlimit:10;stroke-dasharray:none;stroke-opacity:1"
               d="m 310.28675,464.42251 c 0,0.68216 -0.57979,1.23516 -1.29498,1.23516 -0.7152,0 -1.29498,-0.553 -1.29498,-1.23516 0,-0.68216 0.57978,-1.23516 1.29498,-1.23516 0.71519,0 1.29498,0.553 1.29498,1.23516 z" />
            <text
               y="-464.022"
               x="301.94528"
               id="text13585"
               style="font-variant:normal;font-weight:normal;font-size:10.7307148px;font-family:CMR12;-inkscape-font-specification:CMR12;writing-mode:lr-tb;fill:#000000;fill-opacity:1;fill-rule:nonzero;stroke:none"
               transform="scale(1.0239224,-0.9766365)">
              <tspan
                 id="tspan13587"
                 sodipodi:role="line"
                 y="-464.022"
                 x="301.94528 307.19901 312.45279">670</tspan>
            </text>
            <path
               inkscape:connector-curvature="0"
               id="path13591"
               style="fill:none;stroke:#000000;stroke-width:1.19676244;stroke-linecap:butt;stroke-linejoin:miter;stroke-miterlimit:10;stroke-dasharray:none;stroke-opacity:1"
               d="m 385.67002,507.46235 -23.09591,0 m -2.95621,0 -23.09589,0 m -2.21955,-1.22483 -11.54321,-19.07029 m 0.73669,-1.22481 23.09591,0 m 2.95621,0 23.09593,0 m 2.21952,-1.22482 11.5432,-19.07027 m -0.73669,-1.22482 -23.09591,0 m -2.95621,0 -23.09589,0 m -2.95623,0 -23.09591,0 m -2.21954,1.22482 -11.54319,19.07027 m 2e-5,2.44963 11.54319,19.07029" />
            <path
               inkscape:connector-curvature="0"
               id="path13595"
               style="fill:none;stroke:#ff0000;stroke-width:1.19676244;stroke-linecap:butt;stroke-linejoin:miter;stroke-miterlimit:10;stroke-dasharray:1.19676246, 5.98396235;stroke-dashoffset:0;stroke-opacity:1"
               d="M 386.4067,506.23752 374.86349,487.16723" />
            <path
               inkscape:connector-curvature="0"
               id="path13599"
               style="fill:none;stroke:#ff0000;stroke-width:1.19676244;stroke-linecap:butt;stroke-linejoin:miter;stroke-miterlimit:10;stroke-dasharray:1.19676246, 5.98396235;stroke-dashoffset:0;stroke-opacity:1"
               d="m 360.35459,506.23752 -11.5432,-19.07029" />
            <path
               inkscape:connector-curvature="0"
               id="path13603"
               style="fill:none;stroke:#ff0000;stroke-width:1.19676244;stroke-linecap:butt;stroke-linejoin:miter;stroke-miterlimit:10;stroke-dasharray:1.19676246, 5.98396235;stroke-dashoffset:0;stroke-opacity:1"
               d="m 322.75928,484.7176 11.54319,-19.07027" />
            <path
               inkscape:connector-curvature="0"
               id="path13607"
               style="fill:none;stroke:#ff0000;stroke-width:1.19676244;stroke-linecap:butt;stroke-linejoin:miter;stroke-miterlimit:10;stroke-dasharray:1.19676246, 5.98396235;stroke-dashoffset:0;stroke-opacity:1"
               d="m 348.81139,484.7176 11.5432,-19.07027" />
            <path
               style="fill:none;fill-rule:evenodd;stroke:#000000;stroke-width:0.63550693;stroke-linecap:butt;stroke-linejoin:miter;stroke-miterlimit:4;stroke-dasharray:none;stroke-opacity:1;marker-end:url(#marker15497)"
               d="m 405.26445,507.69396 -13.82165,0"
               id="use15493"
               inkscape:connector-curvature="0" />
            <path
               inkscape:connector-curvature="0"
               id="use16329"
               d="m 306.79546,507.69395 -13.82166,0"
               style="fill:none;fill-rule:evenodd;stroke:#000000;stroke-width:0.63550693;stroke-linecap:butt;stroke-linejoin:miter;stroke-miterlimit:4;stroke-dasharray:none;stroke-opacity:1;marker-end:url(#marker16333)" />
            <path
               inkscape:connector-curvature="0"
               id="path17962"
               d="m 301.10613,461.5416 0,-11.68802 110.28526,0 0,11.68802"
               style="fill:none;fill-rule:evenodd;stroke:#000000;stroke-width:1.19676244px;stroke-linecap:butt;stroke-linejoin:miter;stroke-opacity:1" />
            <path
               inkscape:connector-curvature="0"
               id="path18090"
               d="m 356.24876,459.68974 0,-17.53203"
               style="fill:#ff0000;fill-opacity:1;fill-rule:evenodd;stroke:#ff0000;stroke-width:0.59838122;stroke-linecap:butt;stroke-linejoin:miter;stroke-miterlimit:4;stroke-dasharray:none;stroke-opacity:1;marker-end:url(#marker18032)" />
            <text
               inkscape:export-ydpi="90"
               inkscape:export-xdpi="90"
               xml:space="preserve"
               style="font-style:normal;font-weight:normal;font-size:16.45548248px;line-height:125%;font-family:sans-serif;letter-spacing:0px;word-spacing:0px;fill:#ff0000;fill-opacity:1;stroke:none;stroke-width:1px;stroke-linecap:butt;stroke-linejoin:miter;stroke-opacity:1"
               x="326.16147"
               y="-442.92014"
               id="use18114"
               sodipodi:linespacing="125%"
               transform="scale(1.0239224,-0.97663651)"><tspan
                 sodipodi:role="line"
                 id="tspan18118"
                 x="326.16147"
                 y="-442.92014">Acute</tspan></text>
          </g>
        </g>
      </g>
    </g>
  </g>
</svg>
