<?xml version="1.0" encoding="UTF-8" standalone="no"?>
<!-- Created with Inkscape (http://www.inkscape.org/) -->

<svg
   xmlns:dc="http://purl.org/dc/elements/1.1/"
   xmlns:cc="http://creativecommons.org/ns#"
   xmlns:rdf="http://www.w3.org/1999/02/22-rdf-syntax-ns#"
   xmlns:svg="http://www.w3.org/2000/svg"
   xmlns="http://www.w3.org/2000/svg"
   xmlns:sodipodi="http://sodipodi.sourceforge.net/DTD/sodipodi-0.dtd"
   xmlns:inkscape="http://www.inkscape.org/namespaces/inkscape"
   width="210mm"
   height="297mm"
   viewBox="0 0 744.09448819 1052.3622047"
   id="svg2"
   version="1.1"
   inkscape:version="0.91 r13725"
   sodipodi:docname="Pi.svg">
  <defs
     id="defs4">
    <clipPath
       id="clipPath4171"
       clipPathUnits="userSpaceOnUse">
      <path
         inkscape:connector-curvature="0"
         id="path4173"
         d="M 0,0 612,0 612,792 0,792 0,0 Z" />
    </clipPath>
  </defs>
  <sodipodi:namedview
     id="base"
     pagecolor="#ffffff"
     bordercolor="#666666"
     borderopacity="1.0"
     inkscape:pageopacity="0.0"
     inkscape:pageshadow="2"
     inkscape:zoom="1.979899"
     inkscape:cx="444.96294"
     inkscape:cy="756.10774"
     inkscape:document-units="px"
     inkscape:current-layer="layer1"
     showgrid="true"
     inkscape:window-width="2495"
     inkscape:window-height="1056"
     inkscape:window-x="65"
     inkscape:window-y="24"
     inkscape:window-maximized="1">
    <inkscape:grid
       type="xygrid"
       id="grid5297" />
  </sodipodi:namedview>
  <metadata
     id="metadata7">
    <rdf:RDF>
      <cc:Work
         rdf:about="">
        <dc:format>image/svg+xml</dc:format>
        <dc:type
           rdf:resource="http://purl.org/dc/dcmitype/StillImage" />
        <dc:title></dc:title>
      </cc:Work>
    </rdf:RDF>
  </metadata>
  <g
     inkscape:label="レイヤー 1"
     inkscape:groupmode="layer"
     id="layer1">
    <path
       inkscape:connector-curvature="0"
       id="path4189"
       style="fill:#0000ff;fill-opacity:1;fill-rule:nonzero;stroke:#0000ff;stroke-width:0.298875;stroke-linecap:butt;stroke-linejoin:miter;stroke-miterlimit:10;stroke-dasharray:none;stroke-opacity:1"
       d="m 254.88502,266.59445 c 0,-0.58364 -0.47314,-1.05677 -1.05677,-1.05677 -0.58364,0 -1.05677,0.47313 -1.05677,1.05677 0,0.58363 0.47313,1.05677 1.05677,1.05677 0.58363,0 1.05677,-0.47314 1.05677,-1.05677 z" />
    <text
       id="text4193"
       style="font-variant:normal;font-weight:normal;font-size:8.96640015px;font-family:CMR12;-inkscape-font-specification:CMR12;writing-mode:lr-tb;fill:#000000;fill-opacity:1;fill-rule:nonzero;stroke:none"
       x="253.97301"
       y="276.21246">
      <tspan
         id="tspan4195"
         sodipodi:role="line"
         y="276.21246"
         x="253.97301 258.36295 262.7529">641</tspan>
    </text>
    <path
       inkscape:connector-curvature="0"
       id="path4199"
       style="fill:#000000;fill-opacity:1;fill-rule:nonzero;stroke:#000000;stroke-width:0.298875;stroke-linecap:butt;stroke-linejoin:miter;stroke-miterlimit:10;stroke-dasharray:none;stroke-opacity:1"
       d="m 265.51507,248.18262 c 0,-0.58365 -0.47313,-1.05678 -1.05678,-1.05678 -0.58364,0 -1.05679,0.47313 -1.05679,1.05678 0,0.58364 0.47315,1.05678 1.05679,1.05678 0.58365,0 1.05678,-0.47314 1.05678,-1.05678 z" />
    <text
       id="text4203"
       style="font-variant:normal;font-weight:normal;font-size:8.96640015px;font-family:CMR12;-inkscape-font-specification:CMR12;writing-mode:lr-tb;fill:#000000;fill-opacity:1;fill-rule:nonzero;stroke:none"
       x="267.38974"
       y="251.0717">
      <tspan
         id="tspan4205"
         sodipodi:role="line"
         y="251.0717"
         x="267.38974 271.77969 276.16965">642</tspan>
    </text>
    <path
       inkscape:connector-curvature="0"
       id="path4209"
       style="fill:#000000;fill-opacity:1;fill-rule:nonzero;stroke:#000000;stroke-width:0.298875;stroke-linecap:butt;stroke-linejoin:miter;stroke-miterlimit:10;stroke-dasharray:none;stroke-opacity:1"
       d="m 276.14513,229.77077 c 0,-0.58364 -0.47315,-1.05678 -1.05678,-1.05678 -0.58364,0 -1.05678,0.47314 -1.05678,1.05678 0,0.58365 0.47314,1.05678 1.05678,1.05678 0.58363,0 1.05678,-0.47313 1.05678,-1.05678 z" />
    <text
       id="text4213"
       style="font-variant:normal;font-weight:normal;font-size:8.96640015px;font-family:CMR12;-inkscape-font-specification:CMR12;writing-mode:lr-tb;fill:#000000;fill-opacity:1;fill-rule:nonzero;stroke:none"
       x="275.23251"
       y="225.93095">
      <tspan
         id="tspan4215"
         sodipodi:role="line"
         y="225.93095"
         x="275.23251 279.62244 284.01239">644</tspan>
    </text>
    <path
       inkscape:connector-curvature="0"
       id="path4219"
       style="fill:#0000ff;fill-opacity:1;fill-rule:nonzero;stroke:#0000ff;stroke-width:0.298875;stroke-linecap:butt;stroke-linejoin:miter;stroke-miterlimit:10;stroke-dasharray:none;stroke-opacity:1"
       d="m 276.14513,266.59445 c 0,-0.58364 -0.47315,-1.05677 -1.05678,-1.05677 -0.58364,0 -1.05678,0.47313 -1.05678,1.05677 0,0.58363 0.47314,1.05677 1.05678,1.05677 0.58363,0 1.05678,-0.47314 1.05678,-1.05677 z" />
    <text
       id="text4223"
       style="font-variant:normal;font-weight:normal;font-size:8.96640015px;font-family:CMR12;-inkscape-font-specification:CMR12;writing-mode:lr-tb;fill:#000000;fill-opacity:1;fill-rule:nonzero;stroke:none"
       x="275.23251"
       y="276.21246">
      <tspan
         id="tspan4225"
         sodipodi:role="line"
         y="276.21246"
         x="275.23251 279.62244 284.01239">648</tspan>
    </text>
    <path
       inkscape:connector-curvature="0"
       id="path4229"
       style="fill:#000000;fill-opacity:1;fill-rule:nonzero;stroke:#000000;stroke-width:0.298875;stroke-linecap:butt;stroke-linejoin:miter;stroke-miterlimit:10;stroke-dasharray:none;stroke-opacity:1"
       d="m 297.40524,266.59445 c 0,-0.58364 -0.47314,-1.05677 -1.05678,-1.05677 -0.58365,0 -1.05678,0.47313 -1.05678,1.05677 0,0.58363 0.47313,1.05677 1.05678,1.05677 0.58364,0 1.05678,-0.47314 1.05678,-1.05677 z" />
    <text
       id="text4233"
       style="font-variant:normal;font-weight:normal;font-size:8.96640015px;font-family:CMR12;-inkscape-font-specification:CMR12;writing-mode:lr-tb;fill:#000000;fill-opacity:1;fill-rule:nonzero;stroke:none"
       x="296.49274"
       y="276.21246">
      <tspan
         id="tspan4235"
         sodipodi:role="line"
         y="276.21246"
         x="296.49274 300.88269 305.27264">649</tspan>
    </text>
    <path
       inkscape:connector-curvature="0"
       id="path4239"
       style="fill:#000000;fill-opacity:1;fill-rule:nonzero;stroke:#000000;stroke-width:0.298875;stroke-linecap:butt;stroke-linejoin:miter;stroke-miterlimit:10;stroke-dasharray:none;stroke-opacity:1"
       d="m 318.66534,266.59445 c 0,-0.58364 -0.47313,-1.05677 -1.05678,-1.05677 -0.58363,0 -1.05678,0.47313 -1.05678,1.05677 0,0.58363 0.47315,1.05677 1.05678,1.05677 0.58365,0 1.05678,-0.47314 1.05678,-1.05677 z" />
    <text
       id="text4243"
       style="font-variant:normal;font-weight:normal;font-size:8.96640015px;font-family:CMR12;-inkscape-font-specification:CMR12;writing-mode:lr-tb;fill:#000000;fill-opacity:1;fill-rule:nonzero;stroke:none"
       x="317.75299"
       y="276.21246">
      <tspan
         id="tspan4245"
         sodipodi:role="line"
         y="276.21246"
         x="317.75299 322.14294 326.5329">650</tspan>
    </text>
    <path
       inkscape:connector-curvature="0"
       id="path4249"
       style="fill:#000000;fill-opacity:1;fill-rule:nonzero;stroke:#000000;stroke-width:0.298875;stroke-linecap:butt;stroke-linejoin:miter;stroke-miterlimit:10;stroke-dasharray:none;stroke-opacity:1"
       d="m 286.77518,248.18262 c 0,-0.58365 -0.47314,-1.05678 -1.05678,-1.05678 -0.58365,0 -1.05678,0.47313 -1.05678,1.05678 0,0.58364 0.47313,1.05678 1.05678,1.05678 0.58364,0 1.05678,-0.47314 1.05678,-1.05678 z" />
    <text
       id="text4253"
       style="font-variant:normal;font-weight:normal;font-size:8.96640015px;font-family:CMR12;-inkscape-font-specification:CMR12;writing-mode:lr-tb;fill:#000000;fill-opacity:1;fill-rule:nonzero;stroke:none"
       x="288.64999"
       y="251.0717">
      <tspan
         id="tspan4255"
         sodipodi:role="line"
         y="251.0717"
         x="288.64999 293.03995 297.4299">647</tspan>
    </text>
    <path
       inkscape:connector-curvature="0"
       id="path4259"
       style="fill:#000000;fill-opacity:1;fill-rule:nonzero;stroke:#000000;stroke-width:0.298875;stroke-linecap:butt;stroke-linejoin:miter;stroke-miterlimit:10;stroke-dasharray:none;stroke-opacity:1"
       d="m 308.03529,248.18262 c 0,-0.58365 -0.47314,-1.05678 -1.05679,-1.05678 -0.58364,0 -1.05678,0.47313 -1.05678,1.05678 0,0.58364 0.47314,1.05678 1.05678,1.05678 0.58365,0 1.05679,-0.47314 1.05679,-1.05678 z" />
    <text
       id="text4263"
       style="font-variant:normal;font-weight:normal;font-size:8.96640015px;font-family:CMR12;-inkscape-font-specification:CMR12;writing-mode:lr-tb;fill:#000000;fill-opacity:1;fill-rule:nonzero;stroke:none"
       x="309.91025"
       y="251.0717">
      <tspan
         id="tspan4265"
         sodipodi:role="line"
         y="251.0717"
         x="309.91025 314.3002 318.69016">646</tspan>
    </text>
    <path
       inkscape:connector-curvature="0"
       id="path4269"
       style="fill:#000000;fill-opacity:1;fill-rule:nonzero;stroke:#000000;stroke-width:0.298875;stroke-linecap:butt;stroke-linejoin:miter;stroke-miterlimit:10;stroke-dasharray:none;stroke-opacity:1"
       d="m 329.29543,248.18262 c 0,-0.58365 -0.47318,-1.05678 -1.05682,-1.05678 -0.58365,0 -1.05678,0.47313 -1.05678,1.05678 0,0.58364 0.47313,1.05678 1.05678,1.05678 0.58364,0 1.05682,-0.47314 1.05682,-1.05678 z" />
    <text
       id="text4273"
       style="font-variant:normal;font-weight:normal;font-size:8.96640015px;font-family:CMR12;-inkscape-font-specification:CMR12;writing-mode:lr-tb;fill:#000000;fill-opacity:1;fill-rule:nonzero;stroke:none"
       x="331.1705"
       y="251.0717">
      <tspan
         id="tspan4275"
         sodipodi:role="line"
         y="251.0717"
         x="331.1705 335.56046 339.95041">651</tspan>
    </text>
    <path
       inkscape:connector-curvature="0"
       id="path4279"
       style="fill:#000000;fill-opacity:1;fill-rule:nonzero;stroke:#000000;stroke-width:0.298875;stroke-linecap:butt;stroke-linejoin:miter;stroke-miterlimit:10;stroke-dasharray:none;stroke-opacity:1"
       d="m 254.88502,229.77077 c 0,-0.58364 -0.47314,-1.05678 -1.05677,-1.05678 -0.58364,0 -1.05677,0.47314 -1.05677,1.05678 0,0.58365 0.47313,1.05678 1.05677,1.05678 0.58363,0 1.05677,-0.47313 1.05677,-1.05678 z" />
    <text
       id="text4283"
       style="font-variant:normal;font-weight:normal;font-size:8.96640015px;font-family:CMR12;-inkscape-font-specification:CMR12;writing-mode:lr-tb;fill:#000000;fill-opacity:1;fill-rule:nonzero;stroke:none"
       x="253.97301"
       y="225.93095">
      <tspan
         id="tspan4285"
         sodipodi:role="line"
         y="225.93095"
         x="253.97301 258.36295 262.7529">643</tspan>
    </text>
    <path
       inkscape:connector-curvature="0"
       id="path4289"
       style="fill:#000000;fill-opacity:1;fill-rule:nonzero;stroke:#000000;stroke-width:0.298875;stroke-linecap:butt;stroke-linejoin:miter;stroke-miterlimit:10;stroke-dasharray:none;stroke-opacity:1"
       d="m 297.40524,229.77077 c 0,-0.58364 -0.47314,-1.05678 -1.05678,-1.05678 -0.58365,0 -1.05678,0.47314 -1.05678,1.05678 0,0.58365 0.47313,1.05678 1.05678,1.05678 0.58364,0 1.05678,-0.47313 1.05678,-1.05678 z" />
    <text
       id="text4293"
       style="font-variant:normal;font-weight:normal;font-size:8.96640015px;font-family:CMR12;-inkscape-font-specification:CMR12;writing-mode:lr-tb;fill:#000000;fill-opacity:1;fill-rule:nonzero;stroke:none"
       x="296.49274"
       y="225.93095">
      <tspan
         id="tspan4295"
         sodipodi:role="line"
         y="225.93095"
         x="296.49274 300.88269 305.27264">645</tspan>
    </text>
    <path
       inkscape:connector-curvature="0"
       id="path4299"
       style="fill:#000000;fill-opacity:1;fill-rule:nonzero;stroke:#000000;stroke-width:0.298875;stroke-linecap:butt;stroke-linejoin:miter;stroke-miterlimit:10;stroke-dasharray:none;stroke-opacity:1"
       d="m 318.66534,229.77077 c 0,-0.58364 -0.47313,-1.05678 -1.05678,-1.05678 -0.58363,0 -1.05678,0.47314 -1.05678,1.05678 0,0.58365 0.47315,1.05678 1.05678,1.05678 0.58365,0 1.05678,-0.47313 1.05678,-1.05678 z" />
    <text
       id="text4303"
       style="font-variant:normal;font-weight:normal;font-size:8.96640015px;font-family:CMR12;-inkscape-font-specification:CMR12;writing-mode:lr-tb;fill:#000000;fill-opacity:1;fill-rule:nonzero;stroke:none"
       x="317.75299"
       y="225.93095">
      <tspan
         id="tspan4305"
         sodipodi:role="line"
         y="225.93095"
         x="317.75299 322.14294 326.5329">652</tspan>
    </text>
    <path
       inkscape:connector-curvature="0"
       id="path4309"
       style="fill:none;stroke:#000000;stroke-width:0.298875;stroke-linecap:butt;stroke-linejoin:miter;stroke-miterlimit:10;stroke-dasharray:none;stroke-opacity:1"
       d="m 254.4333,265.54653 9.41995,-16.31598 m -10e-6,-2.09585 -9.41995,-16.316 m 0.60118,-1.04793 18.84766,0 m 2.41244,0 18.84766,0 m 1.81128,1.04793 9.41996,16.316 m -0.60119,1.04792 -18.84766,0 m -1.81128,1.04793 -9.41995,16.31598 m 0.60118,1.04792 18.84766,0 m 2.41245,0 18.84767,0 m 1.81128,-1.04792 9.41994,-16.31598 m -2e-5,-2.09585 -9.41994,-16.316" />
    <path
       inkscape:connector-curvature="0"
       id="path4313"
       style="fill:none;stroke:#ff0000;stroke-width:0.298875;stroke-linecap:butt;stroke-linejoin:miter;stroke-miterlimit:10;stroke-dasharray:0.298875, 1.4944125;stroke-dashoffset:0;stroke-opacity:1"
       d="m 265.66451,248.18262 18.84767,0" />
    <path
       inkscape:connector-curvature="0"
       id="path4317"
       style="fill:none;stroke:#ff0000;stroke-width:0.298875;stroke-linecap:butt;stroke-linejoin:miter;stroke-miterlimit:10;stroke-dasharray:0.298875, 1.4944125;stroke-dashoffset:0;stroke-opacity:1"
       d="m 275.6934,230.8187 9.41995,16.316" />
    <path
       inkscape:connector-curvature="0"
       id="path4321"
       style="fill:none;stroke:#ff0000;stroke-width:0.298875;stroke-linecap:butt;stroke-linejoin:miter;stroke-miterlimit:10;stroke-dasharray:0.298875, 1.4944125;stroke-dashoffset:0;stroke-opacity:1"
       d="m 255.03447,266.59445 18.84766,0" />
    <path
       inkscape:connector-curvature="0"
       id="path4325"
       style="fill:none;stroke:#ff0000;stroke-width:0.298875;stroke-linecap:butt;stroke-linejoin:miter;stroke-miterlimit:10;stroke-dasharray:0.298875, 1.4944125;stroke-dashoffset:0;stroke-opacity:1"
       d="m 306.37345,249.23055 -9.41995,16.31598" />
    <path
       inkscape:connector-curvature="0"
       id="path4329"
       style="fill:none;stroke:#ff0000;stroke-width:0.298875;stroke-linecap:butt;stroke-linejoin:miter;stroke-miterlimit:10;stroke-dasharray:0.298875, 1.4944125;stroke-dashoffset:0;stroke-opacity:1"
       d="m 316.40235,229.77077 -18.84767,0" />
    <path
       inkscape:connector-curvature="0"
       id="path4333"
       style="fill:#ff0000;fill-opacity:1;fill-rule:nonzero;stroke:#ff0000;stroke-width:0.2988756;stroke-linecap:butt;stroke-linejoin:miter;stroke-miterlimit:10;stroke-dasharray:none;stroke-opacity:1"
       d="m 474.86727,266.59445 c 0,-0.58364 -0.47313,-1.05677 -1.05677,-1.05677 -0.58364,0 -1.05677,0.47313 -1.05677,1.05677 0,0.58364 0.47313,1.05677 1.05677,1.05677 0.58364,0 1.05677,-0.47313 1.05677,-1.05677 z" />
    <text
       id="text4337"
       style="font-variant:normal;font-weight:normal;font-size:8.96641827px;font-family:CMR12;-inkscape-font-specification:CMR12;writing-mode:lr-tb;fill:#000000;fill-opacity:1;fill-rule:nonzero;stroke:none"
       x="473.9552"
       y="276.21246">
      <tspan
         id="tspan4339"
         sodipodi:role="line"
         y="276.21246"
         x="473.9552 478.34515 482.73511">643</tspan>
    </text>
    <path
       inkscape:connector-curvature="0"
       id="path4343"
       style="fill:#000000;fill-opacity:1;fill-rule:nonzero;stroke:#000000;stroke-width:0.2988756;stroke-linecap:butt;stroke-linejoin:miter;stroke-miterlimit:10;stroke-dasharray:none;stroke-opacity:1"
       d="m 485.49735,248.18259 c 0,-0.58365 -0.47314,-1.05679 -1.05679,-1.05679 -0.58364,0 -1.05679,0.47314 -1.05679,1.05679 0,0.58363 0.47315,1.05678 1.05679,1.05678 0.58365,0 1.05679,-0.47315 1.05679,-1.05678 z" />
    <text
       id="text4347"
       style="font-variant:normal;font-weight:normal;font-size:8.96641827px;font-family:CMR12;-inkscape-font-specification:CMR12;writing-mode:lr-tb;fill:#000000;fill-opacity:1;fill-rule:nonzero;stroke:none"
       x="487.37195"
       y="251.0717">
      <tspan
         id="tspan4349"
         sodipodi:role="line"
         y="251.0717"
         x="487.37195 491.7619 496.15186">642</tspan>
    </text>
    <path
       inkscape:connector-curvature="0"
       id="path4353"
       style="fill:#000000;fill-opacity:1;fill-rule:nonzero;stroke:#000000;stroke-width:0.2988756;stroke-linecap:butt;stroke-linejoin:miter;stroke-miterlimit:10;stroke-dasharray:none;stroke-opacity:1"
       d="m 496.12742,229.7707 c 0,-0.58364 -0.47314,-1.05679 -1.05678,-1.05679 -0.58363,0 -1.05678,0.47315 -1.05678,1.05679 0,0.58365 0.47315,1.05678 1.05678,1.05678 0.58364,0 1.05678,-0.47313 1.05678,-1.05678 z" />
    <text
       id="text4357"
       style="font-variant:normal;font-weight:normal;font-size:8.96641827px;font-family:CMR12;-inkscape-font-specification:CMR12;writing-mode:lr-tb;fill:#000000;fill-opacity:1;fill-rule:nonzero;stroke:none"
       x="495.21469"
       y="225.93082">
      <tspan
         id="tspan4359"
         sodipodi:role="line"
         y="225.93082"
         x="495.21469 499.60464 503.9946">646</tspan>
    </text>
    <path
       inkscape:connector-curvature="0"
       id="path4363"
       style="fill:#ff0000;fill-opacity:1;fill-rule:nonzero;stroke:#ff0000;stroke-width:0.2988756;stroke-linecap:butt;stroke-linejoin:miter;stroke-miterlimit:10;stroke-dasharray:none;stroke-opacity:1"
       d="m 496.12742,266.59445 c 0,-0.58364 -0.47314,-1.05677 -1.05678,-1.05677 -0.58363,0 -1.05678,0.47313 -1.05678,1.05677 0,0.58364 0.47315,1.05677 1.05678,1.05677 0.58364,0 1.05678,-0.47313 1.05678,-1.05677 z" />
    <text
       id="text4367"
       style="font-variant:normal;font-weight:normal;font-size:8.96641827px;font-family:CMR12;-inkscape-font-specification:CMR12;writing-mode:lr-tb;fill:#000000;fill-opacity:1;fill-rule:nonzero;stroke:none"
       x="495.21469"
       y="276.21246">
      <tspan
         id="tspan4369"
         sodipodi:role="line"
         y="276.21246"
         x="495.21469 499.60464 503.9946">644</tspan>
    </text>
    <path
       inkscape:connector-curvature="0"
       id="path4373"
       style="fill:#000000;fill-opacity:1;fill-rule:nonzero;stroke:#000000;stroke-width:0.2988756;stroke-linecap:butt;stroke-linejoin:miter;stroke-miterlimit:10;stroke-dasharray:none;stroke-opacity:1"
       d="m 517.38757,266.59445 c 0,-0.58364 -0.47313,-1.05677 -1.05677,-1.05677 -0.58365,0 -1.05678,0.47313 -1.05678,1.05677 0,0.58364 0.47313,1.05677 1.05678,1.05677 0.58364,0 1.05677,-0.47313 1.05677,-1.05677 z" />
    <text
       id="text4377"
       style="font-variant:normal;font-weight:normal;font-size:8.96641827px;font-family:CMR12;-inkscape-font-specification:CMR12;writing-mode:lr-tb;fill:#000000;fill-opacity:1;fill-rule:nonzero;stroke:none"
       x="516.4751"
       y="276.21246">
      <tspan
         id="tspan4379"
         sodipodi:role="line"
         y="276.21246"
         x="516.4751 520.86505 525.255">649</tspan>
    </text>
    <path
       inkscape:connector-curvature="0"
       id="path4383"
       style="fill:#000000;fill-opacity:1;fill-rule:nonzero;stroke:#000000;stroke-width:0.2988756;stroke-linecap:butt;stroke-linejoin:miter;stroke-miterlimit:10;stroke-dasharray:none;stroke-opacity:1"
       d="m 538.64772,266.59445 c 0,-0.58364 -0.47313,-1.05677 -1.05678,-1.05677 -0.58363,0 -1.05678,0.47313 -1.05678,1.05677 0,0.58364 0.47315,1.05677 1.05678,1.05677 0.58365,0 1.05678,-0.47313 1.05678,-1.05677 z" />
    <text
       id="text4387"
       style="font-variant:normal;font-weight:normal;font-size:8.96641827px;font-family:CMR12;-inkscape-font-specification:CMR12;writing-mode:lr-tb;fill:#000000;fill-opacity:1;fill-rule:nonzero;stroke:none"
       x="537.73529"
       y="276.21246">
      <tspan
         id="tspan4389"
         sodipodi:role="line"
         y="276.21246"
         x="537.73529 542.12531 546.51526">650</tspan>
    </text>
    <path
       inkscape:connector-curvature="0"
       id="path4393"
       style="fill:#000000;fill-opacity:1;fill-rule:nonzero;stroke:#000000;stroke-width:0.2988756;stroke-linecap:butt;stroke-linejoin:miter;stroke-miterlimit:10;stroke-dasharray:none;stroke-opacity:1"
       d="m 506.7575,248.18259 c 0,-0.58365 -0.47314,-1.05679 -1.05679,-1.05679 -0.58365,0 -1.05678,0.47314 -1.05678,1.05679 0,0.58363 0.47313,1.05678 1.05678,1.05678 0.58365,0 1.05679,-0.47315 1.05679,-1.05678 z" />
    <text
       id="text4397"
       style="font-variant:normal;font-weight:normal;font-size:8.96641827px;font-family:CMR12;-inkscape-font-specification:CMR12;writing-mode:lr-tb;fill:#000000;fill-opacity:1;fill-rule:nonzero;stroke:none"
       x="508.63232"
       y="251.0717">
      <tspan
         id="tspan4399"
         sodipodi:role="line"
         y="251.0717"
         x="508.63232 513.02228 517.41223">645</tspan>
    </text>
    <path
       inkscape:connector-curvature="0"
       id="path4403"
       style="fill:#000000;fill-opacity:1;fill-rule:nonzero;stroke:#000000;stroke-width:0.2988756;stroke-linecap:butt;stroke-linejoin:miter;stroke-miterlimit:10;stroke-dasharray:none;stroke-opacity:1"
       d="m 528.01765,248.18259 c 0,-0.58365 -0.47314,-1.05679 -1.05679,-1.05679 -0.58364,0 -1.05679,0.47314 -1.05679,1.05679 0,0.58363 0.47315,1.05678 1.05679,1.05678 0.58365,0 1.05679,-0.47315 1.05679,-1.05678 z" />
    <text
       id="text4407"
       style="font-variant:normal;font-weight:normal;font-size:8.96641827px;font-family:CMR12;-inkscape-font-specification:CMR12;writing-mode:lr-tb;fill:#000000;fill-opacity:1;fill-rule:nonzero;stroke:none"
       x="529.89258"
       y="251.0717">
      <tspan
         id="tspan4409"
         sodipodi:role="line"
         y="251.0717"
         x="529.89258 534.28253 538.67249">648</tspan>
    </text>
    <path
       inkscape:connector-curvature="0"
       id="path4413"
       style="fill:#000000;fill-opacity:1;fill-rule:nonzero;stroke:#000000;stroke-width:0.2988756;stroke-linecap:butt;stroke-linejoin:miter;stroke-miterlimit:10;stroke-dasharray:none;stroke-opacity:1"
       d="m 549.27783,248.18259 c 0,-0.58365 -0.47318,-1.05679 -1.05682,-1.05679 -0.58365,0 -1.05678,0.47314 -1.05678,1.05679 0,0.58363 0.47313,1.05678 1.05678,1.05678 0.58364,0 1.05682,-0.47315 1.05682,-1.05678 z" />
    <text
       id="text4417"
       style="font-variant:normal;font-weight:normal;font-size:8.96641827px;font-family:CMR12;-inkscape-font-specification:CMR12;writing-mode:lr-tb;fill:#000000;fill-opacity:1;fill-rule:nonzero;stroke:none"
       x="551.15283"
       y="251.0717">
      <tspan
         id="tspan4419"
         sodipodi:role="line"
         y="251.0717"
         x="551.15283 555.54279 559.93274">651</tspan>
    </text>
    <path
       inkscape:connector-curvature="0"
       id="path4423"
       style="fill:#000000;fill-opacity:1;fill-rule:nonzero;stroke:#000000;stroke-width:0.2988756;stroke-linecap:butt;stroke-linejoin:miter;stroke-miterlimit:10;stroke-dasharray:none;stroke-opacity:1"
       d="m 474.86727,229.7707 c 0,-0.58364 -0.47313,-1.05679 -1.05677,-1.05679 -0.58364,0 -1.05677,0.47315 -1.05677,1.05679 0,0.58365 0.47313,1.05678 1.05677,1.05678 0.58364,0 1.05677,-0.47313 1.05677,-1.05678 z" />
    <text
       id="text4427"
       style="font-variant:normal;font-weight:normal;font-size:8.96641827px;font-family:CMR12;-inkscape-font-specification:CMR12;writing-mode:lr-tb;fill:#000000;fill-opacity:1;fill-rule:nonzero;stroke:none"
       x="473.9552"
       y="225.93082">
      <tspan
         id="tspan4429"
         sodipodi:role="line"
         y="225.93082"
         x="473.9552 478.34515 482.73511">641</tspan>
    </text>
    <path
       inkscape:connector-curvature="0"
       id="path4433"
       style="fill:#000000;fill-opacity:1;fill-rule:nonzero;stroke:#000000;stroke-width:0.2988756;stroke-linecap:butt;stroke-linejoin:miter;stroke-miterlimit:10;stroke-dasharray:none;stroke-opacity:1"
       d="m 517.38757,229.7707 c 0,-0.58364 -0.47313,-1.05679 -1.05677,-1.05679 -0.58365,0 -1.05678,0.47315 -1.05678,1.05679 0,0.58365 0.47313,1.05678 1.05678,1.05678 0.58364,0 1.05677,-0.47313 1.05677,-1.05678 z" />
    <text
       id="text4437"
       style="font-variant:normal;font-weight:normal;font-size:8.96641827px;font-family:CMR12;-inkscape-font-specification:CMR12;writing-mode:lr-tb;fill:#000000;fill-opacity:1;fill-rule:nonzero;stroke:none"
       x="516.4751"
       y="225.93082">
      <tspan
         id="tspan4439"
         sodipodi:role="line"
         y="225.93082"
         x="516.4751 520.86505 525.255">647</tspan>
    </text>
    <path
       inkscape:connector-curvature="0"
       id="path4443"
       style="fill:#000000;fill-opacity:1;fill-rule:nonzero;stroke:#000000;stroke-width:0.2988756;stroke-linecap:butt;stroke-linejoin:miter;stroke-miterlimit:10;stroke-dasharray:none;stroke-opacity:1"
       d="m 538.64772,229.7707 c 0,-0.58364 -0.47313,-1.05679 -1.05678,-1.05679 -0.58363,0 -1.05678,0.47315 -1.05678,1.05679 0,0.58365 0.47315,1.05678 1.05678,1.05678 0.58365,0 1.05678,-0.47313 1.05678,-1.05678 z" />
    <text
       id="text4447"
       style="font-variant:normal;font-weight:normal;font-size:8.96641827px;font-family:CMR12;-inkscape-font-specification:CMR12;writing-mode:lr-tb;fill:#000000;fill-opacity:1;fill-rule:nonzero;stroke:none"
       x="537.73529"
       y="225.93082">
      <tspan
         id="tspan4449"
         sodipodi:role="line"
         y="225.93082"
         x="537.73529 542.12531 546.51526">652</tspan>
    </text>
    <path
       inkscape:connector-curvature="0"
       id="path4453"
       style="fill:none;stroke:#000000;stroke-width:0.2988756;stroke-linecap:butt;stroke-linejoin:miter;stroke-miterlimit:10;stroke-dasharray:none;stroke-opacity:1"
       d="m 474.41555,230.81863 9.41997,16.31603 m -10e-6,2.09585 -9.41997,16.31602 m 0.60118,1.04792 18.8477,0 m 1.81127,-1.04792 9.41998,-16.31602 m -10e-6,-2.09585 -9.41998,-16.31603 m 0.60119,-1.04793 18.8477,0 m 1.81128,1.04793 9.41997,16.31603 m -10e-6,2.09585 -9.41997,16.31602 m 0.60118,1.04792 18.8477,0 m 1.81129,-1.04792 9.41996,-16.31602 m -2e-5,-2.09585 -9.41996,-16.31603" />
    <path
       inkscape:connector-curvature="0"
       id="path4457"
       style="fill:none;stroke:#ff0000;stroke-width:0.2988756;stroke-linecap:butt;stroke-linejoin:miter;stroke-miterlimit:10;stroke-dasharray:0.2988756, 1.49441549;stroke-dashoffset:0;stroke-opacity:1"
       d="m 475.01672,229.7707 18.8477,0" />
    <path
       inkscape:connector-curvature="0"
       id="path4461"
       style="fill:none;stroke:#ff0000;stroke-width:0.2988756;stroke-linecap:butt;stroke-linejoin:miter;stroke-miterlimit:10;stroke-dasharray:0.2988756, 1.49441549;stroke-dashoffset:0;stroke-opacity:1"
       d="m 496.27687,266.59445 18.8477,0" />
    <path
       inkscape:connector-curvature="0"
       id="path4465"
       style="fill:none;stroke:#ff0000;stroke-width:0.2988756;stroke-linecap:butt;stroke-linejoin:miter;stroke-miterlimit:10;stroke-dasharray:0.2988756, 1.49441549;stroke-dashoffset:0;stroke-opacity:1"
       d="m 517.53702,229.7707 18.8477,0" />
  </g>
</svg>
