<?xml version="1.0" encoding="UTF-8" standalone="no"?>
<!-- Created with Inkscape (http://www.inkscape.org/) -->

<svg
   xmlns:dc="http://purl.org/dc/elements/1.1/"
   xmlns:cc="http://creativecommons.org/ns#"
   xmlns:rdf="http://www.w3.org/1999/02/22-rdf-syntax-ns#"
   xmlns:svg="http://www.w3.org/2000/svg"
   xmlns="http://www.w3.org/2000/svg"
   xmlns:sodipodi="http://sodipodi.sourceforge.net/DTD/sodipodi-0.dtd"
   xmlns:inkscape="http://www.inkscape.org/namespaces/inkscape"
   width="210mm"
   height="297mm"
   viewBox="0 0 744.09448819 1052.3622047"
   id="svg2"
   version="1.1"
   inkscape:version="0.91 r13725"
   sodipodi:docname="Pi.svg"
   inkscape:export-filename="/home/yusei/Documents/DNA/Pi.png"
   inkscape:export-xdpi="90"
   inkscape:export-ydpi="90">
  <sodipodi:namedview
     id="base"
     pagecolor="#ffffff"
     bordercolor="#666666"
     borderopacity="1.0"
     inkscape:pageopacity="0.0"
     inkscape:pageshadow="2"
     inkscape:zoom="1.4"
     inkscape:cx="312.13329"
     inkscape:cy="755.37863"
     inkscape:document-units="px"
     inkscape:current-layer="layer1"
     showgrid="true"
     inkscape:window-width="2495"
     inkscape:window-height="1056"
     inkscape:window-x="65"
     inkscape:window-y="24"
     inkscape:window-maximized="1">
    <inkscape:grid
       id="grid5297"
       type="xygrid" />
  </sodipodi:namedview>
  <defs
     id="defs4">
    <marker
       inkscape:isstock="true"
       style="overflow:visible;"
       id="marker16667"
       refX="0.0"
       refY="0.0"
       orient="auto"
       inkscape:stockid="Arrow1Lend">
      <path
         transform="scale(0.8) rotate(180) translate(12.5,0)"
         style="fill-rule:evenodd;stroke:#000000;stroke-width:1pt;stroke-opacity:1;fill:#000000;fill-opacity:1"
         d="M 0.0,0.0 L 5.0,-5.0 L -12.5,0.0 L 5.0,5.0 L 0.0,0.0 z "
         id="path16669" />
    </marker>
    <marker
       inkscape:stockid="Arrow1Lend"
       orient="auto"
       refY="0.0"
       refX="0.0"
       id="marker16625"
       style="overflow:visible;"
       inkscape:isstock="true">
      <path
         id="path16627"
         d="M 0.0,0.0 L 5.0,-5.0 L -12.5,0.0 L 5.0,5.0 L 0.0,0.0 z "
         style="fill-rule:evenodd;stroke:#000000;stroke-width:1pt;stroke-opacity:1;fill:#000000;fill-opacity:1"
         transform="scale(0.8) rotate(180) translate(12.5,0)" />
    </marker>
    <marker
       inkscape:isstock="true"
       style="overflow:visible;"
       id="marker16585"
       refX="0.0"
       refY="0.0"
       orient="auto"
       inkscape:stockid="Arrow1Lend"
       inkscape:collect="always">
      <path
         transform="scale(0.8) rotate(180) translate(12.5,0)"
         style="fill-rule:evenodd;stroke:#000000;stroke-width:1pt;stroke-opacity:1;fill:#000000;fill-opacity:1"
         d="M 0.0,0.0 L 5.0,-5.0 L -12.5,0.0 L 5.0,5.0 L 0.0,0.0 z "
         id="path16587" />
    </marker>
    <marker
       inkscape:stockid="Arrow1Mend"
       orient="auto"
       refY="0.0"
       refX="0.0"
       id="marker16009"
       style="overflow:visible;"
       inkscape:isstock="true">
      <path
         id="path16011"
         d="M 0.0,0.0 L 5.0,-5.0 L -12.5,0.0 L 5.0,5.0 L 0.0,0.0 z "
         style="fill-rule:evenodd;stroke:#ff0000;stroke-width:1pt;stroke-opacity:1;fill:#ff0000;fill-opacity:1"
         transform="scale(0.4) rotate(180) translate(10,0)" />
    </marker>
    <marker
       inkscape:isstock="true"
       style="overflow:visible;"
       id="marker15971"
       refX="0.0"
       refY="0.0"
       orient="auto"
       inkscape:stockid="Arrow1Mend">
      <path
         transform="scale(0.4) rotate(180) translate(10,0)"
         style="fill-rule:evenodd;stroke:#000000;stroke-width:1pt;stroke-opacity:1;fill:#000000;fill-opacity:1"
         d="M 0.0,0.0 L 5.0,-5.0 L -12.5,0.0 L 5.0,5.0 L 0.0,0.0 z "
         id="path15973" />
    </marker>
    <marker
       inkscape:stockid="Arrow1Lend"
       orient="auto"
       refY="0.0"
       refX="0.0"
       id="marker14349"
       style="overflow:visible;"
       inkscape:isstock="true"
       inkscape:collect="always">
      <path
         id="path14351"
         d="M 0.0,0.0 L 5.0,-5.0 L -12.5,0.0 L 5.0,5.0 L 0.0,0.0 z "
         style="fill-rule:evenodd;stroke:#000000;stroke-width:1pt;stroke-opacity:1;fill:#000000;fill-opacity:1"
         transform="scale(0.8) rotate(180) translate(12.5,0)" />
    </marker>
    <marker
       inkscape:isstock="true"
       style="overflow:visible;"
       id="Arrow1Mend"
       refX="0.0"
       refY="0.0"
       orient="auto"
       inkscape:stockid="Arrow1Mend"
       inkscape:collect="always">
      <path
         transform="scale(0.4) rotate(180) translate(10,0)"
         style="fill-rule:evenodd;stroke:#0000ff;stroke-width:1pt;stroke-opacity:1;fill:#0000ff;fill-opacity:1"
         d="M 0.0,0.0 L 5.0,-5.0 L -12.5,0.0 L 5.0,5.0 L 0.0,0.0 z "
         id="path12134" />
    </marker>
    <clipPath
       clipPathUnits="userSpaceOnUse"
       id="clipPath4171">
      <path
         d="M 0,0 612,0 612,792 0,792 0,0 Z"
         id="path4173"
         inkscape:connector-curvature="0" />
    </clipPath>
  </defs>
  <metadata
     id="metadata7">
    <rdf:RDF>
      <cc:Work
         rdf:about="">
        <dc:format>image/svg+xml</dc:format>
        <dc:type
           rdf:resource="http://purl.org/dc/dcmitype/StillImage" />
        <dc:title />
      </cc:Work>
    </rdf:RDF>
  </metadata>
  <g
     id="layer1"
     inkscape:groupmode="layer"
     inkscape:label="レイヤー 1">
    <path
       d="m 125.18732,275.63332 c 0,-1.21025 -0.98108,-2.19133 -2.19132,-2.19133 -1.21022,0 -2.19129,0.98108 -2.19129,2.19133 0,1.2102 0.98107,2.19131 2.19129,2.19131 1.21024,0 2.19132,-0.98111 2.19132,-2.19131 z"
       style="fill:#0000ff;fill-opacity:1;fill-rule:nonzero;stroke:#0000ff;stroke-width:0.61974722;stroke-linecap:butt;stroke-linejoin:miter;stroke-miterlimit:10;stroke-dasharray:none;stroke-opacity:1"
       id="path4189"
       inkscape:connector-curvature="0" />
    <text
       y="295.57727"
       x="123.29618"
       style="font-variant:normal;font-weight:normal;font-size:18.59272575px;font-family:CMR12;-inkscape-font-specification:CMR12;writing-mode:lr-tb;fill:#000000;fill-opacity:1;fill-rule:nonzero;stroke:none"
       id="text4193">
      <tspan
         x="123.29618 132.39915 141.50217"
         y="295.57727"
         sodipodi:role="line"
         id="tspan4195">641</tspan>
    </text>
    <path
       d="m 147.2298,237.45454 c 0,-1.21026 -0.98107,-2.19133 -2.19133,-2.19133 -1.21024,0 -2.19137,0.98107 -2.19137,2.19133 0,1.21024 0.98113,2.19135 2.19137,2.19135 1.21026,0 2.19133,-0.98111 2.19133,-2.19135 z"
       style="fill:#000000;fill-opacity:1;fill-rule:nonzero;stroke:#000000;stroke-width:0.61974722;stroke-linecap:butt;stroke-linejoin:miter;stroke-miterlimit:10;stroke-dasharray:none;stroke-opacity:1"
       id="path4199"
       inkscape:connector-curvature="0" />
    <text
       y="243.44533"
       x="151.11711"
       style="font-variant:normal;font-weight:normal;font-size:18.59272575px;font-family:CMR12;-inkscape-font-specification:CMR12;writing-mode:lr-tb;fill:#000000;fill-opacity:1;fill-rule:nonzero;stroke:none"
       id="text4203">
      <tspan
         x="151.11711 160.22012 169.32317"
         y="243.44533"
         sodipodi:role="line"
         id="tspan4205">642</tspan>
    </text>
    <path
       d="m 169.27231,199.27573 c 0,-1.21024 -0.98113,-2.19132 -2.19135,-2.19132 -1.21025,0 -2.19135,0.98108 -2.19135,2.19132 0,1.21026 0.9811,2.19134 2.19135,2.19134 1.21022,0 2.19135,-0.98108 2.19135,-2.19134 z"
       style="fill:#000000;fill-opacity:1;fill-rule:nonzero;stroke:#000000;stroke-width:0.61974722;stroke-linecap:butt;stroke-linejoin:miter;stroke-miterlimit:10;stroke-dasharray:none;stroke-opacity:1"
       id="path4209"
       inkscape:connector-curvature="0" />
    <text
       y="191.31348"
       x="167.3799"
       style="font-variant:normal;font-weight:normal;font-size:18.59272575px;font-family:CMR12;-inkscape-font-specification:CMR12;writing-mode:lr-tb;fill:#000000;fill-opacity:1;fill-rule:nonzero;stroke:none"
       id="text4213">
      <tspan
         x="167.3799 176.48286 185.58588"
         y="191.31348"
         sodipodi:role="line"
         id="tspan4215">644</tspan>
    </text>
    <path
       d="m 169.27231,275.63332 c 0,-1.21025 -0.98113,-2.19133 -2.19135,-2.19133 -1.21025,0 -2.19135,0.98108 -2.19135,2.19133 0,1.2102 0.9811,2.19131 2.19135,2.19131 1.21022,0 2.19135,-0.98111 2.19135,-2.19131 z"
       style="fill:#0000ff;fill-opacity:1;fill-rule:nonzero;stroke:#0000ff;stroke-width:0.61974722;stroke-linecap:butt;stroke-linejoin:miter;stroke-miterlimit:10;stroke-dasharray:none;stroke-opacity:1"
       id="path4219"
       inkscape:connector-curvature="0" />
    <text
       y="295.57727"
       x="167.3799"
       style="font-variant:normal;font-weight:normal;font-size:18.59272575px;font-family:CMR12;-inkscape-font-specification:CMR12;writing-mode:lr-tb;fill:#000000;fill-opacity:1;fill-rule:nonzero;stroke:none"
       id="text4223">
      <tspan
         x="167.3799 176.48286 185.58588"
         y="295.57727"
         sodipodi:role="line"
         id="tspan4225">648</tspan>
    </text>
    <path
       d="m 213.35726,275.63332 c 0,-1.21025 -0.9811,-2.19133 -2.19135,-2.19133 -1.21025,0 -2.19132,0.98108 -2.19132,2.19133 0,1.2102 0.98107,2.19131 2.19132,2.19131 1.21025,0 2.19135,-0.98111 2.19135,-2.19131 z"
       style="fill:#000000;fill-opacity:1;fill-rule:nonzero;stroke:#000000;stroke-width:0.61974722;stroke-linecap:butt;stroke-linejoin:miter;stroke-miterlimit:10;stroke-dasharray:none;stroke-opacity:1"
       id="path4229"
       inkscape:connector-curvature="0" />
    <text
       y="295.57727"
       x="211.4651"
       style="font-variant:normal;font-weight:normal;font-size:18.59272575px;font-family:CMR12;-inkscape-font-specification:CMR12;writing-mode:lr-tb;fill:#000000;fill-opacity:1;fill-rule:nonzero;stroke:none"
       id="text4233">
      <tspan
         x="211.4651 220.56812 229.67111"
         y="295.57727"
         sodipodi:role="line"
         id="tspan4235">649</tspan>
    </text>
    <path
       d="m 257.44222,275.63332 c 0,-1.21025 -0.98111,-2.19133 -2.19136,-2.19133 -1.2102,0 -2.19133,0.98108 -2.19133,2.19133 0,1.2102 0.98113,2.19131 2.19133,2.19131 1.21025,0 2.19136,-0.98111 2.19136,-2.19131 z"
       style="fill:#000000;fill-opacity:1;fill-rule:nonzero;stroke:#000000;stroke-width:0.61974722;stroke-linecap:butt;stroke-linejoin:miter;stroke-miterlimit:10;stroke-dasharray:none;stroke-opacity:1"
       id="path4239"
       inkscape:connector-curvature="0" />
    <text
       y="295.57727"
       x="255.55035"
       style="font-variant:normal;font-weight:normal;font-size:18.59272575px;font-family:CMR12;-inkscape-font-specification:CMR12;writing-mode:lr-tb;fill:#000000;fill-opacity:1;fill-rule:nonzero;stroke:none"
       id="text4243">
      <tspan
         x="255.55035 264.65335 273.75635"
         y="295.57727"
         sodipodi:role="line"
         id="tspan4245">650</tspan>
    </text>
    <path
       d="m 191.31478,237.45454 c 0,-1.21026 -0.98111,-2.19133 -2.19135,-2.19133 -1.21026,0 -2.19135,0.98107 -2.19135,2.19133 0,1.21024 0.98109,2.19135 2.19135,2.19135 1.21024,0 2.19135,-0.98111 2.19135,-2.19135 z"
       style="fill:#000000;fill-opacity:1;fill-rule:nonzero;stroke:#000000;stroke-width:0.61974722;stroke-linecap:butt;stroke-linejoin:miter;stroke-miterlimit:10;stroke-dasharray:none;stroke-opacity:1"
       id="path4249"
       inkscape:connector-curvature="0" />
    <text
       y="235.15092"
       x="191.05522"
       style="font-variant:normal;font-weight:normal;font-size:18.59272575px;font-family:CMR12;-inkscape-font-specification:CMR12;writing-mode:lr-tb;fill:#000000;fill-opacity:1;fill-rule:nonzero;stroke:none"
       id="text4253">
      <tspan
         x="191.05522 200.15822 209.26122"
         y="235.15092"
         sodipodi:role="line"
         id="tspan4255">647</tspan>
    </text>
    <path
       d="m 235.39973,237.45454 c 0,-1.21026 -0.9811,-2.19133 -2.19136,-2.19133 -1.21023,0 -2.19134,0.98107 -2.19134,2.19133 0,1.21024 0.98111,2.19135 2.19134,2.19135 1.21026,0 2.19136,-0.98111 2.19136,-2.19135 z"
       style="fill:#000000;fill-opacity:1;fill-rule:nonzero;stroke:#000000;stroke-width:0.61974722;stroke-linecap:butt;stroke-linejoin:miter;stroke-miterlimit:10;stroke-dasharray:none;stroke-opacity:1"
       id="path4259"
       inkscape:connector-curvature="0" />
    <text
       y="243.44533"
       x="239.28761"
       style="font-variant:normal;font-weight:normal;font-size:18.59272575px;font-family:CMR12;-inkscape-font-specification:CMR12;writing-mode:lr-tb;fill:#000000;fill-opacity:1;fill-rule:nonzero;stroke:none"
       id="text4263">
      <tspan
         x="239.28761 248.39062 257.49365"
         y="243.44533"
         sodipodi:role="line"
         id="tspan4265">646</tspan>
    </text>
    <path
       d="m 279.48476,237.45454 c 0,-1.21026 -0.98119,-2.19133 -2.19142,-2.19133 -1.21026,0 -2.19134,0.98107 -2.19134,2.19133 0,1.21024 0.98108,2.19135 2.19134,2.19135 1.21023,0 2.19142,-0.98111 2.19142,-2.19135 z"
       style="fill:#000000;fill-opacity:1;fill-rule:nonzero;stroke:#000000;stroke-width:0.61974722;stroke-linecap:butt;stroke-linejoin:miter;stroke-miterlimit:10;stroke-dasharray:none;stroke-opacity:1"
       id="path4269"
       inkscape:connector-curvature="0" />
    <text
       y="243.44533"
       x="283.37289"
       style="font-variant:normal;font-weight:normal;font-size:18.59272575px;font-family:CMR12;-inkscape-font-specification:CMR12;writing-mode:lr-tb;fill:#000000;fill-opacity:1;fill-rule:nonzero;stroke:none"
       id="text4273">
      <tspan
         x="283.37289 292.47592 301.57892"
         y="243.44533"
         sodipodi:role="line"
         id="tspan4275">651</tspan>
    </text>
    <path
       d="m 125.18732,199.27573 c 0,-1.21024 -0.98108,-2.19132 -2.19132,-2.19132 -1.21022,0 -2.19129,0.98108 -2.19129,2.19132 0,1.21026 0.98107,2.19134 2.19129,2.19134 1.21024,0 2.19132,-0.98108 2.19132,-2.19134 z"
       style="fill:#000000;fill-opacity:1;fill-rule:nonzero;stroke:#000000;stroke-width:0.61974722;stroke-linecap:butt;stroke-linejoin:miter;stroke-miterlimit:10;stroke-dasharray:none;stroke-opacity:1"
       id="path4279"
       inkscape:connector-curvature="0" />
    <text
       y="191.31348"
       x="123.29618"
       style="font-variant:normal;font-weight:normal;font-size:18.59272575px;font-family:CMR12;-inkscape-font-specification:CMR12;writing-mode:lr-tb;fill:#000000;fill-opacity:1;fill-rule:nonzero;stroke:none"
       id="text4283">
      <tspan
         x="123.29618 132.39915 141.50217"
         y="191.31348"
         sodipodi:role="line"
         id="tspan4285">643</tspan>
    </text>
    <path
       d="m 213.35726,199.27573 c 0,-1.21024 -0.9811,-2.19132 -2.19135,-2.19132 -1.21025,0 -2.19132,0.98108 -2.19132,2.19132 0,1.21026 0.98107,2.19134 2.19132,2.19134 1.21025,0 2.19135,-0.98108 2.19135,-2.19134 z"
       style="fill:#000000;fill-opacity:1;fill-rule:nonzero;stroke:#000000;stroke-width:0.61974722;stroke-linecap:butt;stroke-linejoin:miter;stroke-miterlimit:10;stroke-dasharray:none;stroke-opacity:1"
       id="path4289"
       inkscape:connector-curvature="0" />
    <text
       y="191.31348"
       x="211.4651"
       style="font-variant:normal;font-weight:normal;font-size:18.59272575px;font-family:CMR12;-inkscape-font-specification:CMR12;writing-mode:lr-tb;fill:#000000;fill-opacity:1;fill-rule:nonzero;stroke:none"
       id="text4293">
      <tspan
         x="211.4651 220.56812 229.67111"
         y="191.31348"
         sodipodi:role="line"
         id="tspan4295">645</tspan>
    </text>
    <path
       d="m 257.44222,199.27573 c 0,-1.21024 -0.98111,-2.19132 -2.19136,-2.19132 -1.2102,0 -2.19133,0.98108 -2.19133,2.19132 0,1.21026 0.98113,2.19134 2.19133,2.19134 1.21025,0 2.19136,-0.98108 2.19136,-2.19134 z"
       style="fill:#000000;fill-opacity:1;fill-rule:nonzero;stroke:#000000;stroke-width:0.61974722;stroke-linecap:butt;stroke-linejoin:miter;stroke-miterlimit:10;stroke-dasharray:none;stroke-opacity:1"
       id="path4299"
       inkscape:connector-curvature="0" />
    <text
       y="191.31348"
       x="255.55035"
       style="font-variant:normal;font-weight:normal;font-size:18.59272575px;font-family:CMR12;-inkscape-font-specification:CMR12;writing-mode:lr-tb;fill:#000000;fill-opacity:1;fill-rule:nonzero;stroke:none"
       id="text4303">
      <tspan
         x="255.55035 264.65335 273.75635"
         y="191.31348"
         sodipodi:role="line"
         id="tspan4305">652</tspan>
    </text>
    <path
       d="m 124.25065,273.46035 19.53319,-33.83282 m -1e-5,-4.34595 -19.5332,-33.83286 m 1.24661,-2.17299 39.08251,0 m 5.00241,0 39.08253,0 m 3.75587,2.17299 19.53322,33.83286 m -1.24662,2.17296 -39.08252,0 m -3.75586,2.17299 -19.5332,33.83282 m 1.24658,2.17297 39.08253,0 m 5.00246,0 39.08253,0 m 3.75588,-2.17297 19.53316,-33.83282 m -3e-5,-4.34595 -19.53319,-33.83286"
       style="fill:none;stroke:#000000;stroke-width:2.07360005;stroke-linecap:butt;stroke-linejoin:miter;stroke-miterlimit:10;stroke-dasharray:none;stroke-opacity:1"
       id="path4309"
       inkscape:connector-curvature="0" />
    <path
       d="m 147.53969,237.45454 39.08253,0"
       style="fill:none;stroke:#ff0000;stroke-width:0.61974722;stroke-linecap:butt;stroke-linejoin:miter;stroke-miterlimit:10;stroke-dasharray:0.6197472, 3.09881376;stroke-dashoffset:0;stroke-opacity:1"
       id="path4313"
       inkscape:connector-curvature="0" />
    <path
       d="m 168.33559,201.44872 19.53321,33.83286"
       style="fill:none;stroke:#ff0000;stroke-width:2.07360005;stroke-linecap:butt;stroke-linejoin:miter;stroke-miterlimit:10;stroke-dasharray:2.07359999, 10.36826004;stroke-dashoffset:0;stroke-opacity:1"
       id="path4317"
       inkscape:connector-curvature="0" />
    <path
       d="m 125.49724,275.63332 39.08251,0"
       style="fill:none;stroke:#ff0000;stroke-width:2.07360005;stroke-linecap:butt;stroke-linejoin:miter;stroke-miterlimit:10;stroke-dasharray:2.07359999, 10.36826004;stroke-dashoffset:0;stroke-opacity:1"
       id="path4321"
       inkscape:connector-curvature="0" />
    <path
       d="m 231.95374,239.62753 -19.53321,33.83282"
       style="fill:none;stroke:#ff0000;stroke-width:2.07360005;stroke-linecap:butt;stroke-linejoin:miter;stroke-miterlimit:10;stroke-dasharray:2.07359999, 10.36826004;stroke-dashoffset:0;stroke-opacity:1"
       id="path4325"
       inkscape:connector-curvature="0" />
    <path
       d="m 252.74968,199.27573 -39.08253,0"
       style="fill:none;stroke:#ff0000;stroke-width:2.07360005;stroke-linecap:butt;stroke-linejoin:miter;stroke-miterlimit:10;stroke-dasharray:2.07359999, 10.36826004;stroke-dashoffset:0;stroke-opacity:1"
       id="path4329"
       inkscape:connector-curvature="0" />
    <path
       d="m 481.80972,275.63332 c 0,-1.21025 -0.98107,-2.19133 -2.19132,-2.19133 -1.21024,0 -2.19131,0.98108 -2.19131,2.19133 0,1.21024 0.98107,2.19131 2.19131,2.19131 1.21025,0 2.19132,-0.98107 2.19132,-2.19131 z"
       style="fill:#ff0000;fill-opacity:1;fill-rule:nonzero;stroke:#ff0000;stroke-width:0.61974841;stroke-linecap:butt;stroke-linejoin:miter;stroke-miterlimit:10;stroke-dasharray:none;stroke-opacity:1"
       id="path4333"
       inkscape:connector-curvature="0" />
    <text
       y="295.57727"
       x="479.91846"
       style="font-variant:normal;font-weight:normal;font-size:18.59276581px;font-family:CMR12;-inkscape-font-specification:CMR12;writing-mode:lr-tb;fill:#000000;fill-opacity:1;fill-rule:nonzero;stroke:none"
       id="text4337">
      <tspan
         x="479.91846 489.02145 498.12448"
         y="295.57727"
         sodipodi:role="line"
         id="tspan4339">643</tspan>
    </text>
    <path
       d="m 503.85227,237.45448 c 0,-1.21025 -0.98112,-2.19135 -2.19137,-2.19135 -1.21025,0 -2.19137,0.9811 -2.19137,2.19135 0,1.21021 0.98112,2.19133 2.19137,2.19133 1.21025,0 2.19137,-0.98112 2.19137,-2.19133 z"
       style="fill:#000000;fill-opacity:1;fill-rule:nonzero;stroke:#000000;stroke-width:0.61974841;stroke-linecap:butt;stroke-linejoin:miter;stroke-miterlimit:10;stroke-dasharray:none;stroke-opacity:1"
       id="path4343"
       inkscape:connector-curvature="0" />
    <text
       y="243.44533"
       x="507.73938"
       style="font-variant:normal;font-weight:normal;font-size:18.59276581px;font-family:CMR12;-inkscape-font-specification:CMR12;writing-mode:lr-tb;fill:#000000;fill-opacity:1;fill-rule:nonzero;stroke:none"
       id="text4347">
      <tspan
         x="507.73938 516.84241 525.94543"
         y="243.44533"
         sodipodi:role="line"
         id="tspan4349">642</tspan>
    </text>
    <path
       d="m 525.89476,199.27559 c 0,-1.21024 -0.98109,-2.19136 -2.19132,-2.19136 -1.21022,0 -2.19135,0.98112 -2.19135,2.19136 0,1.21025 0.98113,2.19132 2.19135,2.19132 1.21023,0 2.19132,-0.98107 2.19132,-2.19132 z"
       style="fill:#000000;fill-opacity:1;fill-rule:nonzero;stroke:#000000;stroke-width:0.61974841;stroke-linecap:butt;stroke-linejoin:miter;stroke-miterlimit:10;stroke-dasharray:none;stroke-opacity:1"
       id="path4353"
       inkscape:connector-curvature="0" />
    <text
       y="191.3132"
       x="524.00214"
       style="font-variant:normal;font-weight:normal;font-size:18.59276581px;font-family:CMR12;-inkscape-font-specification:CMR12;writing-mode:lr-tb;fill:#000000;fill-opacity:1;fill-rule:nonzero;stroke:none"
       id="text4357">
      <tspan
         x="524.00214 533.1051 542.20813"
         y="191.3132"
         sodipodi:role="line"
         id="tspan4359">646</tspan>
    </text>
    <path
       d="m 525.89476,275.63332 c 0,-1.21025 -0.98109,-2.19133 -2.19132,-2.19133 -1.21022,0 -2.19135,0.98108 -2.19135,2.19133 0,1.21024 0.98113,2.19131 2.19135,2.19131 1.21023,0 2.19132,-0.98107 2.19132,-2.19131 z"
       style="fill:#ff0000;fill-opacity:1;fill-rule:nonzero;stroke:#ff0000;stroke-width:0.61974841;stroke-linecap:butt;stroke-linejoin:miter;stroke-miterlimit:10;stroke-dasharray:none;stroke-opacity:1"
       id="path4363"
       inkscape:connector-curvature="0" />
    <text
       y="295.57727"
       x="524.00214"
       style="font-variant:normal;font-weight:normal;font-size:18.59276581px;font-family:CMR12;-inkscape-font-specification:CMR12;writing-mode:lr-tb;fill:#000000;fill-opacity:1;fill-rule:nonzero;stroke:none"
       id="text4367">
      <tspan
         x="524.00214 533.1051 542.20813"
         y="295.57727"
         sodipodi:role="line"
         id="tspan4369">644</tspan>
    </text>
    <path
       d="m 569.97982,275.63332 c 0,-1.21025 -0.98108,-2.19133 -2.19131,-2.19133 -1.21026,0 -2.19135,0.98108 -2.19135,2.19133 0,1.21024 0.98109,2.19131 2.19135,2.19131 1.21023,0 2.19131,-0.98107 2.19131,-2.19131 z"
       style="fill:#000000;fill-opacity:1;fill-rule:nonzero;stroke:#000000;stroke-width:0.61974841;stroke-linecap:butt;stroke-linejoin:miter;stroke-miterlimit:10;stroke-dasharray:none;stroke-opacity:1"
       id="path4373"
       inkscape:connector-curvature="0" />
    <text
       y="295.57727"
       x="568.08771"
       style="font-variant:normal;font-weight:normal;font-size:18.59276581px;font-family:CMR12;-inkscape-font-specification:CMR12;writing-mode:lr-tb;fill:#000000;fill-opacity:1;fill-rule:nonzero;stroke:none"
       id="text4377">
      <tspan
         x="568.08771 577.1908 586.29382"
         y="295.57727"
         sodipodi:role="line"
         id="tspan4379">649</tspan>
    </text>
    <path
       d="m 614.06486,275.63332 c 0,-1.21025 -0.98107,-2.19133 -2.19133,-2.19133 -1.21022,0 -2.19134,0.98108 -2.19134,2.19133 0,1.21024 0.98112,2.19131 2.19134,2.19131 1.21026,0 2.19133,-0.98107 2.19133,-2.19131 z"
       style="fill:#000000;fill-opacity:1;fill-rule:nonzero;stroke:#000000;stroke-width:0.61974841;stroke-linecap:butt;stroke-linejoin:miter;stroke-miterlimit:10;stroke-dasharray:none;stroke-opacity:1"
       id="path4383"
       inkscape:connector-curvature="0" />
    <text
       y="295.57727"
       x="612.17285"
       style="font-variant:normal;font-weight:normal;font-size:18.59276581px;font-family:CMR12;-inkscape-font-specification:CMR12;writing-mode:lr-tb;fill:#000000;fill-opacity:1;fill-rule:nonzero;stroke:none"
       id="text4387">
      <tspan
         x="612.17285 621.27588 630.37897"
         y="295.57727"
         sodipodi:role="line"
         id="tspan4389">650</tspan>
    </text>
    <path
       d="m 547.9373,237.45448 c 0,-1.21025 -0.9811,-2.19135 -2.19136,-2.19135 -1.21025,0 -2.19132,0.9811 -2.19132,2.19135 0,1.21021 0.98107,2.19133 2.19132,2.19133 1.21026,0 2.19136,-0.98112 2.19136,-2.19133 z"
       style="fill:#000000;fill-opacity:1;fill-rule:nonzero;stroke:#000000;stroke-width:0.61974841;stroke-linecap:butt;stroke-linejoin:miter;stroke-miterlimit:10;stroke-dasharray:none;stroke-opacity:1"
       id="path4393"
       inkscape:connector-curvature="0" />
    <text
       y="243.44533"
       x="551.82495"
       style="font-variant:normal;font-weight:normal;font-size:18.59276581px;font-family:CMR12;-inkscape-font-specification:CMR12;writing-mode:lr-tb;fill:#000000;fill-opacity:1;fill-rule:nonzero;stroke:none"
       id="text4397">
      <tspan
         x="551.82495 560.92792 570.03101"
         y="243.44533"
         sodipodi:role="line"
         id="tspan4399">645</tspan>
    </text>
    <path
       d="m 592.02235,237.45448 c 0,-1.21025 -0.98109,-2.19135 -2.19135,-2.19135 -1.21024,0 -2.19137,0.9811 -2.19137,2.19135 0,1.21021 0.98113,2.19133 2.19137,2.19133 1.21026,0 2.19135,-0.98112 2.19135,-2.19133 z"
       style="fill:#000000;fill-opacity:1;fill-rule:nonzero;stroke:#000000;stroke-width:0.61974841;stroke-linecap:butt;stroke-linejoin:miter;stroke-miterlimit:10;stroke-dasharray:none;stroke-opacity:1"
       id="path4403"
       inkscape:connector-curvature="0" />
    <text
       y="243.44533"
       x="595.91016"
       style="font-variant:normal;font-weight:normal;font-size:18.59276581px;font-family:CMR12;-inkscape-font-specification:CMR12;writing-mode:lr-tb;fill:#000000;fill-opacity:1;fill-rule:nonzero;stroke:none"
       id="text4407">
      <tspan
         x="595.91016 605.01318 614.11621"
         y="243.44533"
         sodipodi:role="line"
         id="tspan4409">648</tspan>
    </text>
    <path
       d="m 636.10746,237.45448 c 0,-1.21025 -0.98118,-2.19135 -2.19142,-2.19135 -1.21026,0 -2.19133,0.9811 -2.19133,2.19135 0,1.21021 0.98107,2.19133 2.19133,2.19133 1.21024,0 2.19142,-0.98112 2.19142,-2.19133 z"
       style="fill:#000000;fill-opacity:1;fill-rule:nonzero;stroke:#000000;stroke-width:0.61974841;stroke-linecap:butt;stroke-linejoin:miter;stroke-miterlimit:10;stroke-dasharray:none;stroke-opacity:1"
       id="path4413"
       inkscape:connector-curvature="0" />
    <text
       y="243.44533"
       x="639.99548"
       style="font-variant:normal;font-weight:normal;font-size:18.59276581px;font-family:CMR12;-inkscape-font-specification:CMR12;writing-mode:lr-tb;fill:#000000;fill-opacity:1;fill-rule:nonzero;stroke:none"
       id="text4417">
      <tspan
         x="639.99548 649.09851 658.20154"
         y="243.44533"
         sodipodi:role="line"
         id="tspan4419">651</tspan>
    </text>
    <path
       d="m 481.80972,199.27559 c 0,-1.21024 -0.98107,-2.19136 -2.19132,-2.19136 -1.21024,0 -2.19131,0.98112 -2.19131,2.19136 0,1.21025 0.98107,2.19132 2.19131,2.19132 1.21025,0 2.19132,-0.98107 2.19132,-2.19132 z"
       style="fill:#000000;fill-opacity:1;fill-rule:nonzero;stroke:#000000;stroke-width:0.61974841;stroke-linecap:butt;stroke-linejoin:miter;stroke-miterlimit:10;stroke-dasharray:none;stroke-opacity:1"
       id="path4423"
       inkscape:connector-curvature="0" />
    <text
       y="191.3132"
       x="479.91846"
       style="font-variant:normal;font-weight:normal;font-size:18.59276581px;font-family:CMR12;-inkscape-font-specification:CMR12;writing-mode:lr-tb;fill:#000000;fill-opacity:1;fill-rule:nonzero;stroke:none"
       id="text4427">
      <tspan
         x="479.91846 489.02145 498.12448"
         y="191.3132"
         sodipodi:role="line"
         id="tspan4429">641</tspan>
    </text>
    <path
       d="m 569.97982,199.27559 c 0,-1.21024 -0.98108,-2.19136 -2.19131,-2.19136 -1.21026,0 -2.19135,0.98112 -2.19135,2.19136 0,1.21025 0.98109,2.19132 2.19135,2.19132 1.21023,0 2.19131,-0.98107 2.19131,-2.19132 z"
       style="fill:#000000;fill-opacity:1;fill-rule:nonzero;stroke:#000000;stroke-width:0.61974841;stroke-linecap:butt;stroke-linejoin:miter;stroke-miterlimit:10;stroke-dasharray:none;stroke-opacity:1"
       id="path4433"
       inkscape:connector-curvature="0" />
    <text
       y="191.3132"
       x="568.08771"
       style="font-variant:normal;font-weight:normal;font-size:18.59276581px;font-family:CMR12;-inkscape-font-specification:CMR12;writing-mode:lr-tb;fill:#000000;fill-opacity:1;fill-rule:nonzero;stroke:none"
       id="text4437">
      <tspan
         x="568.08771 577.1908 586.29382"
         y="191.3132"
         sodipodi:role="line"
         id="tspan4439">647</tspan>
    </text>
    <path
       d="m 614.06486,199.27559 c 0,-1.21024 -0.98107,-2.19136 -2.19133,-2.19136 -1.21022,0 -2.19134,0.98112 -2.19134,2.19136 0,1.21025 0.98112,2.19132 2.19134,2.19132 1.21026,0 2.19133,-0.98107 2.19133,-2.19132 z"
       style="fill:#000000;fill-opacity:1;fill-rule:nonzero;stroke:#000000;stroke-width:0.61974841;stroke-linecap:butt;stroke-linejoin:miter;stroke-miterlimit:10;stroke-dasharray:none;stroke-opacity:1"
       id="path4443"
       inkscape:connector-curvature="0" />
    <text
       y="191.3132"
       x="612.17285"
       style="font-variant:normal;font-weight:normal;font-size:18.59276581px;font-family:CMR12;-inkscape-font-specification:CMR12;writing-mode:lr-tb;fill:#000000;fill-opacity:1;fill-rule:nonzero;stroke:none"
       id="text4447">
      <tspan
         x="612.17285 621.27588 630.37897"
         y="191.3132"
         sodipodi:role="line"
         id="tspan4449">652</tspan>
    </text>
    <path
       d="m 480.87305,201.44857 19.53324,33.83293 m -1e-5,4.34594 -19.53327,33.83291 m 1.24661,2.17297 39.08258,0 m 3.75587,-2.17297 19.53325,-33.83291 m -10e-6,-4.34594 -19.53325,-33.83293 m 1.24661,-2.17298 39.08258,0 m 3.75588,2.17298 19.53324,33.83293 m -10e-6,4.34594 -19.53324,33.83291 m 1.2466,2.17297 39.08259,0 m 3.75589,-2.17297 19.53323,-33.83291 m -5e-5,-4.34594 -19.53322,-33.83293"
       style="fill:none;stroke:#000000;stroke-width:2.07360005;stroke-linecap:butt;stroke-linejoin:miter;stroke-miterlimit:10;stroke-dasharray:none;stroke-opacity:1"
       id="path4453"
       inkscape:connector-curvature="0" />
    <path
       d="m 482.11962,199.27559 39.08258,0"
       style="fill:none;stroke:#ff0000;stroke-width:2.07360005;stroke-linecap:butt;stroke-linejoin:miter;stroke-miterlimit:10;stroke-dasharray:2.07359999, 10.36826004;stroke-dashoffset:0;stroke-opacity:1"
       id="path4457"
       inkscape:connector-curvature="0" />
    <path
       d="m 526.20467,275.63332 39.08258,0"
       style="fill:none;stroke:#ff0000;stroke-width:2.07360005;stroke-linecap:butt;stroke-linejoin:miter;stroke-miterlimit:10;stroke-dasharray:2.07359999, 10.36826004;stroke-dashoffset:0;stroke-opacity:1"
       id="path4461"
       inkscape:connector-curvature="0" />
    <path
       d="m 570.28972,199.27559 39.08259,0"
       style="fill:none;stroke:#ff0000;stroke-width:2.07360005;stroke-linecap:butt;stroke-linejoin:miter;stroke-miterlimit:10;stroke-dasharray:2.07359999, 10.36826004;stroke-dashoffset:0;stroke-opacity:1"
       id="path4465"
       inkscape:connector-curvature="0" />
    <path
       inkscape:connector-curvature="0"
       id="path12115"
       d="m 115.05775,293.35333 0,10.368 176.256,0 0,-10.368 0,0"
       style="fill:none;fill-rule:evenodd;stroke:#000000;stroke-width:2.07360005px;stroke-linecap:butt;stroke-linejoin:miter;stroke-opacity:1" />
    <path
       inkscape:connector-curvature="0"
       id="path12117"
       d="m 467.56975,287.59333 0,10.368 186.624,0 0,-10.368"
       style="fill:none;fill-rule:evenodd;stroke:#000000;stroke-width:2.07360005px;stroke-linecap:butt;stroke-linejoin:miter;stroke-opacity:1" />
    <path
       inkscape:connector-curvature="0"
       id="path12119"
       d="m 86.027353,277.22533 31.103997,0 0,0"
       style="fill:none;fill-rule:evenodd;stroke:#000000;stroke-width:1.03680003;stroke-linecap:butt;stroke-linejoin:miter;stroke-miterlimit:4;stroke-dasharray:none;stroke-opacity:1;marker-end:url(#marker16585)" />
    <path
       style="fill:none;fill-rule:evenodd;stroke:#000000;stroke-width:1.03680003;stroke-linecap:butt;stroke-linejoin:miter;stroke-miterlimit:4;stroke-dasharray:none;stroke-opacity:1;marker-end:url(#marker16667)"
       d="m 442.24219,200.20589 31.104,0 0,0"
       id="use12559"
       inkscape:connector-curvature="0" />
    <path
       inkscape:connector-curvature="0"
       id="use13671"
       d="m 257.39557,199.46533 31.104,0 0,0"
       style="fill:none;fill-rule:evenodd;stroke:#000000;stroke-width:1.03680003;stroke-linecap:butt;stroke-linejoin:miter;stroke-miterlimit:4;stroke-dasharray:none;stroke-opacity:1;marker-end:url(#marker14349)" />
    <path
       style="fill:none;fill-rule:evenodd;stroke:#000000;stroke-width:1.03680003;stroke-linecap:butt;stroke-linejoin:miter;stroke-miterlimit:4;stroke-dasharray:none;stroke-opacity:1;marker-end:url(#marker16625)"
       d="m 615.83214,199.46533 31.104,0 0,0"
       id="use14345"
       inkscape:connector-curvature="0" />
    <g
       transform="matrix(0.44234012,0,0,0.52392221,39.559025,148.45461)"
       id="g15454">
      <g
         style="font-style:normal;font-variant:normal;font-weight:normal;font-stretch:normal;letter-spacing:normal;word-spacing:normal;text-anchor:start;fill:none;fill-opacity:1;fill-rule:evenodd;stroke:#000000;stroke-linecap:butt;stroke-linejoin:miter;stroke-miterlimit:10.43299961;stroke-dasharray:none;stroke-dashoffset:0;stroke-opacity:1"
         id="content"
         transform="matrix(1.0629921,0,0,-1.0629921,-186.02362,789.27165)"
         xml:space="preserve"
         stroke-miterlimit="10.433"
         font-style="normal"
         font-variant="normal"
         font-weight="normal"
         font-stretch="normal"
         font-size-adjust="none"
         letter-spacing="normal"
         word-spacing="normal"><path
           style="fill:#000000;stroke-width:0"
           inkscape:connector-curvature="0"
           d="m 471.09,421.74 0.2,1.3 3.39,13.55 c 0.45,1.74 0.55,1.89 2.69,1.89 l 4.78,0 c 4.14,0 6.78,-1.35 6.78,-4.78 0,-1.95 -1,-6.23 -2.94,-8.02 -2.49,-2.25 -5.48,-2.64 -7.67,-2.64 l -7.03,0 -0.2,-1.3 8.47,0 c 7.08,0 14,5.18 14,10.76 0,3.84 -3.29,7.52 -9.81,7.52 l -16.14,0 c -0.95,0 -1.5,0 -1.5,-0.95 0,-0.59 0.45,-0.59 1.45,-0.59 0.64,0 1.54,-0.05 2.14,-0.1 0.8,-0.1 1.09,-0.25 1.09,-0.8 0,-0.2 -0.04,-0.35 -0.2,-0.94 l -6.67,-26.75 c -0.5,-1.95 -0.6,-2.35 -4.53,-2.35 -0.85,0 -1.4,0 -1.4,-0.94 0,-0.6 0.6,-0.6 0.75,-0.6 l 12.75,0 c 0.35,0 1,0 1,1 0,0.54 -0.45,0.54 -1.4,0.54 -1.84,0 -3.23,0 -3.23,0.9 0,0.3 0.1,0.55 0.14,0.85 z"
           id="path15457" /><path
           style="fill:#000000;stroke-width:0"
           inkscape:connector-curvature="0"
           d="m 499.3,420.79 0,0.06 -0.01,0.05 0,0.05 -0.01,0.06 -0.01,0.06 -0.02,0.05 -0.01,0.06 -0.02,0.06 -0.03,0.05 -0.02,0.06 -0.03,0.05 -0.03,0.06 -0.03,0.05 -0.03,0.05 -0.04,0.05 -0.04,0.05 -0.05,0.05 -0.04,0.05 -0.05,0.04 -0.06,0.05 -0.05,0.04 -0.06,0.03 -0.06,0.04 -0.07,0.03 -0.07,0.03 -0.07,0.02 -0.07,0.02 -0.08,0.02 -0.08,0.02 -0.08,0.01 -0.09,0 -0.09,0.01 c -0.94,0 -1.95,-0.91 -1.95,-1.92 0,-0.59 0.45,-1.32 1.39,-1.32 1.02,0 1.96,0.97 1.96,1.91 z"
           id="path15459" /><path
           style="fill:#000000;stroke-width:0"
           inkscape:connector-curvature="0"
           d="m 492.18,403.08 -0.05,-0.17 -0.05,-0.17 -0.03,-0.08 -0.03,-0.09 -0.02,-0.08 -0.03,-0.09 -0.02,-0.09 -0.02,-0.09 -0.01,-0.1 -0.02,-0.09 -0.01,-0.1 -0.01,-0.05 0,-0.05 0,-0.05 -0.01,-0.06 0,-0.05 0,-0.06 c 0,-1.63 1.4,-2.96 3.31,-2.96 3.49,0 5.02,4.81 5.02,5.33 0,0.46 -0.45,0.46 -0.56,0.46 -0.48,0 -0.52,-0.21 -0.66,-0.59 -0.8,-2.79 -2.33,-4.22 -3.69,-4.22 -0.7,0 -0.88,0.45 -0.88,1.22 0,0.8 0.25,1.46 0.56,2.23 0.35,0.94 0.74,1.88 1.12,2.79 0.31,0.84 1.57,4.01 1.71,4.43 0.1,0.34 0.21,0.77 0.21,1.11 0,1.64 -1.4,2.97 -3.31,2.97 -3.46,0 -5.06,-4.74 -5.06,-5.34 0,-0.45 0.49,-0.45 0.59,-0.45 0.49,0 0.52,0.17 0.63,0.56 0.91,2.99 2.44,4.25 3.73,4.25 0.56,0 0.87,-0.28 0.87,-1.22 0,-0.8 -0.21,-1.32 -1.08,-3.48 z"
           id="path15461" /><path
           style="fill:#000000;stroke-width:0"
           inkscape:connector-curvature="0"
           d="m 555.22,422.29 0.14,0 0.15,0 0.15,0.01 0.07,0 0.07,0 0.07,0.01 0.08,0.01 0.07,0.01 0.07,0.01 0.06,0.02 0.07,0.01 0.07,0.02 0.06,0.02 0.06,0.03 0.06,0.03 0.05,0.03 0.06,0.03 0.05,0.04 0.04,0.04 0.05,0.05 0.03,0.05 0.02,0.03 0.02,0.02 0.02,0.03 0.01,0.03 0.02,0.03 0.01,0.04 0.01,0.03 0.01,0.04 0.01,0.03 0.01,0.04 0.01,0.04 0,0.04 0.01,0.04 0,0.04 0,0.05 0,0.05 c 0,0.99 -0.94,0.99 -1.64,0.99 l -29.84,0 c -0.7,0 -1.64,0 -1.64,-0.99 0,-1 0.94,-1 1.69,-1 z"
           id="path15463" /><path
           style="fill:#000000;stroke-width:0"
           inkscape:connector-curvature="0"
           d="m 555.27,412.62 0.13,0.01 0.14,0 0.14,0 0.07,0.01 0.07,0 0.07,0.01 0.07,0.01 0.07,0.01 0.07,0.01 0.06,0.01 0.07,0.02 0.06,0.02 0.06,0.02 0.06,0.02 0.06,0.03 0.06,0.03 0.05,0.04 0.05,0.04 0.04,0.04 0.05,0.04 0.02,0.03 0.02,0.03 0.01,0.02 0.02,0.03 0.02,0.03 0.01,0.03 0.02,0.03 0.01,0.03 0.01,0.04 0.01,0.03 0.01,0.04 0.01,0.04 0.01,0.04 0,0.04 0.01,0.04 0,0.04 0,0.05 0,0.04 c 0,1 -0.94,1 -1.69,1 l -29.74,0 c -0.75,0 -1.69,0 -1.69,-1 0,-1 0.94,-1 1.64,-1 z"
           id="path15465" /><path
           style="fill:#000000;stroke-width:0"
           inkscape:connector-curvature="0"
           d="m 604.99,418.85 -1.24,0 c -0.55,-5.08 -1.25,-11.31 -10.02,-11.31 l -4.08,0 c -2.34,0 -2.44,0.35 -2.44,2 l 0,26.55 c 0,1.69 0,2.39 4.73,2.39 l 1.65,0 0,1.54 -15.94,0 0,-1.54 1.19,0 c 3.84,0 3.93,-0.55 3.93,-2.34 l 0,-26.25 c 0,-1.8 -0.09,-2.35 -3.93,-2.35 l -1.19,0 0,-1.54 25.95,0 z"
           id="path15467" /></g>    </g>
    <g
       id="g15695"
       transform="matrix(0.42092179,0,0,0.52392223,403.53347,148.45461)">
      <g
         word-spacing="normal"
         letter-spacing="normal"
         font-size-adjust="none"
         font-stretch="normal"
         font-weight="normal"
         font-variant="normal"
         font-style="normal"
         stroke-miterlimit="10.433"
         xml:space="preserve"
         transform="matrix(1.0629921,0,0,-1.0629921,-186.02362,789.27165)"
         id="g15697"
         style="font-style:normal;font-variant:normal;font-weight:normal;font-stretch:normal;letter-spacing:normal;word-spacing:normal;text-anchor:start;fill:none;fill-opacity:1;fill-rule:evenodd;stroke:#000000;stroke-linecap:butt;stroke-linejoin:miter;stroke-miterlimit:10.43299961;stroke-dasharray:none;stroke-dashoffset:0;stroke-opacity:1"><path
           id="path15699"
           d="m 471.09,421.74 0.2,1.3 3.39,13.55 c 0.45,1.74 0.55,1.89 2.69,1.89 l 4.78,0 c 4.14,0 6.78,-1.35 6.78,-4.78 0,-1.95 -1,-6.23 -2.94,-8.02 -2.49,-2.25 -5.48,-2.64 -7.67,-2.64 l -7.03,0 -0.2,-1.3 8.47,0 c 7.08,0 14,5.18 14,10.76 0,3.84 -3.29,7.52 -9.81,7.52 l -16.14,0 c -0.95,0 -1.5,0 -1.5,-0.95 0,-0.59 0.45,-0.59 1.45,-0.59 0.64,0 1.54,-0.05 2.14,-0.1 0.8,-0.1 1.09,-0.25 1.09,-0.8 0,-0.2 -0.04,-0.35 -0.2,-0.94 l -6.67,-26.75 c -0.5,-1.95 -0.6,-2.35 -4.53,-2.35 -0.85,0 -1.4,0 -1.4,-0.94 0,-0.6 0.6,-0.6 0.75,-0.6 l 12.75,0 c 0.35,0 1,0 1,1 0,0.54 -0.45,0.54 -1.4,0.54 -1.84,0 -3.23,0 -3.23,0.9 0,0.3 0.1,0.55 0.14,0.85 z"
           inkscape:connector-curvature="0"
           style="fill:#000000;stroke-width:0" /><path
           id="path15701"
           d="m 499.3,420.79 0,0.06 -0.01,0.05 0,0.05 -0.01,0.06 -0.01,0.06 -0.02,0.05 -0.01,0.06 -0.02,0.06 -0.03,0.05 -0.02,0.06 -0.03,0.05 -0.03,0.06 -0.03,0.05 -0.03,0.05 -0.04,0.05 -0.04,0.05 -0.05,0.05 -0.04,0.05 -0.05,0.04 -0.06,0.05 -0.05,0.04 -0.06,0.03 -0.06,0.04 -0.07,0.03 -0.07,0.03 -0.07,0.02 -0.07,0.02 -0.08,0.02 -0.08,0.02 -0.08,0.01 -0.09,0 -0.09,0.01 c -0.94,0 -1.95,-0.91 -1.95,-1.92 0,-0.59 0.45,-1.32 1.39,-1.32 1.02,0 1.96,0.97 1.96,1.91 z"
           inkscape:connector-curvature="0"
           style="fill:#000000;stroke-width:0" /><path
           id="path15703"
           d="m 492.18,403.08 -0.05,-0.17 -0.05,-0.17 -0.03,-0.08 -0.03,-0.09 -0.02,-0.08 -0.03,-0.09 -0.02,-0.09 -0.02,-0.09 -0.01,-0.1 -0.02,-0.09 -0.01,-0.1 -0.01,-0.05 0,-0.05 0,-0.05 -0.01,-0.06 0,-0.05 0,-0.06 c 0,-1.63 1.4,-2.96 3.31,-2.96 3.49,0 5.02,4.81 5.02,5.33 0,0.46 -0.45,0.46 -0.56,0.46 -0.48,0 -0.52,-0.21 -0.66,-0.59 -0.8,-2.79 -2.33,-4.22 -3.69,-4.22 -0.7,0 -0.88,0.45 -0.88,1.22 0,0.8 0.25,1.46 0.56,2.23 0.35,0.94 0.74,1.88 1.12,2.79 0.31,0.84 1.57,4.01 1.71,4.43 0.1,0.34 0.21,0.77 0.21,1.11 0,1.64 -1.4,2.97 -3.31,2.97 -3.46,0 -5.06,-4.74 -5.06,-5.34 0,-0.45 0.49,-0.45 0.59,-0.45 0.49,0 0.52,0.17 0.63,0.56 0.91,2.99 2.44,4.25 3.73,4.25 0.56,0 0.87,-0.28 0.87,-1.22 0,-0.8 -0.21,-1.32 -1.08,-3.48 z"
           inkscape:connector-curvature="0"
           style="fill:#000000;stroke-width:0" /><path
           id="path15705"
           d="m 555.22,422.29 0.14,0 0.15,0 0.15,0.01 0.07,0 0.07,0 0.07,0.01 0.08,0.01 0.07,0.01 0.07,0.01 0.06,0.02 0.07,0.01 0.07,0.02 0.06,0.02 0.06,0.03 0.06,0.03 0.05,0.03 0.06,0.03 0.05,0.04 0.04,0.04 0.05,0.05 0.03,0.05 0.02,0.03 0.02,0.02 0.02,0.03 0.01,0.03 0.02,0.03 0.01,0.04 0.01,0.03 0.01,0.04 0.01,0.03 0.01,0.04 0.01,0.04 0,0.04 0.01,0.04 0,0.04 0,0.05 0,0.05 c 0,0.99 -0.94,0.99 -1.64,0.99 l -29.84,0 c -0.7,0 -1.64,0 -1.64,-0.99 0,-1 0.94,-1 1.69,-1 z"
           inkscape:connector-curvature="0"
           style="fill:#000000;stroke-width:0" /><path
           id="path15707"
           d="m 555.27,412.62 0.13,0.01 0.14,0 0.14,0 0.07,0.01 0.07,0 0.07,0.01 0.07,0.01 0.07,0.01 0.07,0.01 0.06,0.01 0.07,0.02 0.06,0.02 0.06,0.02 0.06,0.02 0.06,0.03 0.06,0.03 0.05,0.04 0.05,0.04 0.04,0.04 0.05,0.04 0.02,0.03 0.02,0.03 0.01,0.02 0.02,0.03 0.02,0.03 0.01,0.03 0.02,0.03 0.01,0.03 0.01,0.04 0.01,0.03 0.01,0.04 0.01,0.04 0.01,0.04 0,0.04 0.01,0.04 0,0.04 0,0.05 0,0.04 c 0,1 -0.94,1 -1.69,1 l -29.74,0 c -0.75,0 -1.69,0 -1.69,-1 0,-1 0.94,-1 1.64,-1 z"
           inkscape:connector-curvature="0"
           style="fill:#000000;stroke-width:0" /><path
           id="path15709"
           d="m 597.67,422.94 0.45,0.12 0.44,0.12 0.44,0.14 0.43,0.15 0.42,0.16 0.42,0.17 0.4,0.18 0.4,0.18 0.39,0.2 0.37,0.21 0.37,0.21 0.35,0.23 0.34,0.23 0.33,0.24 0.32,0.25 0.3,0.26 0.29,0.26 0.27,0.28 0.26,0.28 0.24,0.29 0.23,0.29 0.21,0.3 0.19,0.31 0.17,0.32 0.16,0.32 0.14,0.33 0.11,0.33 0.1,0.34 0.08,0.35 0.05,0.35 0.04,0.35 0.01,0.36 c 0,4.79 -5.68,8.97 -13,8.97 l -15.65,0 0,-1.54 1.2,0 c 3.83,0 3.94,-0.55 3.94,-2.34 l 0,-26.25 c 0,-1.8 -0.11,-2.35 -3.94,-2.35 l -1.2,0 0,-1.54 14.55,0 0,1.54 -1.2,0 c -3.83,0 -3.93,0.55 -3.93,2.35 l 0,12.6 0,1.1 0,12.89 c 0,1.15 0,1.75 1.09,1.9 0.5,0.1 1.95,0.1 2.94,0.1 4.49,0 10.06,-0.2 10.06,-7.43 0,-3.43 -1.19,-7.46 -8.56,-7.46 l -5.53,0 0,-1.1 5.73,0 c 0.79,0 2.89,0 4.63,-1.7 1.89,-1.79 1.89,-3.33 1.89,-6.67 0,-3.24 0,-5.23 2.04,-7.12 2.05,-1.8 4.79,-2.1 6.28,-2.1 3.89,0 4.74,4.09 4.74,5.48 0,0.3 0,0.85 -0.65,0.85 -0.55,0 -0.55,-0.45 -0.6,-0.8 -0.3,-3.53 -2.04,-4.43 -3.29,-4.43 -2.44,0 -2.84,2.54 -3.53,7.17 l -0.65,3.99 c -0.9,3.19 -3.34,4.83 -6.08,5.78 z"
           inkscape:connector-curvature="0"
           style="fill:#000000;stroke-width:0" /></g>    </g>
    <path
       style="fill:none;fill-rule:evenodd;stroke:#0000ff;stroke-width:1.03680003;stroke-linecap:butt;stroke-linejoin:miter;stroke-miterlimit:4;stroke-dasharray:none;stroke-opacity:1;marker-end:url(#Arrow1Mend)"
       d="m 208.36975,287.59327 0,31.104"
       id="path15831"
       inkscape:connector-curvature="0" />
    <path
       inkscape:connector-curvature="0"
       id="use16005"
       d="m 562.3629,285.37156 0,31.104"
       style="fill:none;fill-rule:evenodd;stroke:#ff0000;stroke-width:1.03680003;stroke-linecap:butt;stroke-linejoin:miter;stroke-miterlimit:4;stroke-dasharray:none;stroke-opacity:1;marker-end:url(#marker16009)" />
  </g>
</svg>
