<?xml version="1.0" encoding="UTF-8" standalone="no"?>
<!-- Created with Inkscape (http://www.inkscape.org/) -->

<svg
   xmlns:dc="http://purl.org/dc/elements/1.1/"
   xmlns:cc="http://creativecommons.org/ns#"
   xmlns:rdf="http://www.w3.org/1999/02/22-rdf-syntax-ns#"
   xmlns:svg="http://www.w3.org/2000/svg"
   xmlns="http://www.w3.org/2000/svg"
   xmlns:sodipodi="http://sodipodi.sourceforge.net/DTD/sodipodi-0.dtd"
   xmlns:inkscape="http://www.inkscape.org/namespaces/inkscape"
   width="210mm"
   height="297mm"
   viewBox="0 0 744.09448819 1052.3622047"
   id="svg2"
   version="1.1"
   inkscape:version="0.91 r13725"
   sodipodi:docname="Pi.svg"
   inkscape:export-filename="/home/yusei/Documents/DNA/Pi.png"
   inkscape:export-xdpi="90"
   inkscape:export-ydpi="90">
  <sodipodi:namedview
     id="base"
     pagecolor="#ffffff"
     bordercolor="#666666"
     borderopacity="1.0"
     inkscape:pageopacity="0.0"
     inkscape:pageshadow="2"
     inkscape:zoom="2.8"
     inkscape:cx="446.59758"
     inkscape:cy="757.87863"
     inkscape:document-units="px"
     inkscape:current-layer="layer1"
     showgrid="true"
     inkscape:window-width="2495"
     inkscape:window-height="1056"
     inkscape:window-x="65"
     inkscape:window-y="24"
     inkscape:window-maximized="1">
    <inkscape:grid
       id="grid5297"
       type="xygrid" />
  </sodipodi:namedview>
  <defs
     id="defs4">
    <marker
       inkscape:isstock="true"
       style="overflow:visible;"
       id="marker16667"
       refX="0.0"
       refY="0.0"
       orient="auto"
       inkscape:stockid="Arrow1Lend">
      <path
         transform="scale(0.8) rotate(180) translate(12.5,0)"
         style="fill-rule:evenodd;stroke:#000000;stroke-width:1pt;stroke-opacity:1;fill:#000000;fill-opacity:1"
         d="M 0.0,0.0 L 5.0,-5.0 L -12.5,0.0 L 5.0,5.0 L 0.0,0.0 z "
         id="path16669" />
    </marker>
    <marker
       inkscape:stockid="Arrow1Lend"
       orient="auto"
       refY="0.0"
       refX="0.0"
       id="marker16625"
       style="overflow:visible;"
       inkscape:isstock="true">
      <path
         id="path16627"
         d="M 0.0,0.0 L 5.0,-5.0 L -12.5,0.0 L 5.0,5.0 L 0.0,0.0 z "
         style="fill-rule:evenodd;stroke:#000000;stroke-width:1pt;stroke-opacity:1;fill:#000000;fill-opacity:1"
         transform="scale(0.8) rotate(180) translate(12.5,0)" />
    </marker>
    <marker
       inkscape:isstock="true"
       style="overflow:visible;"
       id="marker16585"
       refX="0.0"
       refY="0.0"
       orient="auto"
       inkscape:stockid="Arrow1Lend"
       inkscape:collect="always">
      <path
         transform="scale(0.8) rotate(180) translate(12.5,0)"
         style="fill-rule:evenodd;stroke:#000000;stroke-width:1pt;stroke-opacity:1;fill:#000000;fill-opacity:1"
         d="M 0.0,0.0 L 5.0,-5.0 L -12.5,0.0 L 5.0,5.0 L 0.0,0.0 z "
         id="path16587" />
    </marker>
    <marker
       inkscape:stockid="Arrow1Mend"
       orient="auto"
       refY="0.0"
       refX="0.0"
       id="marker16009"
       style="overflow:visible;"
       inkscape:isstock="true">
      <path
         id="path16011"
         d="M 0.0,0.0 L 5.0,-5.0 L -12.5,0.0 L 5.0,5.0 L 0.0,0.0 z "
         style="fill-rule:evenodd;stroke:#ff0000;stroke-width:1pt;stroke-opacity:1;fill:#ff0000;fill-opacity:1"
         transform="scale(0.4) rotate(180) translate(10,0)" />
    </marker>
    <marker
       inkscape:isstock="true"
       style="overflow:visible;"
       id="marker15971"
       refX="0.0"
       refY="0.0"
       orient="auto"
       inkscape:stockid="Arrow1Mend">
      <path
         transform="scale(0.4) rotate(180) translate(10,0)"
         style="fill-rule:evenodd;stroke:#000000;stroke-width:1pt;stroke-opacity:1;fill:#000000;fill-opacity:1"
         d="M 0.0,0.0 L 5.0,-5.0 L -12.5,0.0 L 5.0,5.0 L 0.0,0.0 z "
         id="path15973" />
    </marker>
    <marker
       inkscape:stockid="Arrow1Lend"
       orient="auto"
       refY="0.0"
       refX="0.0"
       id="marker14349"
       style="overflow:visible;"
       inkscape:isstock="true"
       inkscape:collect="always">
      <path
         id="path14351"
         d="M 0.0,0.0 L 5.0,-5.0 L -12.5,0.0 L 5.0,5.0 L 0.0,0.0 z "
         style="fill-rule:evenodd;stroke:#000000;stroke-width:1pt;stroke-opacity:1;fill:#000000;fill-opacity:1"
         transform="scale(0.8) rotate(180) translate(12.5,0)" />
    </marker>
    <marker
       inkscape:isstock="true"
       style="overflow:visible;"
       id="Arrow1Mend"
       refX="0.0"
       refY="0.0"
       orient="auto"
       inkscape:stockid="Arrow1Mend"
       inkscape:collect="always">
      <path
         transform="scale(0.4) rotate(180) translate(10,0)"
         style="fill-rule:evenodd;stroke:#0000ff;stroke-width:1pt;stroke-opacity:1;fill:#0000ff;fill-opacity:1"
         d="M 0.0,0.0 L 5.0,-5.0 L -12.5,0.0 L 5.0,5.0 L 0.0,0.0 z "
         id="path12134" />
    </marker>
    <clipPath
       clipPathUnits="userSpaceOnUse"
       id="clipPath4171">
      <path
         d="M 0,0 612,0 612,792 0,792 0,0 Z"
         id="path4173"
         inkscape:connector-curvature="0" />
    </clipPath>
  </defs>
  <metadata
     id="metadata7">
    <rdf:RDF>
      <cc:Work
         rdf:about="">
        <dc:format>image/svg+xml</dc:format>
        <dc:type
           rdf:resource="http://purl.org/dc/dcmitype/StillImage" />
        <dc:title />
      </cc:Work>
    </rdf:RDF>
  </metadata>
  <g
     id="layer1"
     inkscape:groupmode="layer"
     inkscape:label="レイヤー 1">
    <path
       d="m 254.88502,266.59445 c 0,-0.58364 -0.47314,-1.05677 -1.05677,-1.05677 -0.58364,0 -1.05677,0.47313 -1.05677,1.05677 0,0.58363 0.47313,1.05677 1.05677,1.05677 0.58363,0 1.05677,-0.47314 1.05677,-1.05677 z"
       style="fill:#0000ff;fill-opacity:1;fill-rule:nonzero;stroke:#0000ff;stroke-width:0.298875;stroke-linecap:butt;stroke-linejoin:miter;stroke-miterlimit:10;stroke-dasharray:none;stroke-opacity:1"
       id="path4189"
       inkscape:connector-curvature="0" />
    <text
       y="276.21246"
       x="253.97301"
       style="font-variant:normal;font-weight:normal;font-size:8.96640015px;font-family:CMR12;-inkscape-font-specification:CMR12;writing-mode:lr-tb;fill:#000000;fill-opacity:1;fill-rule:nonzero;stroke:none"
       id="text4193">
      <tspan
         x="253.97301 258.36295 262.7529"
         y="276.21246"
         sodipodi:role="line"
         id="tspan4195">641</tspan>
    </text>
    <path
       d="m 265.51507,248.18262 c 0,-0.58365 -0.47313,-1.05678 -1.05678,-1.05678 -0.58364,0 -1.05679,0.47313 -1.05679,1.05678 0,0.58364 0.47315,1.05678 1.05679,1.05678 0.58365,0 1.05678,-0.47314 1.05678,-1.05678 z"
       style="fill:#000000;fill-opacity:1;fill-rule:nonzero;stroke:#000000;stroke-width:0.298875;stroke-linecap:butt;stroke-linejoin:miter;stroke-miterlimit:10;stroke-dasharray:none;stroke-opacity:1"
       id="path4199"
       inkscape:connector-curvature="0" />
    <text
       y="251.0717"
       x="267.38974"
       style="font-variant:normal;font-weight:normal;font-size:8.96640015px;font-family:CMR12;-inkscape-font-specification:CMR12;writing-mode:lr-tb;fill:#000000;fill-opacity:1;fill-rule:nonzero;stroke:none"
       id="text4203">
      <tspan
         x="267.38974 271.77969 276.16965"
         y="251.0717"
         sodipodi:role="line"
         id="tspan4205">642</tspan>
    </text>
    <path
       d="m 276.14513,229.77077 c 0,-0.58364 -0.47315,-1.05678 -1.05678,-1.05678 -0.58364,0 -1.05678,0.47314 -1.05678,1.05678 0,0.58365 0.47314,1.05678 1.05678,1.05678 0.58363,0 1.05678,-0.47313 1.05678,-1.05678 z"
       style="fill:#000000;fill-opacity:1;fill-rule:nonzero;stroke:#000000;stroke-width:0.298875;stroke-linecap:butt;stroke-linejoin:miter;stroke-miterlimit:10;stroke-dasharray:none;stroke-opacity:1"
       id="path4209"
       inkscape:connector-curvature="0" />
    <text
       y="225.93095"
       x="275.23251"
       style="font-variant:normal;font-weight:normal;font-size:8.96640015px;font-family:CMR12;-inkscape-font-specification:CMR12;writing-mode:lr-tb;fill:#000000;fill-opacity:1;fill-rule:nonzero;stroke:none"
       id="text4213">
      <tspan
         x="275.23251 279.62244 284.01239"
         y="225.93095"
         sodipodi:role="line"
         id="tspan4215">644</tspan>
    </text>
    <path
       d="m 276.14513,266.59445 c 0,-0.58364 -0.47315,-1.05677 -1.05678,-1.05677 -0.58364,0 -1.05678,0.47313 -1.05678,1.05677 0,0.58363 0.47314,1.05677 1.05678,1.05677 0.58363,0 1.05678,-0.47314 1.05678,-1.05677 z"
       style="fill:#0000ff;fill-opacity:1;fill-rule:nonzero;stroke:#0000ff;stroke-width:0.298875;stroke-linecap:butt;stroke-linejoin:miter;stroke-miterlimit:10;stroke-dasharray:none;stroke-opacity:1"
       id="path4219"
       inkscape:connector-curvature="0" />
    <text
       y="276.21246"
       x="275.23251"
       style="font-variant:normal;font-weight:normal;font-size:8.96640015px;font-family:CMR12;-inkscape-font-specification:CMR12;writing-mode:lr-tb;fill:#000000;fill-opacity:1;fill-rule:nonzero;stroke:none"
       id="text4223">
      <tspan
         x="275.23251 279.62244 284.01239"
         y="276.21246"
         sodipodi:role="line"
         id="tspan4225">648</tspan>
    </text>
    <path
       d="m 297.40524,266.59445 c 0,-0.58364 -0.47314,-1.05677 -1.05678,-1.05677 -0.58365,0 -1.05678,0.47313 -1.05678,1.05677 0,0.58363 0.47313,1.05677 1.05678,1.05677 0.58364,0 1.05678,-0.47314 1.05678,-1.05677 z"
       style="fill:#000000;fill-opacity:1;fill-rule:nonzero;stroke:#000000;stroke-width:0.298875;stroke-linecap:butt;stroke-linejoin:miter;stroke-miterlimit:10;stroke-dasharray:none;stroke-opacity:1"
       id="path4229"
       inkscape:connector-curvature="0" />
    <text
       y="276.21246"
       x="296.49274"
       style="font-variant:normal;font-weight:normal;font-size:8.96640015px;font-family:CMR12;-inkscape-font-specification:CMR12;writing-mode:lr-tb;fill:#000000;fill-opacity:1;fill-rule:nonzero;stroke:none"
       id="text4233">
      <tspan
         x="296.49274 300.88269 305.27264"
         y="276.21246"
         sodipodi:role="line"
         id="tspan4235">649</tspan>
    </text>
    <path
       d="m 318.66534,266.59445 c 0,-0.58364 -0.47313,-1.05677 -1.05678,-1.05677 -0.58363,0 -1.05678,0.47313 -1.05678,1.05677 0,0.58363 0.47315,1.05677 1.05678,1.05677 0.58365,0 1.05678,-0.47314 1.05678,-1.05677 z"
       style="fill:#000000;fill-opacity:1;fill-rule:nonzero;stroke:#000000;stroke-width:0.298875;stroke-linecap:butt;stroke-linejoin:miter;stroke-miterlimit:10;stroke-dasharray:none;stroke-opacity:1"
       id="path4239"
       inkscape:connector-curvature="0" />
    <text
       y="276.21246"
       x="317.75299"
       style="font-variant:normal;font-weight:normal;font-size:8.96640015px;font-family:CMR12;-inkscape-font-specification:CMR12;writing-mode:lr-tb;fill:#000000;fill-opacity:1;fill-rule:nonzero;stroke:none"
       id="text4243">
      <tspan
         x="317.75299 322.14294 326.5329"
         y="276.21246"
         sodipodi:role="line"
         id="tspan4245">650</tspan>
    </text>
    <path
       d="m 286.77518,248.18262 c 0,-0.58365 -0.47314,-1.05678 -1.05678,-1.05678 -0.58365,0 -1.05678,0.47313 -1.05678,1.05678 0,0.58364 0.47313,1.05678 1.05678,1.05678 0.58364,0 1.05678,-0.47314 1.05678,-1.05678 z"
       style="fill:#000000;fill-opacity:1;fill-rule:nonzero;stroke:#000000;stroke-width:0.298875;stroke-linecap:butt;stroke-linejoin:miter;stroke-miterlimit:10;stroke-dasharray:none;stroke-opacity:1"
       id="path4249"
       inkscape:connector-curvature="0" />
    <text
       y="247.0717"
       x="286.64999"
       style="font-variant:normal;font-weight:normal;font-size:8.96640015px;font-family:CMR12;-inkscape-font-specification:CMR12;writing-mode:lr-tb;fill:#000000;fill-opacity:1;fill-rule:nonzero;stroke:none"
       id="text4253">
      <tspan
         x="286.64999 291.03995 295.4299"
         y="247.0717"
         sodipodi:role="line"
         id="tspan4255">647</tspan>
    </text>
    <path
       d="m 308.03529,248.18262 c 0,-0.58365 -0.47314,-1.05678 -1.05679,-1.05678 -0.58364,0 -1.05678,0.47313 -1.05678,1.05678 0,0.58364 0.47314,1.05678 1.05678,1.05678 0.58365,0 1.05679,-0.47314 1.05679,-1.05678 z"
       style="fill:#000000;fill-opacity:1;fill-rule:nonzero;stroke:#000000;stroke-width:0.298875;stroke-linecap:butt;stroke-linejoin:miter;stroke-miterlimit:10;stroke-dasharray:none;stroke-opacity:1"
       id="path4259"
       inkscape:connector-curvature="0" />
    <text
       y="251.0717"
       x="309.91025"
       style="font-variant:normal;font-weight:normal;font-size:8.96640015px;font-family:CMR12;-inkscape-font-specification:CMR12;writing-mode:lr-tb;fill:#000000;fill-opacity:1;fill-rule:nonzero;stroke:none"
       id="text4263">
      <tspan
         x="309.91025 314.3002 318.69016"
         y="251.0717"
         sodipodi:role="line"
         id="tspan4265">646</tspan>
    </text>
    <path
       d="m 329.29543,248.18262 c 0,-0.58365 -0.47318,-1.05678 -1.05682,-1.05678 -0.58365,0 -1.05678,0.47313 -1.05678,1.05678 0,0.58364 0.47313,1.05678 1.05678,1.05678 0.58364,0 1.05682,-0.47314 1.05682,-1.05678 z"
       style="fill:#000000;fill-opacity:1;fill-rule:nonzero;stroke:#000000;stroke-width:0.298875;stroke-linecap:butt;stroke-linejoin:miter;stroke-miterlimit:10;stroke-dasharray:none;stroke-opacity:1"
       id="path4269"
       inkscape:connector-curvature="0" />
    <text
       y="251.0717"
       x="331.1705"
       style="font-variant:normal;font-weight:normal;font-size:8.96640015px;font-family:CMR12;-inkscape-font-specification:CMR12;writing-mode:lr-tb;fill:#000000;fill-opacity:1;fill-rule:nonzero;stroke:none"
       id="text4273">
      <tspan
         x="331.1705 335.56046 339.95041"
         y="251.0717"
         sodipodi:role="line"
         id="tspan4275">651</tspan>
    </text>
    <path
       d="m 254.88502,229.77077 c 0,-0.58364 -0.47314,-1.05678 -1.05677,-1.05678 -0.58364,0 -1.05677,0.47314 -1.05677,1.05678 0,0.58365 0.47313,1.05678 1.05677,1.05678 0.58363,0 1.05677,-0.47313 1.05677,-1.05678 z"
       style="fill:#000000;fill-opacity:1;fill-rule:nonzero;stroke:#000000;stroke-width:0.298875;stroke-linecap:butt;stroke-linejoin:miter;stroke-miterlimit:10;stroke-dasharray:none;stroke-opacity:1"
       id="path4279"
       inkscape:connector-curvature="0" />
    <text
       y="225.93095"
       x="253.97301"
       style="font-variant:normal;font-weight:normal;font-size:8.96640015px;font-family:CMR12;-inkscape-font-specification:CMR12;writing-mode:lr-tb;fill:#000000;fill-opacity:1;fill-rule:nonzero;stroke:none"
       id="text4283">
      <tspan
         x="253.97301 258.36295 262.7529"
         y="225.93095"
         sodipodi:role="line"
         id="tspan4285">643</tspan>
    </text>
    <path
       d="m 297.40524,229.77077 c 0,-0.58364 -0.47314,-1.05678 -1.05678,-1.05678 -0.58365,0 -1.05678,0.47314 -1.05678,1.05678 0,0.58365 0.47313,1.05678 1.05678,1.05678 0.58364,0 1.05678,-0.47313 1.05678,-1.05678 z"
       style="fill:#000000;fill-opacity:1;fill-rule:nonzero;stroke:#000000;stroke-width:0.298875;stroke-linecap:butt;stroke-linejoin:miter;stroke-miterlimit:10;stroke-dasharray:none;stroke-opacity:1"
       id="path4289"
       inkscape:connector-curvature="0" />
    <text
       y="225.93095"
       x="296.49274"
       style="font-variant:normal;font-weight:normal;font-size:8.96640015px;font-family:CMR12;-inkscape-font-specification:CMR12;writing-mode:lr-tb;fill:#000000;fill-opacity:1;fill-rule:nonzero;stroke:none"
       id="text4293">
      <tspan
         x="296.49274 300.88269 305.27264"
         y="225.93095"
         sodipodi:role="line"
         id="tspan4295">645</tspan>
    </text>
    <path
       d="m 318.66534,229.77077 c 0,-0.58364 -0.47313,-1.05678 -1.05678,-1.05678 -0.58363,0 -1.05678,0.47314 -1.05678,1.05678 0,0.58365 0.47315,1.05678 1.05678,1.05678 0.58365,0 1.05678,-0.47313 1.05678,-1.05678 z"
       style="fill:#000000;fill-opacity:1;fill-rule:nonzero;stroke:#000000;stroke-width:0.298875;stroke-linecap:butt;stroke-linejoin:miter;stroke-miterlimit:10;stroke-dasharray:none;stroke-opacity:1"
       id="path4299"
       inkscape:connector-curvature="0" />
    <text
       y="225.93095"
       x="317.75299"
       style="font-variant:normal;font-weight:normal;font-size:8.96640015px;font-family:CMR12;-inkscape-font-specification:CMR12;writing-mode:lr-tb;fill:#000000;fill-opacity:1;fill-rule:nonzero;stroke:none"
       id="text4303">
      <tspan
         x="317.75299 322.14294 326.5329"
         y="225.93095"
         sodipodi:role="line"
         id="tspan4305">652</tspan>
    </text>
    <path
       d="m 254.4333,265.54653 9.41995,-16.31598 m -10e-6,-2.09585 -9.41995,-16.316 m 0.60118,-1.04793 18.84766,0 m 2.41244,0 18.84766,0 m 1.81128,1.04793 9.41996,16.316 m -0.60119,1.04792 -18.84766,0 m -1.81128,1.04793 -9.41995,16.31598 m 0.60118,1.04792 18.84766,0 m 2.41245,0 18.84767,0 m 1.81128,-1.04792 9.41994,-16.31598 m -2e-5,-2.09585 -9.41994,-16.316"
       style="fill:none;stroke:#000000;stroke-width:1;stroke-linecap:butt;stroke-linejoin:miter;stroke-miterlimit:10;stroke-dasharray:none;stroke-opacity:1"
       id="path4309"
       inkscape:connector-curvature="0" />
    <path
       d="m 265.66451,248.18262 18.84767,0"
       style="fill:none;stroke:#ff0000;stroke-width:0.298875;stroke-linecap:butt;stroke-linejoin:miter;stroke-miterlimit:10;stroke-dasharray:0.298875, 1.4944125;stroke-dashoffset:0;stroke-opacity:1"
       id="path4313"
       inkscape:connector-curvature="0" />
    <path
       d="m 275.6934,230.8187 9.41995,16.316"
       style="fill:none;stroke:#ff0000;stroke-width:1;stroke-linecap:butt;stroke-linejoin:miter;stroke-miterlimit:10;stroke-dasharray:0.99999999,5.0001254;stroke-dashoffset:0;stroke-opacity:1"
       id="path4317"
       inkscape:connector-curvature="0" />
    <path
       d="m 255.03447,266.59445 18.84766,0"
       style="fill:none;stroke:#ff0000;stroke-width:1;stroke-linecap:butt;stroke-linejoin:miter;stroke-miterlimit:10;stroke-dasharray:0.99999999,5.0001254;stroke-dashoffset:0;stroke-opacity:1"
       id="path4321"
       inkscape:connector-curvature="0" />
    <path
       d="m 306.37345,249.23055 -9.41995,16.31598"
       style="fill:none;stroke:#ff0000;stroke-width:1;stroke-linecap:butt;stroke-linejoin:miter;stroke-miterlimit:10;stroke-dasharray:0.99999999,5.0001254;stroke-dashoffset:0;stroke-opacity:1"
       id="path4325"
       inkscape:connector-curvature="0" />
    <path
       d="m 316.40235,229.77077 -18.84767,0"
       style="fill:none;stroke:#ff0000;stroke-width:1;stroke-linecap:butt;stroke-linejoin:miter;stroke-miterlimit:10;stroke-dasharray:0.99999999,5.0001254;stroke-dashoffset:0;stroke-opacity:1"
       id="path4329"
       inkscape:connector-curvature="0" />
    <path
       d="m 426.86727,266.59445 c 0,-0.58364 -0.47313,-1.05677 -1.05677,-1.05677 -0.58364,0 -1.05677,0.47313 -1.05677,1.05677 0,0.58364 0.47313,1.05677 1.05677,1.05677 0.58364,0 1.05677,-0.47313 1.05677,-1.05677 z"
       style="fill:#ff0000;fill-opacity:1;fill-rule:nonzero;stroke:#ff0000;stroke-width:0.2988756;stroke-linecap:butt;stroke-linejoin:miter;stroke-miterlimit:10;stroke-dasharray:none;stroke-opacity:1"
       id="path4333"
       inkscape:connector-curvature="0" />
    <text
       y="276.21246"
       x="425.9552"
       style="font-variant:normal;font-weight:normal;font-size:8.96641827px;font-family:CMR12;-inkscape-font-specification:CMR12;writing-mode:lr-tb;fill:#000000;fill-opacity:1;fill-rule:nonzero;stroke:none"
       id="text4337">
      <tspan
         x="425.9552 430.34515 434.73511"
         y="276.21246"
         sodipodi:role="line"
         id="tspan4339">643</tspan>
    </text>
    <path
       d="m 437.49735,248.18259 c 0,-0.58365 -0.47314,-1.05679 -1.05679,-1.05679 -0.58364,0 -1.05679,0.47314 -1.05679,1.05679 0,0.58363 0.47315,1.05678 1.05679,1.05678 0.58365,0 1.05679,-0.47315 1.05679,-1.05678 z"
       style="fill:#000000;fill-opacity:1;fill-rule:nonzero;stroke:#000000;stroke-width:0.2988756;stroke-linecap:butt;stroke-linejoin:miter;stroke-miterlimit:10;stroke-dasharray:none;stroke-opacity:1"
       id="path4343"
       inkscape:connector-curvature="0" />
    <text
       y="251.0717"
       x="439.37195"
       style="font-variant:normal;font-weight:normal;font-size:8.96641827px;font-family:CMR12;-inkscape-font-specification:CMR12;writing-mode:lr-tb;fill:#000000;fill-opacity:1;fill-rule:nonzero;stroke:none"
       id="text4347">
      <tspan
         x="439.37195 443.7619 448.15186"
         y="251.0717"
         sodipodi:role="line"
         id="tspan4349">642</tspan>
    </text>
    <path
       d="m 448.12742,229.7707 c 0,-0.58364 -0.47314,-1.05679 -1.05678,-1.05679 -0.58363,0 -1.05678,0.47315 -1.05678,1.05679 0,0.58365 0.47315,1.05678 1.05678,1.05678 0.58364,0 1.05678,-0.47313 1.05678,-1.05678 z"
       style="fill:#000000;fill-opacity:1;fill-rule:nonzero;stroke:#000000;stroke-width:0.2988756;stroke-linecap:butt;stroke-linejoin:miter;stroke-miterlimit:10;stroke-dasharray:none;stroke-opacity:1"
       id="path4353"
       inkscape:connector-curvature="0" />
    <text
       y="225.93082"
       x="447.21469"
       style="font-variant:normal;font-weight:normal;font-size:8.96641827px;font-family:CMR12;-inkscape-font-specification:CMR12;writing-mode:lr-tb;fill:#000000;fill-opacity:1;fill-rule:nonzero;stroke:none"
       id="text4357">
      <tspan
         x="447.21469 451.60464 455.9946"
         y="225.93082"
         sodipodi:role="line"
         id="tspan4359">646</tspan>
    </text>
    <path
       d="m 448.12742,266.59445 c 0,-0.58364 -0.47314,-1.05677 -1.05678,-1.05677 -0.58363,0 -1.05678,0.47313 -1.05678,1.05677 0,0.58364 0.47315,1.05677 1.05678,1.05677 0.58364,0 1.05678,-0.47313 1.05678,-1.05677 z"
       style="fill:#ff0000;fill-opacity:1;fill-rule:nonzero;stroke:#ff0000;stroke-width:0.2988756;stroke-linecap:butt;stroke-linejoin:miter;stroke-miterlimit:10;stroke-dasharray:none;stroke-opacity:1"
       id="path4363"
       inkscape:connector-curvature="0" />
    <text
       y="276.21246"
       x="447.21469"
       style="font-variant:normal;font-weight:normal;font-size:8.96641827px;font-family:CMR12;-inkscape-font-specification:CMR12;writing-mode:lr-tb;fill:#000000;fill-opacity:1;fill-rule:nonzero;stroke:none"
       id="text4367">
      <tspan
         x="447.21469 451.60464 455.9946"
         y="276.21246"
         sodipodi:role="line"
         id="tspan4369">644</tspan>
    </text>
    <path
       d="m 469.38757,266.59445 c 0,-0.58364 -0.47313,-1.05677 -1.05677,-1.05677 -0.58365,0 -1.05678,0.47313 -1.05678,1.05677 0,0.58364 0.47313,1.05677 1.05678,1.05677 0.58364,0 1.05677,-0.47313 1.05677,-1.05677 z"
       style="fill:#000000;fill-opacity:1;fill-rule:nonzero;stroke:#000000;stroke-width:0.2988756;stroke-linecap:butt;stroke-linejoin:miter;stroke-miterlimit:10;stroke-dasharray:none;stroke-opacity:1"
       id="path4373"
       inkscape:connector-curvature="0" />
    <text
       y="276.21246"
       x="468.4751"
       style="font-variant:normal;font-weight:normal;font-size:8.96641827px;font-family:CMR12;-inkscape-font-specification:CMR12;writing-mode:lr-tb;fill:#000000;fill-opacity:1;fill-rule:nonzero;stroke:none"
       id="text4377">
      <tspan
         x="468.4751 472.86505 477.255"
         y="276.21246"
         sodipodi:role="line"
         id="tspan4379">649</tspan>
    </text>
    <path
       d="m 490.64772,266.59445 c 0,-0.58364 -0.47313,-1.05677 -1.05678,-1.05677 -0.58363,0 -1.05678,0.47313 -1.05678,1.05677 0,0.58364 0.47315,1.05677 1.05678,1.05677 0.58365,0 1.05678,-0.47313 1.05678,-1.05677 z"
       style="fill:#000000;fill-opacity:1;fill-rule:nonzero;stroke:#000000;stroke-width:0.2988756;stroke-linecap:butt;stroke-linejoin:miter;stroke-miterlimit:10;stroke-dasharray:none;stroke-opacity:1"
       id="path4383"
       inkscape:connector-curvature="0" />
    <text
       y="276.21246"
       x="489.73529"
       style="font-variant:normal;font-weight:normal;font-size:8.96641827px;font-family:CMR12;-inkscape-font-specification:CMR12;writing-mode:lr-tb;fill:#000000;fill-opacity:1;fill-rule:nonzero;stroke:none"
       id="text4387">
      <tspan
         x="489.73529 494.12531 498.51526"
         y="276.21246"
         sodipodi:role="line"
         id="tspan4389">650</tspan>
    </text>
    <path
       d="m 458.7575,248.18259 c 0,-0.58365 -0.47314,-1.05679 -1.05679,-1.05679 -0.58365,0 -1.05678,0.47314 -1.05678,1.05679 0,0.58363 0.47313,1.05678 1.05678,1.05678 0.58365,0 1.05679,-0.47315 1.05679,-1.05678 z"
       style="fill:#000000;fill-opacity:1;fill-rule:nonzero;stroke:#000000;stroke-width:0.2988756;stroke-linecap:butt;stroke-linejoin:miter;stroke-miterlimit:10;stroke-dasharray:none;stroke-opacity:1"
       id="path4393"
       inkscape:connector-curvature="0" />
    <text
       y="251.0717"
       x="460.63232"
       style="font-variant:normal;font-weight:normal;font-size:8.96641827px;font-family:CMR12;-inkscape-font-specification:CMR12;writing-mode:lr-tb;fill:#000000;fill-opacity:1;fill-rule:nonzero;stroke:none"
       id="text4397">
      <tspan
         x="460.63232 465.02228 469.41223"
         y="251.0717"
         sodipodi:role="line"
         id="tspan4399">645</tspan>
    </text>
    <path
       d="m 480.01765,248.18259 c 0,-0.58365 -0.47314,-1.05679 -1.05679,-1.05679 -0.58364,0 -1.05679,0.47314 -1.05679,1.05679 0,0.58363 0.47315,1.05678 1.05679,1.05678 0.58365,0 1.05679,-0.47315 1.05679,-1.05678 z"
       style="fill:#000000;fill-opacity:1;fill-rule:nonzero;stroke:#000000;stroke-width:0.2988756;stroke-linecap:butt;stroke-linejoin:miter;stroke-miterlimit:10;stroke-dasharray:none;stroke-opacity:1"
       id="path4403"
       inkscape:connector-curvature="0" />
    <text
       y="251.0717"
       x="481.89258"
       style="font-variant:normal;font-weight:normal;font-size:8.96641827px;font-family:CMR12;-inkscape-font-specification:CMR12;writing-mode:lr-tb;fill:#000000;fill-opacity:1;fill-rule:nonzero;stroke:none"
       id="text4407">
      <tspan
         x="481.89258 486.28253 490.67249"
         y="251.0717"
         sodipodi:role="line"
         id="tspan4409">648</tspan>
    </text>
    <path
       d="m 501.27783,248.18259 c 0,-0.58365 -0.47318,-1.05679 -1.05682,-1.05679 -0.58365,0 -1.05678,0.47314 -1.05678,1.05679 0,0.58363 0.47313,1.05678 1.05678,1.05678 0.58364,0 1.05682,-0.47315 1.05682,-1.05678 z"
       style="fill:#000000;fill-opacity:1;fill-rule:nonzero;stroke:#000000;stroke-width:0.2988756;stroke-linecap:butt;stroke-linejoin:miter;stroke-miterlimit:10;stroke-dasharray:none;stroke-opacity:1"
       id="path4413"
       inkscape:connector-curvature="0" />
    <text
       y="251.0717"
       x="503.15283"
       style="font-variant:normal;font-weight:normal;font-size:8.96641827px;font-family:CMR12;-inkscape-font-specification:CMR12;writing-mode:lr-tb;fill:#000000;fill-opacity:1;fill-rule:nonzero;stroke:none"
       id="text4417">
      <tspan
         x="503.15283 507.54279 511.93274"
         y="251.0717"
         sodipodi:role="line"
         id="tspan4419">651</tspan>
    </text>
    <path
       d="m 426.86727,229.7707 c 0,-0.58364 -0.47313,-1.05679 -1.05677,-1.05679 -0.58364,0 -1.05677,0.47315 -1.05677,1.05679 0,0.58365 0.47313,1.05678 1.05677,1.05678 0.58364,0 1.05677,-0.47313 1.05677,-1.05678 z"
       style="fill:#000000;fill-opacity:1;fill-rule:nonzero;stroke:#000000;stroke-width:0.2988756;stroke-linecap:butt;stroke-linejoin:miter;stroke-miterlimit:10;stroke-dasharray:none;stroke-opacity:1"
       id="path4423"
       inkscape:connector-curvature="0" />
    <text
       y="225.93082"
       x="425.9552"
       style="font-variant:normal;font-weight:normal;font-size:8.96641827px;font-family:CMR12;-inkscape-font-specification:CMR12;writing-mode:lr-tb;fill:#000000;fill-opacity:1;fill-rule:nonzero;stroke:none"
       id="text4427">
      <tspan
         x="425.9552 430.34515 434.73511"
         y="225.93082"
         sodipodi:role="line"
         id="tspan4429">641</tspan>
    </text>
    <path
       d="m 469.38757,229.7707 c 0,-0.58364 -0.47313,-1.05679 -1.05677,-1.05679 -0.58365,0 -1.05678,0.47315 -1.05678,1.05679 0,0.58365 0.47313,1.05678 1.05678,1.05678 0.58364,0 1.05677,-0.47313 1.05677,-1.05678 z"
       style="fill:#000000;fill-opacity:1;fill-rule:nonzero;stroke:#000000;stroke-width:0.2988756;stroke-linecap:butt;stroke-linejoin:miter;stroke-miterlimit:10;stroke-dasharray:none;stroke-opacity:1"
       id="path4433"
       inkscape:connector-curvature="0" />
    <text
       y="225.93082"
       x="468.4751"
       style="font-variant:normal;font-weight:normal;font-size:8.96641827px;font-family:CMR12;-inkscape-font-specification:CMR12;writing-mode:lr-tb;fill:#000000;fill-opacity:1;fill-rule:nonzero;stroke:none"
       id="text4437">
      <tspan
         x="468.4751 472.86505 477.255"
         y="225.93082"
         sodipodi:role="line"
         id="tspan4439">647</tspan>
    </text>
    <path
       d="m 490.64772,229.7707 c 0,-0.58364 -0.47313,-1.05679 -1.05678,-1.05679 -0.58363,0 -1.05678,0.47315 -1.05678,1.05679 0,0.58365 0.47315,1.05678 1.05678,1.05678 0.58365,0 1.05678,-0.47313 1.05678,-1.05678 z"
       style="fill:#000000;fill-opacity:1;fill-rule:nonzero;stroke:#000000;stroke-width:0.2988756;stroke-linecap:butt;stroke-linejoin:miter;stroke-miterlimit:10;stroke-dasharray:none;stroke-opacity:1"
       id="path4443"
       inkscape:connector-curvature="0" />
    <text
       y="225.93082"
       x="489.73529"
       style="font-variant:normal;font-weight:normal;font-size:8.96641827px;font-family:CMR12;-inkscape-font-specification:CMR12;writing-mode:lr-tb;fill:#000000;fill-opacity:1;fill-rule:nonzero;stroke:none"
       id="text4447">
      <tspan
         x="489.73529 494.12531 498.51526"
         y="225.93082"
         sodipodi:role="line"
         id="tspan4449">652</tspan>
    </text>
    <path
       d="m 426.41555,230.81863 9.41997,16.31603 m -10e-6,2.09585 -9.41997,16.31602 m 0.60118,1.04792 18.8477,0 m 1.81127,-1.04792 9.41998,-16.31602 m -10e-6,-2.09585 -9.41998,-16.31603 m 0.60119,-1.04793 18.8477,0 m 1.81128,1.04793 9.41997,16.31603 m -10e-6,2.09585 -9.41997,16.31602 m 0.60118,1.04792 18.8477,0 m 1.81129,-1.04792 9.41996,-16.31602 m -2e-5,-2.09585 -9.41996,-16.31603"
       style="fill:none;stroke:#000000;stroke-width:1;stroke-linecap:butt;stroke-linejoin:miter;stroke-miterlimit:10;stroke-dasharray:none;stroke-opacity:1"
       id="path4453"
       inkscape:connector-curvature="0" />
    <path
       d="m 427.01672,229.7707 18.8477,0"
       style="fill:none;stroke:#ff0000;stroke-width:1;stroke-linecap:butt;stroke-linejoin:miter;stroke-miterlimit:10;stroke-dasharray:0.99999999, 5.0001254;stroke-dashoffset:0;stroke-opacity:1"
       id="path4457"
       inkscape:connector-curvature="0" />
    <path
       d="m 448.27687,266.59445 18.8477,0"
       style="fill:none;stroke:#ff0000;stroke-width:1;stroke-linecap:butt;stroke-linejoin:miter;stroke-miterlimit:10;stroke-dasharray:0.99999999, 5.0001254;stroke-dashoffset:0;stroke-opacity:1"
       id="path4461"
       inkscape:connector-curvature="0" />
    <path
       d="m 469.53702,229.7707 18.8477,0"
       style="fill:none;stroke:#ff0000;stroke-width:1;stroke-linecap:butt;stroke-linejoin:miter;stroke-miterlimit:10;stroke-dasharray:0.99999999, 5.0001254;stroke-dashoffset:0;stroke-opacity:1"
       id="path4465"
       inkscape:connector-curvature="0" />
    <path
       inkscape:connector-curvature="0"
       id="path12115"
       d="m 250,272.3622 0,5 85,0 0,-5 0,0"
       style="fill:none;fill-rule:evenodd;stroke:#000000;stroke-width:1px;stroke-linecap:butt;stroke-linejoin:miter;stroke-opacity:1" />
    <path
       inkscape:connector-curvature="0"
       id="path12117"
       d="m 420,272.3622 0,5 90,0 0,-5"
       style="fill:none;fill-rule:evenodd;stroke:#000000;stroke-width:1px;stroke-linecap:butt;stroke-linejoin:miter;stroke-opacity:1" />
    <path
       inkscape:connector-curvature="0"
       id="path12119"
       d="m 236,267.3622 15,0 0,0"
       style="fill:none;fill-rule:evenodd;stroke:#000000;stroke-width:0.5;stroke-linecap:butt;stroke-linejoin:miter;stroke-miterlimit:4;stroke-dasharray:none;stroke-opacity:1;marker-end:url(#marker16585)" />
    <path
       style="fill:none;fill-rule:evenodd;stroke:#000000;stroke-width:0.5;stroke-linecap:butt;stroke-linejoin:miter;stroke-miterlimit:4;stroke-dasharray:none;stroke-opacity:1;marker-end:url(#marker16667)"
       d="m 407.78571,230.21934 15,0 0,0"
       id="use12559"
       inkscape:connector-curvature="0" />
    <path
       inkscape:connector-curvature="0"
       id="use13671"
       d="m 318.64285,229.8622 15,0 0,0"
       style="fill:none;fill-rule:evenodd;stroke:#000000;stroke-width:0.5;stroke-linecap:butt;stroke-linejoin:miter;stroke-miterlimit:4;stroke-dasharray:none;stroke-opacity:1;marker-end:url(#marker14349)" />
    <path
       style="fill:none;fill-rule:evenodd;stroke:#000000;stroke-width:0.5;stroke-linecap:butt;stroke-linejoin:miter;stroke-miterlimit:4;stroke-dasharray:none;stroke-opacity:1;marker-end:url(#marker16625)"
       d="m 491.49999,229.8622 15,0 0,0"
       id="use14345"
       inkscape:connector-curvature="0" />
    <g
       transform="matrix(0.15998991,0,0,0.18191743,235.18858,229.73151)"
       id="g15454">
      <g
         style="font-style:normal;font-variant:normal;font-weight:normal;font-stretch:normal;letter-spacing:normal;word-spacing:normal;text-anchor:start;fill:none;fill-opacity:1;fill-rule:evenodd;stroke:#000000;stroke-linecap:butt;stroke-linejoin:miter;stroke-miterlimit:10.43299961;stroke-dasharray:none;stroke-dashoffset:0;stroke-opacity:1"
         id="content"
         transform="matrix(1.0629921,0,0,-1.0629921,-186.02362,789.27165)"
         xml:space="preserve"
         stroke-miterlimit="10.433"
         font-style="normal"
         font-variant="normal"
         font-weight="normal"
         font-stretch="normal"
         font-size-adjust="none"
         letter-spacing="normal"
         word-spacing="normal"><path
           style="fill:#000000;stroke-width:0"
           inkscape:connector-curvature="0"
           d="m 471.09,421.74 0.2,1.3 3.39,13.55 c 0.45,1.74 0.55,1.89 2.69,1.89 l 4.78,0 c 4.14,0 6.78,-1.35 6.78,-4.78 0,-1.95 -1,-6.23 -2.94,-8.02 -2.49,-2.25 -5.48,-2.64 -7.67,-2.64 l -7.03,0 -0.2,-1.3 8.47,0 c 7.08,0 14,5.18 14,10.76 0,3.84 -3.29,7.52 -9.81,7.52 l -16.14,0 c -0.95,0 -1.5,0 -1.5,-0.95 0,-0.59 0.45,-0.59 1.45,-0.59 0.64,0 1.54,-0.05 2.14,-0.1 0.8,-0.1 1.09,-0.25 1.09,-0.8 0,-0.2 -0.04,-0.35 -0.2,-0.94 l -6.67,-26.75 c -0.5,-1.95 -0.6,-2.35 -4.53,-2.35 -0.85,0 -1.4,0 -1.4,-0.94 0,-0.6 0.6,-0.6 0.75,-0.6 l 12.75,0 c 0.35,0 1,0 1,1 0,0.54 -0.45,0.54 -1.4,0.54 -1.84,0 -3.23,0 -3.23,0.9 0,0.3 0.1,0.55 0.14,0.85 z"
           id="path15457" /><path
           style="fill:#000000;stroke-width:0"
           inkscape:connector-curvature="0"
           d="m 499.3,420.79 0,0.06 -0.01,0.05 0,0.05 -0.01,0.06 -0.01,0.06 -0.02,0.05 -0.01,0.06 -0.02,0.06 -0.03,0.05 -0.02,0.06 -0.03,0.05 -0.03,0.06 -0.03,0.05 -0.03,0.05 -0.04,0.05 -0.04,0.05 -0.05,0.05 -0.04,0.05 -0.05,0.04 -0.06,0.05 -0.05,0.04 -0.06,0.03 -0.06,0.04 -0.07,0.03 -0.07,0.03 -0.07,0.02 -0.07,0.02 -0.08,0.02 -0.08,0.02 -0.08,0.01 -0.09,0 -0.09,0.01 c -0.94,0 -1.95,-0.91 -1.95,-1.92 0,-0.59 0.45,-1.32 1.39,-1.32 1.02,0 1.96,0.97 1.96,1.91 z"
           id="path15459" /><path
           style="fill:#000000;stroke-width:0"
           inkscape:connector-curvature="0"
           d="m 492.18,403.08 -0.05,-0.17 -0.05,-0.17 -0.03,-0.08 -0.03,-0.09 -0.02,-0.08 -0.03,-0.09 -0.02,-0.09 -0.02,-0.09 -0.01,-0.1 -0.02,-0.09 -0.01,-0.1 -0.01,-0.05 0,-0.05 0,-0.05 -0.01,-0.06 0,-0.05 0,-0.06 c 0,-1.63 1.4,-2.96 3.31,-2.96 3.49,0 5.02,4.81 5.02,5.33 0,0.46 -0.45,0.46 -0.56,0.46 -0.48,0 -0.52,-0.21 -0.66,-0.59 -0.8,-2.79 -2.33,-4.22 -3.69,-4.22 -0.7,0 -0.88,0.45 -0.88,1.22 0,0.8 0.25,1.46 0.56,2.23 0.35,0.94 0.74,1.88 1.12,2.79 0.31,0.84 1.57,4.01 1.71,4.43 0.1,0.34 0.21,0.77 0.21,1.11 0,1.64 -1.4,2.97 -3.31,2.97 -3.46,0 -5.06,-4.74 -5.06,-5.34 0,-0.45 0.49,-0.45 0.59,-0.45 0.49,0 0.52,0.17 0.63,0.56 0.91,2.99 2.44,4.25 3.73,4.25 0.56,0 0.87,-0.28 0.87,-1.22 0,-0.8 -0.21,-1.32 -1.08,-3.48 z"
           id="path15461" /><path
           style="fill:#000000;stroke-width:0"
           inkscape:connector-curvature="0"
           d="m 555.22,422.29 0.14,0 0.15,0 0.15,0.01 0.07,0 0.07,0 0.07,0.01 0.08,0.01 0.07,0.01 0.07,0.01 0.06,0.02 0.07,0.01 0.07,0.02 0.06,0.02 0.06,0.03 0.06,0.03 0.05,0.03 0.06,0.03 0.05,0.04 0.04,0.04 0.05,0.05 0.03,0.05 0.02,0.03 0.02,0.02 0.02,0.03 0.01,0.03 0.02,0.03 0.01,0.04 0.01,0.03 0.01,0.04 0.01,0.03 0.01,0.04 0.01,0.04 0,0.04 0.01,0.04 0,0.04 0,0.05 0,0.05 c 0,0.99 -0.94,0.99 -1.64,0.99 l -29.84,0 c -0.7,0 -1.64,0 -1.64,-0.99 0,-1 0.94,-1 1.69,-1 z"
           id="path15463" /><path
           style="fill:#000000;stroke-width:0"
           inkscape:connector-curvature="0"
           d="m 555.27,412.62 0.13,0.01 0.14,0 0.14,0 0.07,0.01 0.07,0 0.07,0.01 0.07,0.01 0.07,0.01 0.07,0.01 0.06,0.01 0.07,0.02 0.06,0.02 0.06,0.02 0.06,0.02 0.06,0.03 0.06,0.03 0.05,0.04 0.05,0.04 0.04,0.04 0.05,0.04 0.02,0.03 0.02,0.03 0.01,0.02 0.02,0.03 0.02,0.03 0.01,0.03 0.02,0.03 0.01,0.03 0.01,0.04 0.01,0.03 0.01,0.04 0.01,0.04 0.01,0.04 0,0.04 0.01,0.04 0,0.04 0,0.05 0,0.04 c 0,1 -0.94,1 -1.69,1 l -29.74,0 c -0.75,0 -1.69,0 -1.69,-1 0,-1 0.94,-1 1.64,-1 z"
           id="path15465" /><path
           style="fill:#000000;stroke-width:0"
           inkscape:connector-curvature="0"
           d="m 604.99,418.85 -1.24,0 c -0.55,-5.08 -1.25,-11.31 -10.02,-11.31 l -4.08,0 c -2.34,0 -2.44,0.35 -2.44,2 l 0,26.55 c 0,1.69 0,2.39 4.73,2.39 l 1.65,0 0,1.54 -15.94,0 0,-1.54 1.19,0 c 3.84,0 3.93,-0.55 3.93,-2.34 l 0,-26.25 c 0,-1.8 -0.09,-2.35 -3.93,-2.35 l -1.19,0 0,-1.54 25.95,0 z"
           id="path15467" /></g>    </g>
    <g
       id="g15695"
       transform="matrix(0.15224311,0,0,0.18191738,407.16182,229.7315)">
      <g
         word-spacing="normal"
         letter-spacing="normal"
         font-size-adjust="none"
         font-stretch="normal"
         font-weight="normal"
         font-variant="normal"
         font-style="normal"
         stroke-miterlimit="10.433"
         xml:space="preserve"
         transform="matrix(1.0629921,0,0,-1.0629921,-186.02362,789.27165)"
         id="g15697"
         style="font-style:normal;font-variant:normal;font-weight:normal;font-stretch:normal;letter-spacing:normal;word-spacing:normal;text-anchor:start;fill:none;fill-opacity:1;fill-rule:evenodd;stroke:#000000;stroke-linecap:butt;stroke-linejoin:miter;stroke-miterlimit:10.43299961;stroke-dasharray:none;stroke-dashoffset:0;stroke-opacity:1"><path
           id="path15699"
           d="m 471.09,421.74 0.2,1.3 3.39,13.55 c 0.45,1.74 0.55,1.89 2.69,1.89 l 4.78,0 c 4.14,0 6.78,-1.35 6.78,-4.78 0,-1.95 -1,-6.23 -2.94,-8.02 -2.49,-2.25 -5.48,-2.64 -7.67,-2.64 l -7.03,0 -0.2,-1.3 8.47,0 c 7.08,0 14,5.18 14,10.76 0,3.84 -3.29,7.52 -9.81,7.52 l -16.14,0 c -0.95,0 -1.5,0 -1.5,-0.95 0,-0.59 0.45,-0.59 1.45,-0.59 0.64,0 1.54,-0.05 2.14,-0.1 0.8,-0.1 1.09,-0.25 1.09,-0.8 0,-0.2 -0.04,-0.35 -0.2,-0.94 l -6.67,-26.75 c -0.5,-1.95 -0.6,-2.35 -4.53,-2.35 -0.85,0 -1.4,0 -1.4,-0.94 0,-0.6 0.6,-0.6 0.75,-0.6 l 12.75,0 c 0.35,0 1,0 1,1 0,0.54 -0.45,0.54 -1.4,0.54 -1.84,0 -3.23,0 -3.23,0.9 0,0.3 0.1,0.55 0.14,0.85 z"
           inkscape:connector-curvature="0"
           style="fill:#000000;stroke-width:0" /><path
           id="path15701"
           d="m 499.3,420.79 0,0.06 -0.01,0.05 0,0.05 -0.01,0.06 -0.01,0.06 -0.02,0.05 -0.01,0.06 -0.02,0.06 -0.03,0.05 -0.02,0.06 -0.03,0.05 -0.03,0.06 -0.03,0.05 -0.03,0.05 -0.04,0.05 -0.04,0.05 -0.05,0.05 -0.04,0.05 -0.05,0.04 -0.06,0.05 -0.05,0.04 -0.06,0.03 -0.06,0.04 -0.07,0.03 -0.07,0.03 -0.07,0.02 -0.07,0.02 -0.08,0.02 -0.08,0.02 -0.08,0.01 -0.09,0 -0.09,0.01 c -0.94,0 -1.95,-0.91 -1.95,-1.92 0,-0.59 0.45,-1.32 1.39,-1.32 1.02,0 1.96,0.97 1.96,1.91 z"
           inkscape:connector-curvature="0"
           style="fill:#000000;stroke-width:0" /><path
           id="path15703"
           d="m 492.18,403.08 -0.05,-0.17 -0.05,-0.17 -0.03,-0.08 -0.03,-0.09 -0.02,-0.08 -0.03,-0.09 -0.02,-0.09 -0.02,-0.09 -0.01,-0.1 -0.02,-0.09 -0.01,-0.1 -0.01,-0.05 0,-0.05 0,-0.05 -0.01,-0.06 0,-0.05 0,-0.06 c 0,-1.63 1.4,-2.96 3.31,-2.96 3.49,0 5.02,4.81 5.02,5.33 0,0.46 -0.45,0.46 -0.56,0.46 -0.48,0 -0.52,-0.21 -0.66,-0.59 -0.8,-2.79 -2.33,-4.22 -3.69,-4.22 -0.7,0 -0.88,0.45 -0.88,1.22 0,0.8 0.25,1.46 0.56,2.23 0.35,0.94 0.74,1.88 1.12,2.79 0.31,0.84 1.57,4.01 1.71,4.43 0.1,0.34 0.21,0.77 0.21,1.11 0,1.64 -1.4,2.97 -3.31,2.97 -3.46,0 -5.06,-4.74 -5.06,-5.34 0,-0.45 0.49,-0.45 0.59,-0.45 0.49,0 0.52,0.17 0.63,0.56 0.91,2.99 2.44,4.25 3.73,4.25 0.56,0 0.87,-0.28 0.87,-1.22 0,-0.8 -0.21,-1.32 -1.08,-3.48 z"
           inkscape:connector-curvature="0"
           style="fill:#000000;stroke-width:0" /><path
           id="path15705"
           d="m 555.22,422.29 0.14,0 0.15,0 0.15,0.01 0.07,0 0.07,0 0.07,0.01 0.08,0.01 0.07,0.01 0.07,0.01 0.06,0.02 0.07,0.01 0.07,0.02 0.06,0.02 0.06,0.03 0.06,0.03 0.05,0.03 0.06,0.03 0.05,0.04 0.04,0.04 0.05,0.05 0.03,0.05 0.02,0.03 0.02,0.02 0.02,0.03 0.01,0.03 0.02,0.03 0.01,0.04 0.01,0.03 0.01,0.04 0.01,0.03 0.01,0.04 0.01,0.04 0,0.04 0.01,0.04 0,0.04 0,0.05 0,0.05 c 0,0.99 -0.94,0.99 -1.64,0.99 l -29.84,0 c -0.7,0 -1.64,0 -1.64,-0.99 0,-1 0.94,-1 1.69,-1 z"
           inkscape:connector-curvature="0"
           style="fill:#000000;stroke-width:0" /><path
           id="path15707"
           d="m 555.27,412.62 0.13,0.01 0.14,0 0.14,0 0.07,0.01 0.07,0 0.07,0.01 0.07,0.01 0.07,0.01 0.07,0.01 0.06,0.01 0.07,0.02 0.06,0.02 0.06,0.02 0.06,0.02 0.06,0.03 0.06,0.03 0.05,0.04 0.05,0.04 0.04,0.04 0.05,0.04 0.02,0.03 0.02,0.03 0.01,0.02 0.02,0.03 0.02,0.03 0.01,0.03 0.02,0.03 0.01,0.03 0.01,0.04 0.01,0.03 0.01,0.04 0.01,0.04 0.01,0.04 0,0.04 0.01,0.04 0,0.04 0,0.05 0,0.04 c 0,1 -0.94,1 -1.69,1 l -29.74,0 c -0.75,0 -1.69,0 -1.69,-1 0,-1 0.94,-1 1.64,-1 z"
           inkscape:connector-curvature="0"
           style="fill:#000000;stroke-width:0" /><path
           id="path15709"
           d="m 597.67,422.94 0.45,0.12 0.44,0.12 0.44,0.14 0.43,0.15 0.42,0.16 0.42,0.17 0.4,0.18 0.4,0.18 0.39,0.2 0.37,0.21 0.37,0.21 0.35,0.23 0.34,0.23 0.33,0.24 0.32,0.25 0.3,0.26 0.29,0.26 0.27,0.28 0.26,0.28 0.24,0.29 0.23,0.29 0.21,0.3 0.19,0.31 0.17,0.32 0.16,0.32 0.14,0.33 0.11,0.33 0.1,0.34 0.08,0.35 0.05,0.35 0.04,0.35 0.01,0.36 c 0,4.79 -5.68,8.97 -13,8.97 l -15.65,0 0,-1.54 1.2,0 c 3.83,0 3.94,-0.55 3.94,-2.34 l 0,-26.25 c 0,-1.8 -0.11,-2.35 -3.94,-2.35 l -1.2,0 0,-1.54 14.55,0 0,1.54 -1.2,0 c -3.83,0 -3.93,0.55 -3.93,2.35 l 0,12.6 0,1.1 0,12.89 c 0,1.15 0,1.75 1.09,1.9 0.5,0.1 1.95,0.1 2.94,0.1 4.49,0 10.06,-0.2 10.06,-7.43 0,-3.43 -1.19,-7.46 -8.56,-7.46 l -5.53,0 0,-1.1 5.73,0 c 0.79,0 2.89,0 4.63,-1.7 1.89,-1.79 1.89,-3.33 1.89,-6.67 0,-3.24 0,-5.23 2.04,-7.12 2.05,-1.8 4.79,-2.1 6.28,-2.1 3.89,0 4.74,4.09 4.74,5.48 0,0.3 0,0.85 -0.65,0.85 -0.55,0 -0.55,-0.45 -0.6,-0.8 -0.3,-3.53 -2.04,-4.43 -3.29,-4.43 -2.44,0 -2.84,2.54 -3.53,7.17 l -0.65,3.99 c -0.9,3.19 -3.34,4.83 -6.08,5.78 z"
           inkscape:connector-curvature="0"
           style="fill:#000000;stroke-width:0" /></g>    </g>
    <path
       style="fill:none;fill-rule:evenodd;stroke:#0000ff;stroke-width:0.5;stroke-linecap:butt;stroke-linejoin:miter;stroke-opacity:1;stroke-miterlimit:4;stroke-dasharray:none;marker-end:url(#Arrow1Mend)"
       d="m 295,272.36218 0,15"
       id="path15831"
       inkscape:connector-curvature="0" />
    <path
       inkscape:connector-curvature="0"
       id="use16005"
       d="m 465.71429,271.29075 0,15"
       style="fill:none;fill-rule:evenodd;stroke:#ff0000;stroke-width:0.5;stroke-linecap:butt;stroke-linejoin:miter;stroke-miterlimit:4;stroke-dasharray:none;stroke-opacity:1;marker-end:url(#marker16009)" />
  </g>
</svg>
