<?xml version="1.0" encoding="UTF-8" standalone="no"?>
<!-- Created with Inkscape (http://www.inkscape.org/) -->

<svg
   xmlns:dc="http://purl.org/dc/elements/1.1/"
   xmlns:cc="http://creativecommons.org/ns#"
   xmlns:rdf="http://www.w3.org/1999/02/22-rdf-syntax-ns#"
   xmlns:svg="http://www.w3.org/2000/svg"
   xmlns="http://www.w3.org/2000/svg"
   xmlns:sodipodi="http://sodipodi.sourceforge.net/DTD/sodipodi-0.dtd"
   xmlns:inkscape="http://www.inkscape.org/namespaces/inkscape"
   width="210mm"
   height="297mm"
   viewBox="0 0 744.09448819 1052.3622047"
   id="svg2"
   version="1.1"
   inkscape:version="0.91 r13725"
   sodipodi:docname="Pi.svg"
   inkscape:export-filename="/home/yusei/Documents/DNA/Pi.png"
   inkscape:export-xdpi="90"
   inkscape:export-ydpi="90">
  <sodipodi:namedview
     id="base"
     pagecolor="#ffffff"
     bordercolor="#666666"
     borderopacity="1.0"
     inkscape:pageopacity="0.0"
     inkscape:pageshadow="2"
     inkscape:zoom="1.4"
     inkscape:cx="312.13329"
     inkscape:cy="755.37863"
     inkscape:document-units="px"
     inkscape:current-layer="layer1"
     showgrid="true"
     inkscape:window-width="2495"
     inkscape:window-height="1056"
     inkscape:window-x="65"
     inkscape:window-y="24"
     inkscape:window-maximized="1">
    <inkscape:grid
       id="grid5297"
       type="xygrid" />
  </sodipodi:namedview>
  <defs
     id="defs4">
    <marker
       inkscape:isstock="true"
       style="overflow:visible;"
       id="marker16667"
       refX="0.0"
       refY="0.0"
       orient="auto"
       inkscape:stockid="Arrow1Lend">
      <path
         transform="scale(0.8) rotate(180) translate(12.5,0)"
         style="fill-rule:evenodd;stroke:#000000;stroke-width:1pt;stroke-opacity:1;fill:#000000;fill-opacity:1"
         d="M 0.0,0.0 L 5.0,-5.0 L -12.5,0.0 L 5.0,5.0 L 0.0,0.0 z "
         id="path16669" />
    </marker>
    <marker
       inkscape:stockid="Arrow1Lend"
       orient="auto"
       refY="0.0"
       refX="0.0"
       id="marker16625"
       style="overflow:visible;"
       inkscape:isstock="true">
      <path
         id="path16627"
         d="M 0.0,0.0 L 5.0,-5.0 L -12.5,0.0 L 5.0,5.0 L 0.0,0.0 z "
         style="fill-rule:evenodd;stroke:#000000;stroke-width:1pt;stroke-opacity:1;fill:#000000;fill-opacity:1"
         transform="scale(0.8) rotate(180) translate(12.5,0)" />
    </marker>
    <marker
       inkscape:isstock="true"
       style="overflow:visible;"
       id="marker16585"
       refX="0.0"
       refY="0.0"
       orient="auto"
       inkscape:stockid="Arrow1Lend"
       inkscape:collect="always">
      <path
         transform="scale(0.8) rotate(180) translate(12.5,0)"
         style="fill-rule:evenodd;stroke:#000000;stroke-width:1pt;stroke-opacity:1;fill:#000000;fill-opacity:1"
         d="M 0.0,0.0 L 5.0,-5.0 L -12.5,0.0 L 5.0,5.0 L 0.0,0.0 z "
         id="path16587" />
    </marker>
    <marker
       inkscape:stockid="Arrow1Mend"
       orient="auto"
       refY="0.0"
       refX="0.0"
       id="marker16009"
       style="overflow:visible;"
       inkscape:isstock="true">
      <path
         id="path16011"
         d="M 0.0,0.0 L 5.0,-5.0 L -12.5,0.0 L 5.0,5.0 L 0.0,0.0 z "
         style="fill-rule:evenodd;stroke:#ff0000;stroke-width:1pt;stroke-opacity:1;fill:#ff0000;fill-opacity:1"
         transform="scale(0.4) rotate(180) translate(10,0)" />
    </marker>
    <marker
       inkscape:isstock="true"
       style="overflow:visible;"
       id="marker15971"
       refX="0.0"
       refY="0.0"
       orient="auto"
       inkscape:stockid="Arrow1Mend">
      <path
         transform="scale(0.4) rotate(180) translate(10,0)"
         style="fill-rule:evenodd;stroke:#000000;stroke-width:1pt;stroke-opacity:1;fill:#000000;fill-opacity:1"
         d="M 0.0,0.0 L 5.0,-5.0 L -12.5,0.0 L 5.0,5.0 L 0.0,0.0 z "
         id="path15973" />
    </marker>
    <marker
       inkscape:stockid="Arrow1Lend"
       orient="auto"
       refY="0.0"
       refX="0.0"
       id="marker14349"
       style="overflow:visible;"
       inkscape:isstock="true"
       inkscape:collect="always">
      <path
         id="path14351"
         d="M 0.0,0.0 L 5.0,-5.0 L -12.5,0.0 L 5.0,5.0 L 0.0,0.0 z "
         style="fill-rule:evenodd;stroke:#000000;stroke-width:1pt;stroke-opacity:1;fill:#000000;fill-opacity:1"
         transform="scale(0.8) rotate(180) translate(12.5,0)" />
    </marker>
    <marker
       inkscape:isstock="true"
       style="overflow:visible;"
       id="Arrow1Mend"
       refX="0.0"
       refY="0.0"
       orient="auto"
       inkscape:stockid="Arrow1Mend"
       inkscape:collect="always">
      <path
         transform="scale(0.4) rotate(180) translate(10,0)"
         style="fill-rule:evenodd;stroke:#0000ff;stroke-width:1pt;stroke-opacity:1;fill:#0000ff;fill-opacity:1"
         d="M 0.0,0.0 L 5.0,-5.0 L -12.5,0.0 L 5.0,5.0 L 0.0,0.0 z "
         id="path12134" />
    </marker>
    <clipPath
       clipPathUnits="userSpaceOnUse"
       id="clipPath4171">
      <path
         d="M 0,0 612,0 612,792 0,792 0,0 Z"
         id="path4173"
         inkscape:connector-curvature="0" />
    </clipPath>
  </defs>
  <metadata
     id="metadata7">
    <rdf:RDF>
      <cc:Work
         rdf:about="">
        <dc:format>image/svg+xml</dc:format>
        <dc:type
           rdf:resource="http://purl.org/dc/dcmitype/StillImage" />
        <dc:title />
      </cc:Work>
    </rdf:RDF>
  </metadata>
  <g
     id="layer1"
     inkscape:groupmode="layer"
     inkscape:label="レイヤー 1">
    <path
       d="m 75.086509,279.00691 c 0,-1.4523 -1.177296,-2.6296 -2.629584,-2.6296 -1.452264,0 -2.629548,1.1773 -2.629548,2.6296 0,1.45224 1.177284,2.62957 2.629548,2.62957 1.452288,0 2.629584,-1.17733 2.629584,-2.62957 z"
       style="fill:#0000ff;fill-opacity:1;fill-rule:nonzero;stroke:#0000ff;stroke-width:0.74369669;stroke-linecap:butt;stroke-linejoin:miter;stroke-miterlimit:10;stroke-dasharray:none;stroke-opacity:1"
       id="path4189"
       inkscape:connector-curvature="0" />
    <text
       y="302.93964"
       x="72.817139"
       style="font-variant:normal;font-weight:normal;font-size:22.31127167px;font-family:CMR12;-inkscape-font-specification:CMR12;writing-mode:lr-tb;fill:#000000;fill-opacity:1;fill-rule:nonzero;stroke:none"
       id="text4193">
      <tspan
         x="72.817139 83.740707 94.664322"
         y="302.93964"
         sodipodi:role="line"
         id="tspan4195">641</tspan>
    </text>
    <path
       d="m 101.53749,233.19237 c 0,-1.45231 -1.17729,-2.6296 -2.629601,-2.6296 -1.452288,0 -2.629644,1.17729 -2.629644,2.6296 0,1.45229 1.177356,2.62962 2.629644,2.62962 1.452311,0 2.629601,-1.17733 2.629601,-2.62962 z"
       style="fill:#000000;fill-opacity:1;fill-rule:nonzero;stroke:#000000;stroke-width:0.74369669;stroke-linecap:butt;stroke-linejoin:miter;stroke-miterlimit:10;stroke-dasharray:none;stroke-opacity:1"
       id="path4199"
       inkscape:connector-curvature="0" />
    <text
       y="240.38132"
       x="106.20226"
       style="font-variant:normal;font-weight:normal;font-size:22.31127167px;font-family:CMR12;-inkscape-font-specification:CMR12;writing-mode:lr-tb;fill:#000000;fill-opacity:1;fill-rule:nonzero;stroke:none"
       id="text4203">
      <tspan
         x="106.20226 117.12587 128.04953"
         y="240.38132"
         sodipodi:role="line"
         id="tspan4205">642</tspan>
    </text>
    <path
       d="m 127.9885,187.3778 c 0,-1.45229 -1.17736,-2.62959 -2.62962,-2.62959 -1.4523,0 -2.62962,1.1773 -2.62962,2.62959 0,1.45231 1.17732,2.62961 2.62962,2.62961 1.45226,0 2.62962,-1.1773 2.62962,-2.62961 z"
       style="fill:#000000;fill-opacity:1;fill-rule:nonzero;stroke:#000000;stroke-width:0.74369669;stroke-linecap:butt;stroke-linejoin:miter;stroke-miterlimit:10;stroke-dasharray:none;stroke-opacity:1"
       id="path4209"
       inkscape:connector-curvature="0" />
    <text
       y="177.82309"
       x="125.71761"
       style="font-variant:normal;font-weight:normal;font-size:22.31127167px;font-family:CMR12;-inkscape-font-specification:CMR12;writing-mode:lr-tb;fill:#000000;fill-opacity:1;fill-rule:nonzero;stroke:none"
       id="text4213">
      <tspan
         x="125.71761 136.64116 147.56477"
         y="177.82309"
         sodipodi:role="line"
         id="tspan4215">644</tspan>
    </text>
    <path
       d="m 127.9885,279.00691 c 0,-1.4523 -1.17736,-2.6296 -2.62962,-2.6296 -1.4523,0 -2.62962,1.1773 -2.62962,2.6296 0,1.45224 1.17732,2.62957 2.62962,2.62957 1.45226,0 2.62962,-1.17733 2.62962,-2.62957 z"
       style="fill:#0000ff;fill-opacity:1;fill-rule:nonzero;stroke:#0000ff;stroke-width:0.74369669;stroke-linecap:butt;stroke-linejoin:miter;stroke-miterlimit:10;stroke-dasharray:none;stroke-opacity:1"
       id="path4219"
       inkscape:connector-curvature="0" />
    <text
       y="302.93964"
       x="125.71761"
       style="font-variant:normal;font-weight:normal;font-size:22.31127167px;font-family:CMR12;-inkscape-font-specification:CMR12;writing-mode:lr-tb;fill:#000000;fill-opacity:1;fill-rule:nonzero;stroke:none"
       id="text4223">
      <tspan
         x="125.71761 136.64116 147.56477"
         y="302.93964"
         sodipodi:role="line"
         id="tspan4225">648</tspan>
    </text>
    <path
       d="m 180.89044,279.00691 c 0,-1.4523 -1.17732,-2.6296 -2.62962,-2.6296 -1.4523,0 -2.62959,1.1773 -2.62959,2.6296 0,1.45224 1.17729,2.62957 2.62959,2.62957 1.4523,0 2.62962,-1.17733 2.62962,-2.62957 z"
       style="fill:#000000;fill-opacity:1;fill-rule:nonzero;stroke:#000000;stroke-width:0.74369669;stroke-linecap:butt;stroke-linejoin:miter;stroke-miterlimit:10;stroke-dasharray:none;stroke-opacity:1"
       id="path4229"
       inkscape:connector-curvature="0" />
    <text
       y="302.93964"
       x="178.61984"
       style="font-variant:normal;font-weight:normal;font-size:22.31127167px;font-family:CMR12;-inkscape-font-specification:CMR12;writing-mode:lr-tb;fill:#000000;fill-opacity:1;fill-rule:nonzero;stroke:none"
       id="text4233">
      <tspan
         x="178.61984 189.54346 200.46706"
         y="302.93964"
         sodipodi:role="line"
         id="tspan4235">649</tspan>
    </text>
    <path
       d="m 233.79239,279.00691 c 0,-1.4523 -1.17733,-2.6296 -2.62963,-2.6296 -1.45224,0 -2.6296,1.1773 -2.6296,2.6296 0,1.45224 1.17736,2.62957 2.6296,2.62957 1.4523,0 2.62963,-1.17733 2.62963,-2.62957 z"
       style="fill:#000000;fill-opacity:1;fill-rule:nonzero;stroke:#000000;stroke-width:0.74369669;stroke-linecap:butt;stroke-linejoin:miter;stroke-miterlimit:10;stroke-dasharray:none;stroke-opacity:1"
       id="path4239"
       inkscape:connector-curvature="0" />
    <text
       y="302.93964"
       x="231.52216"
       style="font-variant:normal;font-weight:normal;font-size:22.31127167px;font-family:CMR12;-inkscape-font-specification:CMR12;writing-mode:lr-tb;fill:#000000;fill-opacity:1;fill-rule:nonzero;stroke:none"
       id="text4243">
      <tspan
         x="231.52216 242.44574 253.36934"
         y="302.93964"
         sodipodi:role="line"
         id="tspan4245">650</tspan>
    </text>
    <path
       d="m 154.43946,233.19237 c 0,-1.45231 -1.17733,-2.6296 -2.62962,-2.6296 -1.45231,0 -2.62962,1.17729 -2.62962,2.6296 0,1.45229 1.17731,2.62962 2.62962,2.62962 1.45229,0 2.62962,-1.17733 2.62962,-2.62962 z"
       style="fill:#000000;fill-opacity:1;fill-rule:nonzero;stroke:#000000;stroke-width:0.74369669;stroke-linecap:butt;stroke-linejoin:miter;stroke-miterlimit:10;stroke-dasharray:none;stroke-opacity:1"
       id="path4249"
       inkscape:connector-curvature="0" />
    <text
       y="230.42802"
       x="154.12799"
       style="font-variant:normal;font-weight:normal;font-size:22.31127167px;font-family:CMR12;-inkscape-font-specification:CMR12;writing-mode:lr-tb;fill:#000000;fill-opacity:1;fill-rule:nonzero;stroke:none"
       id="text4253">
      <tspan
         x="154.12799 165.05159 175.97519"
         y="230.42802"
         sodipodi:role="line"
         id="tspan4255">647</tspan>
    </text>
    <path
       d="m 207.3414,233.19237 c 0,-1.45231 -1.17732,-2.6296 -2.62963,-2.6296 -1.45228,0 -2.62961,1.17729 -2.62961,2.6296 0,1.45229 1.17733,2.62962 2.62961,2.62962 1.45231,0 2.62963,-1.17733 2.62963,-2.62962 z"
       style="fill:#000000;fill-opacity:1;fill-rule:nonzero;stroke:#000000;stroke-width:0.74369669;stroke-linecap:butt;stroke-linejoin:miter;stroke-miterlimit:10;stroke-dasharray:none;stroke-opacity:1"
       id="path4259"
       inkscape:connector-curvature="0" />
    <text
       y="240.38132"
       x="212.00687"
       style="font-variant:normal;font-weight:normal;font-size:22.31127167px;font-family:CMR12;-inkscape-font-specification:CMR12;writing-mode:lr-tb;fill:#000000;fill-opacity:1;fill-rule:nonzero;stroke:none"
       id="text4263">
      <tspan
         x="212.00687 222.93048 233.85411"
         y="240.38132"
         sodipodi:role="line"
         id="tspan4265">646</tspan>
    </text>
    <path
       d="m 260.24344,233.19237 c 0,-1.45231 -1.17743,-2.6296 -2.62971,-2.6296 -1.45231,0 -2.6296,1.17729 -2.6296,2.6296 0,1.45229 1.17729,2.62962 2.6296,2.62962 1.45228,0 2.62971,-1.17733 2.62971,-2.62962 z"
       style="fill:#000000;fill-opacity:1;fill-rule:nonzero;stroke:#000000;stroke-width:0.74369669;stroke-linecap:butt;stroke-linejoin:miter;stroke-miterlimit:10;stroke-dasharray:none;stroke-opacity:1"
       id="path4269"
       inkscape:connector-curvature="0" />
    <text
       y="240.38132"
       x="264.90921"
       style="font-variant:normal;font-weight:normal;font-size:22.31127167px;font-family:CMR12;-inkscape-font-specification:CMR12;writing-mode:lr-tb;fill:#000000;fill-opacity:1;fill-rule:nonzero;stroke:none"
       id="text4273">
      <tspan
         x="264.90921 275.83282 286.75644"
         y="240.38132"
         sodipodi:role="line"
         id="tspan4275">651</tspan>
    </text>
    <path
       d="m 75.086509,187.3778 c 0,-1.45229 -1.177296,-2.62959 -2.629584,-2.62959 -1.452264,0 -2.629548,1.1773 -2.629548,2.62959 0,1.45231 1.177284,2.62961 2.629548,2.62961 1.452288,0 2.629584,-1.1773 2.629584,-2.62961 z"
       style="fill:#000000;fill-opacity:1;fill-rule:nonzero;stroke:#000000;stroke-width:0.74369669;stroke-linecap:butt;stroke-linejoin:miter;stroke-miterlimit:10;stroke-dasharray:none;stroke-opacity:1"
       id="path4279"
       inkscape:connector-curvature="0" />
    <text
       y="177.82309"
       x="72.817139"
       style="font-variant:normal;font-weight:normal;font-size:22.31127167px;font-family:CMR12;-inkscape-font-specification:CMR12;writing-mode:lr-tb;fill:#000000;fill-opacity:1;fill-rule:nonzero;stroke:none"
       id="text4283">
      <tspan
         x="72.817139 83.740707 94.664322"
         y="177.82309"
         sodipodi:role="line"
         id="tspan4285">643</tspan>
    </text>
    <path
       d="m 180.89044,187.3778 c 0,-1.45229 -1.17732,-2.62959 -2.62962,-2.62959 -1.4523,0 -2.62959,1.1773 -2.62959,2.62959 0,1.45231 1.17729,2.62961 2.62959,2.62961 1.4523,0 2.62962,-1.1773 2.62962,-2.62961 z"
       style="fill:#000000;fill-opacity:1;fill-rule:nonzero;stroke:#000000;stroke-width:0.74369669;stroke-linecap:butt;stroke-linejoin:miter;stroke-miterlimit:10;stroke-dasharray:none;stroke-opacity:1"
       id="path4289"
       inkscape:connector-curvature="0" />
    <text
       y="177.82309"
       x="178.61984"
       style="font-variant:normal;font-weight:normal;font-size:22.31127167px;font-family:CMR12;-inkscape-font-specification:CMR12;writing-mode:lr-tb;fill:#000000;fill-opacity:1;fill-rule:nonzero;stroke:none"
       id="text4293">
      <tspan
         x="178.61984 189.54346 200.46706"
         y="177.82309"
         sodipodi:role="line"
         id="tspan4295">645</tspan>
    </text>
    <path
       d="m 233.79239,187.3778 c 0,-1.45229 -1.17733,-2.62959 -2.62963,-2.62959 -1.45224,0 -2.6296,1.1773 -2.6296,2.62959 0,1.45231 1.17736,2.62961 2.6296,2.62961 1.4523,0 2.62963,-1.1773 2.62963,-2.62961 z"
       style="fill:#000000;fill-opacity:1;fill-rule:nonzero;stroke:#000000;stroke-width:0.74369669;stroke-linecap:butt;stroke-linejoin:miter;stroke-miterlimit:10;stroke-dasharray:none;stroke-opacity:1"
       id="path4299"
       inkscape:connector-curvature="0" />
    <text
       y="177.82309"
       x="231.52216"
       style="font-variant:normal;font-weight:normal;font-size:22.31127167px;font-family:CMR12;-inkscape-font-specification:CMR12;writing-mode:lr-tb;fill:#000000;fill-opacity:1;fill-rule:nonzero;stroke:none"
       id="text4303">
      <tspan
         x="231.52216 242.44574 253.36934"
         y="177.82309"
         sodipodi:role="line"
         id="tspan4305">652</tspan>
    </text>
    <path
       d="m 73.962505,276.39934 23.439828,-40.59938 m -1.2e-5,-5.21514 -23.43984,-40.59943 m 1.495932,-2.60759 46.899017,0 m 6.00289,0 46.89903,0 m 4.50705,2.60759 23.43986,40.59943 m -1.49594,2.60755 -46.89903,0 m -4.50703,2.60759 -23.43984,40.59938 m 1.4959,2.60757 46.89903,0 m 6.00296,0 46.89903,0 m 4.50706,-2.60757 23.43979,-40.59938 m -4e-5,-5.21514 -23.43982,-40.59943"
       style="fill:none;stroke:#000000;stroke-width:2.48832011;stroke-linecap:butt;stroke-linejoin:miter;stroke-miterlimit:10;stroke-dasharray:none;stroke-opacity:1"
       id="path4309"
       inkscape:connector-curvature="0" />
    <path
       d="m 126.86443,189.98539 23.43986,40.59943"
       style="fill:none;stroke:#ff0000;stroke-width:2.48832011;stroke-linecap:butt;stroke-linejoin:miter;stroke-miterlimit:10;stroke-dasharray:2.48831999, 12.44191205;stroke-dashoffset:0;stroke-opacity:1"
       id="path4317"
       inkscape:connector-curvature="0" />
    <path
       d="m 75.458413,279.00691 46.899017,0"
       style="fill:none;stroke:#ff0000;stroke-width:2.48832011;stroke-linecap:butt;stroke-linejoin:miter;stroke-miterlimit:10;stroke-dasharray:2.48831999, 12.44191205;stroke-dashoffset:0;stroke-opacity:1"
       id="path4321"
       inkscape:connector-curvature="0" />
    <path
       d="m 203.20621,235.79996 -23.43985,40.59938"
       style="fill:none;stroke:#ff0000;stroke-width:2.48832011;stroke-linecap:butt;stroke-linejoin:miter;stroke-miterlimit:10;stroke-dasharray:2.48831999, 12.44191205;stroke-dashoffset:0;stroke-opacity:1"
       id="path4325"
       inkscape:connector-curvature="0" />
    <path
       d="m 228.16134,187.3778 -46.89903,0"
       style="fill:none;stroke:#ff0000;stroke-width:2.48832011;stroke-linecap:butt;stroke-linejoin:miter;stroke-miterlimit:10;stroke-dasharray:2.48831999, 12.44191205;stroke-dashoffset:0;stroke-opacity:1"
       id="path4329"
       inkscape:connector-curvature="0" />
    <path
       d="m 503.03339,279.00691 c 0,-1.4523 -1.17728,-2.6296 -2.62958,-2.6296 -1.45229,0 -2.62958,1.1773 -2.62958,2.6296 0,1.45228 1.17729,2.62957 2.62958,2.62957 1.4523,0 2.62958,-1.17729 2.62958,-2.62957 z"
       style="fill:#ff0000;fill-opacity:1;fill-rule:nonzero;stroke:#ff0000;stroke-width:0.74369812;stroke-linecap:butt;stroke-linejoin:miter;stroke-miterlimit:10;stroke-dasharray:none;stroke-opacity:1"
       id="path4333"
       inkscape:connector-curvature="0" />
    <text
       y="302.93964"
       x="500.76389"
       style="font-variant:normal;font-weight:normal;font-size:22.31131935px;font-family:CMR12;-inkscape-font-specification:CMR12;writing-mode:lr-tb;fill:#000000;fill-opacity:1;fill-rule:nonzero;stroke:none"
       id="text4337">
      <tspan
         x="500.76389 511.68747 522.61108"
         y="302.93964"
         sodipodi:role="line"
         id="tspan4339">643</tspan>
    </text>
    <path
       d="m 529.48445,233.1923 c 0,-1.4523 -1.17734,-2.62962 -2.62964,-2.62962 -1.4523,0 -2.62965,1.17732 -2.62965,2.62962 0,1.45225 1.17735,2.62959 2.62965,2.62959 1.4523,0 2.62964,-1.17734 2.62964,-2.62959 z"
       style="fill:#000000;fill-opacity:1;fill-rule:nonzero;stroke:#000000;stroke-width:0.74369812;stroke-linecap:butt;stroke-linejoin:miter;stroke-miterlimit:10;stroke-dasharray:none;stroke-opacity:1"
       id="path4343"
       inkscape:connector-curvature="0" />
    <text
       y="240.38132"
       x="534.14899"
       style="font-variant:normal;font-weight:normal;font-size:22.31131935px;font-family:CMR12;-inkscape-font-specification:CMR12;writing-mode:lr-tb;fill:#000000;fill-opacity:1;fill-rule:nonzero;stroke:none"
       id="text4347">
      <tspan
         x="534.14899 545.07263 555.99628"
         y="240.38132"
         sodipodi:role="line"
         id="tspan4349">642</tspan>
    </text>
    <path
       d="m 555.93544,187.37763 c 0,-1.45229 -1.17731,-2.62963 -2.62959,-2.62963 -1.45226,0 -2.62962,1.17734 -2.62962,2.62963 0,1.4523 1.17736,2.62958 2.62962,2.62958 1.45228,0 2.62959,-1.17728 2.62959,-2.62958 z"
       style="fill:#000000;fill-opacity:1;fill-rule:nonzero;stroke:#000000;stroke-width:0.74369812;stroke-linecap:butt;stroke-linejoin:miter;stroke-miterlimit:10;stroke-dasharray:none;stroke-opacity:1"
       id="path4353"
       inkscape:connector-curvature="0" />
    <text
       y="177.82277"
       x="553.66431"
       style="font-variant:normal;font-weight:normal;font-size:22.31131935px;font-family:CMR12;-inkscape-font-specification:CMR12;writing-mode:lr-tb;fill:#000000;fill-opacity:1;fill-rule:nonzero;stroke:none"
       id="text4357">
      <tspan
         x="553.66431 564.58783 575.51147"
         y="177.82277"
         sodipodi:role="line"
         id="tspan4359">646</tspan>
    </text>
    <path
       d="m 555.93544,279.00691 c 0,-1.4523 -1.17731,-2.6296 -2.62959,-2.6296 -1.45226,0 -2.62962,1.1773 -2.62962,2.6296 0,1.45228 1.17736,2.62957 2.62962,2.62957 1.45228,0 2.62959,-1.17729 2.62959,-2.62957 z"
       style="fill:#ff0000;fill-opacity:1;fill-rule:nonzero;stroke:#ff0000;stroke-width:0.74369812;stroke-linecap:butt;stroke-linejoin:miter;stroke-miterlimit:10;stroke-dasharray:none;stroke-opacity:1"
       id="path4363"
       inkscape:connector-curvature="0" />
    <text
       y="302.93964"
       x="553.66431"
       style="font-variant:normal;font-weight:normal;font-size:22.31131935px;font-family:CMR12;-inkscape-font-specification:CMR12;writing-mode:lr-tb;fill:#000000;fill-opacity:1;fill-rule:nonzero;stroke:none"
       id="text4367">
      <tspan
         x="553.66431 564.58783 575.51147"
         y="302.93964"
         sodipodi:role="line"
         id="tspan4369">644</tspan>
    </text>
    <path
       d="m 608.83751,279.00691 c 0,-1.4523 -1.1773,-2.6296 -2.62957,-2.6296 -1.45231,0 -2.62962,1.1773 -2.62962,2.6296 0,1.45228 1.17731,2.62957 2.62962,2.62957 1.45227,0 2.62957,-1.17729 2.62957,-2.62957 z"
       style="fill:#000000;fill-opacity:1;fill-rule:nonzero;stroke:#000000;stroke-width:0.74369812;stroke-linecap:butt;stroke-linejoin:miter;stroke-miterlimit:10;stroke-dasharray:none;stroke-opacity:1"
       id="path4373"
       inkscape:connector-curvature="0" />
    <text
       y="302.93964"
       x="606.56696"
       style="font-variant:normal;font-weight:normal;font-size:22.31131935px;font-family:CMR12;-inkscape-font-specification:CMR12;writing-mode:lr-tb;fill:#000000;fill-opacity:1;fill-rule:nonzero;stroke:none"
       id="text4377">
      <tspan
         x="606.56696 617.49066 628.41431"
         y="302.93964"
         sodipodi:role="line"
         id="tspan4379">649</tspan>
    </text>
    <path
       d="m 661.73956,279.00691 c 0,-1.4523 -1.17729,-2.6296 -2.6296,-2.6296 -1.45226,0 -2.62961,1.1773 -2.62961,2.6296 0,1.45228 1.17735,2.62957 2.62961,2.62957 1.45231,0 2.6296,-1.17729 2.6296,-2.62957 z"
       style="fill:#000000;fill-opacity:1;fill-rule:nonzero;stroke:#000000;stroke-width:0.74369812;stroke-linecap:butt;stroke-linejoin:miter;stroke-miterlimit:10;stroke-dasharray:none;stroke-opacity:1"
       id="path4383"
       inkscape:connector-curvature="0" />
    <text
       y="302.93964"
       x="659.46918"
       style="font-variant:normal;font-weight:normal;font-size:22.31131935px;font-family:CMR12;-inkscape-font-specification:CMR12;writing-mode:lr-tb;fill:#000000;fill-opacity:1;fill-rule:nonzero;stroke:none"
       id="text4387">
      <tspan
         x="659.46918 670.39276 681.31647"
         y="302.93964"
         sodipodi:role="line"
         id="tspan4389">650</tspan>
    </text>
    <path
       d="m 582.38649,233.1923 c 0,-1.4523 -1.17732,-2.62962 -2.62964,-2.62962 -1.4523,0 -2.62958,1.17732 -2.62958,2.62962 0,1.45225 1.17728,2.62959 2.62958,2.62959 1.45232,0 2.62964,-1.17734 2.62964,-2.62959 z"
       style="fill:#000000;fill-opacity:1;fill-rule:nonzero;stroke:#000000;stroke-width:0.74369812;stroke-linecap:butt;stroke-linejoin:miter;stroke-miterlimit:10;stroke-dasharray:none;stroke-opacity:1"
       id="path4393"
       inkscape:connector-curvature="0" />
    <text
       y="240.38132"
       x="587.0517"
       style="font-variant:normal;font-weight:normal;font-size:22.31131935px;font-family:CMR12;-inkscape-font-specification:CMR12;writing-mode:lr-tb;fill:#000000;fill-opacity:1;fill-rule:nonzero;stroke:none"
       id="text4397">
      <tspan
         x="587.0517 597.97522 608.89893"
         y="240.38132"
         sodipodi:role="line"
         id="tspan4399">645</tspan>
    </text>
    <path
       d="m 635.28855,233.1923 c 0,-1.4523 -1.17731,-2.62962 -2.62962,-2.62962 -1.45229,0 -2.62965,1.17732 -2.62965,2.62962 0,1.45225 1.17736,2.62959 2.62965,2.62959 1.45231,0 2.62962,-1.17734 2.62962,-2.62959 z"
       style="fill:#000000;fill-opacity:1;fill-rule:nonzero;stroke:#000000;stroke-width:0.74369812;stroke-linecap:butt;stroke-linejoin:miter;stroke-miterlimit:10;stroke-dasharray:none;stroke-opacity:1"
       id="path4403"
       inkscape:connector-curvature="0" />
    <text
       y="240.38132"
       x="639.95392"
       style="font-variant:normal;font-weight:normal;font-size:22.31131935px;font-family:CMR12;-inkscape-font-specification:CMR12;writing-mode:lr-tb;fill:#000000;fill-opacity:1;fill-rule:nonzero;stroke:none"
       id="text4407">
      <tspan
         x="639.95392 650.87756 661.80121"
         y="240.38132"
         sodipodi:role="line"
         id="tspan4409">648</tspan>
    </text>
    <path
       d="m 688.19068,233.1923 c 0,-1.4523 -1.17742,-2.62962 -2.62971,-2.62962 -1.45231,0 -2.62959,1.17732 -2.62959,2.62962 0,1.45225 1.17728,2.62959 2.62959,2.62959 1.45229,0 2.62971,-1.17734 2.62971,-2.62959 z"
       style="fill:#000000;fill-opacity:1;fill-rule:nonzero;stroke:#000000;stroke-width:0.74369812;stroke-linecap:butt;stroke-linejoin:miter;stroke-miterlimit:10;stroke-dasharray:none;stroke-opacity:1"
       id="path4413"
       inkscape:connector-curvature="0" />
    <text
       y="240.38132"
       x="692.85632"
       style="font-variant:normal;font-weight:normal;font-size:22.31131935px;font-family:CMR12;-inkscape-font-specification:CMR12;writing-mode:lr-tb;fill:#000000;fill-opacity:1;fill-rule:nonzero;stroke:none"
       id="text4417">
      <tspan
         x="692.85632 703.77997 714.70355"
         y="240.38132"
         sodipodi:role="line"
         id="tspan4419">651</tspan>
    </text>
    <path
       d="m 503.03339,187.37763 c 0,-1.45229 -1.17728,-2.62963 -2.62958,-2.62963 -1.45229,0 -2.62958,1.17734 -2.62958,2.62963 0,1.4523 1.17729,2.62958 2.62958,2.62958 1.4523,0 2.62958,-1.17728 2.62958,-2.62958 z"
       style="fill:#000000;fill-opacity:1;fill-rule:nonzero;stroke:#000000;stroke-width:0.74369812;stroke-linecap:butt;stroke-linejoin:miter;stroke-miterlimit:10;stroke-dasharray:none;stroke-opacity:1"
       id="path4423"
       inkscape:connector-curvature="0" />
    <text
       y="177.82277"
       x="500.76389"
       style="font-variant:normal;font-weight:normal;font-size:22.31131935px;font-family:CMR12;-inkscape-font-specification:CMR12;writing-mode:lr-tb;fill:#000000;fill-opacity:1;fill-rule:nonzero;stroke:none"
       id="text4427">
      <tspan
         x="500.76389 511.68747 522.61108"
         y="177.82277"
         sodipodi:role="line"
         id="tspan4429">641</tspan>
    </text>
    <path
       d="m 608.83751,187.37763 c 0,-1.45229 -1.1773,-2.62963 -2.62957,-2.62963 -1.45231,0 -2.62962,1.17734 -2.62962,2.62963 0,1.4523 1.17731,2.62958 2.62962,2.62958 1.45227,0 2.62957,-1.17728 2.62957,-2.62958 z"
       style="fill:#000000;fill-opacity:1;fill-rule:nonzero;stroke:#000000;stroke-width:0.74369812;stroke-linecap:butt;stroke-linejoin:miter;stroke-miterlimit:10;stroke-dasharray:none;stroke-opacity:1"
       id="path4433"
       inkscape:connector-curvature="0" />
    <text
       y="177.82277"
       x="606.56696"
       style="font-variant:normal;font-weight:normal;font-size:22.31131935px;font-family:CMR12;-inkscape-font-specification:CMR12;writing-mode:lr-tb;fill:#000000;fill-opacity:1;fill-rule:nonzero;stroke:none"
       id="text4437">
      <tspan
         x="606.56696 617.49066 628.41431"
         y="177.82277"
         sodipodi:role="line"
         id="tspan4439">647</tspan>
    </text>
    <path
       d="m 661.73956,187.37763 c 0,-1.45229 -1.17729,-2.62963 -2.6296,-2.62963 -1.45226,0 -2.62961,1.17734 -2.62961,2.62963 0,1.4523 1.17735,2.62958 2.62961,2.62958 1.45231,0 2.6296,-1.17728 2.6296,-2.62958 z"
       style="fill:#000000;fill-opacity:1;fill-rule:nonzero;stroke:#000000;stroke-width:0.74369812;stroke-linecap:butt;stroke-linejoin:miter;stroke-miterlimit:10;stroke-dasharray:none;stroke-opacity:1"
       id="path4443"
       inkscape:connector-curvature="0" />
    <text
       y="177.82277"
       x="659.46918"
       style="font-variant:normal;font-weight:normal;font-size:22.31131935px;font-family:CMR12;-inkscape-font-specification:CMR12;writing-mode:lr-tb;fill:#000000;fill-opacity:1;fill-rule:nonzero;stroke:none"
       id="text4447">
      <tspan
         x="659.46918 670.39276 681.31647"
         y="177.82277"
         sodipodi:role="line"
         id="tspan4449">652</tspan>
    </text>
    <path
       d="m 501.90939,189.98521 23.43988,40.59951 m -1e-5,5.21513 -23.43992,40.59949 m 1.49593,2.60757 46.8991,0 m 4.50704,-2.60757 23.4399,-40.59949 m -10e-6,-5.21513 -23.4399,-40.59951 m 1.49593,-2.60758 46.8991,0 m 4.50705,2.60758 23.43989,40.59951 m -10e-6,5.21513 -23.43989,40.59949 m 1.49592,2.60757 46.89911,0 m 4.50707,-2.60757 23.43987,-40.59949 m -6e-5,-5.21513 -23.43986,-40.59951"
       style="fill:none;stroke:#000000;stroke-width:2.48832011;stroke-linecap:butt;stroke-linejoin:miter;stroke-miterlimit:10;stroke-dasharray:none;stroke-opacity:1"
       id="path4453"
       inkscape:connector-curvature="0" />
    <path
       d="m 503.40527,187.37763 46.8991,0"
       style="fill:none;stroke:#ff0000;stroke-width:2.48832011;stroke-linecap:butt;stroke-linejoin:miter;stroke-miterlimit:10;stroke-dasharray:2.48831999, 12.44191205;stroke-dashoffset:0;stroke-opacity:1"
       id="path4457"
       inkscape:connector-curvature="0" />
    <path
       d="m 556.30733,279.00691 46.8991,0"
       style="fill:none;stroke:#ff0000;stroke-width:2.48832011;stroke-linecap:butt;stroke-linejoin:miter;stroke-miterlimit:10;stroke-dasharray:2.48831999, 12.44191205;stroke-dashoffset:0;stroke-opacity:1"
       id="path4461"
       inkscape:connector-curvature="0" />
    <path
       d="m 609.20939,187.37763 46.89911,0"
       style="fill:none;stroke:#ff0000;stroke-width:2.48832011;stroke-linecap:butt;stroke-linejoin:miter;stroke-miterlimit:10;stroke-dasharray:2.48831999, 12.44191205;stroke-dashoffset:0;stroke-opacity:1"
       id="path4465"
       inkscape:connector-curvature="0" />
    <path
       inkscape:connector-curvature="0"
       id="path12115"
       d="m 62.931025,300.27092 0,12.4416 211.507205,0 0,-12.4416 0,0"
       style="fill:none;fill-rule:evenodd;stroke:#000000;stroke-width:2.48832011px;stroke-linecap:butt;stroke-linejoin:miter;stroke-opacity:1" />
    <path
       inkscape:connector-curvature="0"
       id="path12117"
       d="m 485.94543,293.35892 0,12.4416 223.9488,0 0,-12.4416"
       style="fill:none;fill-rule:evenodd;stroke:#000000;stroke-width:2.48832011px;stroke-linecap:butt;stroke-linejoin:miter;stroke-opacity:1" />
    <path
       inkscape:connector-curvature="0"
       id="path12119"
       d="m 28.094549,280.91732 37.324796,0 0,0"
       style="fill:none;fill-rule:evenodd;stroke:#000000;stroke-width:1.24416006;stroke-linecap:butt;stroke-linejoin:miter;stroke-miterlimit:4;stroke-dasharray:none;stroke-opacity:1;marker-end:url(#marker16585)" />
    <path
       style="fill:none;fill-rule:evenodd;stroke:#000000;stroke-width:1.24416006;stroke-linecap:butt;stroke-linejoin:miter;stroke-miterlimit:4;stroke-dasharray:none;stroke-opacity:1;marker-end:url(#marker16667)"
       d="m 455.55235,188.49399 37.3248,0 0,0"
       id="use12559"
       inkscape:connector-curvature="0" />
    <path
       inkscape:connector-curvature="0"
       id="use13671"
       d="m 233.73641,187.60532 37.3248,0 0,0"
       style="fill:none;fill-rule:evenodd;stroke:#000000;stroke-width:1.24416006;stroke-linecap:butt;stroke-linejoin:miter;stroke-miterlimit:4;stroke-dasharray:none;stroke-opacity:1;marker-end:url(#marker14349)" />
    <path
       style="fill:none;fill-rule:evenodd;stroke:#000000;stroke-width:1.24416006;stroke-linecap:butt;stroke-linejoin:miter;stroke-miterlimit:4;stroke-dasharray:none;stroke-opacity:1;marker-end:url(#marker16625)"
       d="m 663.86029,187.60532 37.3248,0 0,0"
       id="use14345"
       inkscape:connector-curvature="0" />
    <g
       transform="matrix(0.53080814,0,0,0.62870665,-27.667445,126.39245)"
       id="g15454">
      <g
         style="font-style:normal;font-variant:normal;font-weight:normal;font-stretch:normal;letter-spacing:normal;word-spacing:normal;text-anchor:start;fill:none;fill-opacity:1;fill-rule:evenodd;stroke:#000000;stroke-linecap:butt;stroke-linejoin:miter;stroke-miterlimit:10.43299961;stroke-dasharray:none;stroke-dashoffset:0;stroke-opacity:1"
         id="content"
         transform="matrix(1.0629921,0,0,-1.0629921,-186.02362,789.27165)"
         xml:space="preserve"
         stroke-miterlimit="10.433"
         font-style="normal"
         font-variant="normal"
         font-weight="normal"
         font-stretch="normal"
         font-size-adjust="none"
         letter-spacing="normal"
         word-spacing="normal"><path
           style="fill:#000000;stroke-width:0"
           inkscape:connector-curvature="0"
           d="m 471.09,421.74 0.2,1.3 3.39,13.55 c 0.45,1.74 0.55,1.89 2.69,1.89 l 4.78,0 c 4.14,0 6.78,-1.35 6.78,-4.78 0,-1.95 -1,-6.23 -2.94,-8.02 -2.49,-2.25 -5.48,-2.64 -7.67,-2.64 l -7.03,0 -0.2,-1.3 8.47,0 c 7.08,0 14,5.18 14,10.76 0,3.84 -3.29,7.52 -9.81,7.52 l -16.14,0 c -0.95,0 -1.5,0 -1.5,-0.95 0,-0.59 0.45,-0.59 1.45,-0.59 0.64,0 1.54,-0.05 2.14,-0.1 0.8,-0.1 1.09,-0.25 1.09,-0.8 0,-0.2 -0.04,-0.35 -0.2,-0.94 l -6.67,-26.75 c -0.5,-1.95 -0.6,-2.35 -4.53,-2.35 -0.85,0 -1.4,0 -1.4,-0.94 0,-0.6 0.6,-0.6 0.75,-0.6 l 12.75,0 c 0.35,0 1,0 1,1 0,0.54 -0.45,0.54 -1.4,0.54 -1.84,0 -3.23,0 -3.23,0.9 0,0.3 0.1,0.55 0.14,0.85 z"
           id="path15457" /><path
           style="fill:#000000;stroke-width:0"
           inkscape:connector-curvature="0"
           d="m 499.3,420.79 0,0.06 -0.01,0.05 0,0.05 -0.01,0.06 -0.01,0.06 -0.02,0.05 -0.01,0.06 -0.02,0.06 -0.03,0.05 -0.02,0.06 -0.03,0.05 -0.03,0.06 -0.03,0.05 -0.03,0.05 -0.04,0.05 -0.04,0.05 -0.05,0.05 -0.04,0.05 -0.05,0.04 -0.06,0.05 -0.05,0.04 -0.06,0.03 -0.06,0.04 -0.07,0.03 -0.07,0.03 -0.07,0.02 -0.07,0.02 -0.08,0.02 -0.08,0.02 -0.08,0.01 -0.09,0 -0.09,0.01 c -0.94,0 -1.95,-0.91 -1.95,-1.92 0,-0.59 0.45,-1.32 1.39,-1.32 1.02,0 1.96,0.97 1.96,1.91 z"
           id="path15459" /><path
           style="fill:#000000;stroke-width:0"
           inkscape:connector-curvature="0"
           d="m 492.18,403.08 -0.05,-0.17 -0.05,-0.17 -0.03,-0.08 -0.03,-0.09 -0.02,-0.08 -0.03,-0.09 -0.02,-0.09 -0.02,-0.09 -0.01,-0.1 -0.02,-0.09 -0.01,-0.1 -0.01,-0.05 0,-0.05 0,-0.05 -0.01,-0.06 0,-0.05 0,-0.06 c 0,-1.63 1.4,-2.96 3.31,-2.96 3.49,0 5.02,4.81 5.02,5.33 0,0.46 -0.45,0.46 -0.56,0.46 -0.48,0 -0.52,-0.21 -0.66,-0.59 -0.8,-2.79 -2.33,-4.22 -3.69,-4.22 -0.7,0 -0.88,0.45 -0.88,1.22 0,0.8 0.25,1.46 0.56,2.23 0.35,0.94 0.74,1.88 1.12,2.79 0.31,0.84 1.57,4.01 1.71,4.43 0.1,0.34 0.21,0.77 0.21,1.11 0,1.64 -1.4,2.97 -3.31,2.97 -3.46,0 -5.06,-4.74 -5.06,-5.34 0,-0.45 0.49,-0.45 0.59,-0.45 0.49,0 0.52,0.17 0.63,0.56 0.91,2.99 2.44,4.25 3.73,4.25 0.56,0 0.87,-0.28 0.87,-1.22 0,-0.8 -0.21,-1.32 -1.08,-3.48 z"
           id="path15461" /><path
           style="fill:#000000;stroke-width:0"
           inkscape:connector-curvature="0"
           d="m 555.22,422.29 0.14,0 0.15,0 0.15,0.01 0.07,0 0.07,0 0.07,0.01 0.08,0.01 0.07,0.01 0.07,0.01 0.06,0.02 0.07,0.01 0.07,0.02 0.06,0.02 0.06,0.03 0.06,0.03 0.05,0.03 0.06,0.03 0.05,0.04 0.04,0.04 0.05,0.05 0.03,0.05 0.02,0.03 0.02,0.02 0.02,0.03 0.01,0.03 0.02,0.03 0.01,0.04 0.01,0.03 0.01,0.04 0.01,0.03 0.01,0.04 0.01,0.04 0,0.04 0.01,0.04 0,0.04 0,0.05 0,0.05 c 0,0.99 -0.94,0.99 -1.64,0.99 l -29.84,0 c -0.7,0 -1.64,0 -1.64,-0.99 0,-1 0.94,-1 1.69,-1 z"
           id="path15463" /><path
           style="fill:#000000;stroke-width:0"
           inkscape:connector-curvature="0"
           d="m 555.27,412.62 0.13,0.01 0.14,0 0.14,0 0.07,0.01 0.07,0 0.07,0.01 0.07,0.01 0.07,0.01 0.07,0.01 0.06,0.01 0.07,0.02 0.06,0.02 0.06,0.02 0.06,0.02 0.06,0.03 0.06,0.03 0.05,0.04 0.05,0.04 0.04,0.04 0.05,0.04 0.02,0.03 0.02,0.03 0.01,0.02 0.02,0.03 0.02,0.03 0.01,0.03 0.02,0.03 0.01,0.03 0.01,0.04 0.01,0.03 0.01,0.04 0.01,0.04 0.01,0.04 0,0.04 0.01,0.04 0,0.04 0,0.05 0,0.04 c 0,1 -0.94,1 -1.69,1 l -29.74,0 c -0.75,0 -1.69,0 -1.69,-1 0,-1 0.94,-1 1.64,-1 z"
           id="path15465" /><path
           style="fill:#000000;stroke-width:0"
           inkscape:connector-curvature="0"
           d="m 604.99,418.85 -1.24,0 c -0.55,-5.08 -1.25,-11.31 -10.02,-11.31 l -4.08,0 c -2.34,0 -2.44,0.35 -2.44,2 l 0,26.55 c 0,1.69 0,2.39 4.73,2.39 l 1.65,0 0,1.54 -15.94,0 0,-1.54 1.19,0 c 3.84,0 3.93,-0.55 3.93,-2.34 l 0,-26.25 c 0,-1.8 -0.09,-2.35 -3.93,-2.35 l -1.19,0 0,-1.54 25.95,0 z"
           id="path15467" /></g>    </g>
    <g
       id="g15695"
       transform="matrix(0.50510615,0,0,0.62870668,409.10189,126.39245)">
      <g
         word-spacing="normal"
         letter-spacing="normal"
         font-size-adjust="none"
         font-stretch="normal"
         font-weight="normal"
         font-variant="normal"
         font-style="normal"
         stroke-miterlimit="10.433"
         xml:space="preserve"
         transform="matrix(1.0629921,0,0,-1.0629921,-186.02362,789.27165)"
         id="g15697"
         style="font-style:normal;font-variant:normal;font-weight:normal;font-stretch:normal;letter-spacing:normal;word-spacing:normal;text-anchor:start;fill:none;fill-opacity:1;fill-rule:evenodd;stroke:#000000;stroke-linecap:butt;stroke-linejoin:miter;stroke-miterlimit:10.43299961;stroke-dasharray:none;stroke-dashoffset:0;stroke-opacity:1"><path
           id="path15699"
           d="m 471.09,421.74 0.2,1.3 3.39,13.55 c 0.45,1.74 0.55,1.89 2.69,1.89 l 4.78,0 c 4.14,0 6.78,-1.35 6.78,-4.78 0,-1.95 -1,-6.23 -2.94,-8.02 -2.49,-2.25 -5.48,-2.64 -7.67,-2.64 l -7.03,0 -0.2,-1.3 8.47,0 c 7.08,0 14,5.18 14,10.76 0,3.84 -3.29,7.52 -9.81,7.52 l -16.14,0 c -0.95,0 -1.5,0 -1.5,-0.95 0,-0.59 0.45,-0.59 1.45,-0.59 0.64,0 1.54,-0.05 2.14,-0.1 0.8,-0.1 1.09,-0.25 1.09,-0.8 0,-0.2 -0.04,-0.35 -0.2,-0.94 l -6.67,-26.75 c -0.5,-1.95 -0.6,-2.35 -4.53,-2.35 -0.85,0 -1.4,0 -1.4,-0.94 0,-0.6 0.6,-0.6 0.75,-0.6 l 12.75,0 c 0.35,0 1,0 1,1 0,0.54 -0.45,0.54 -1.4,0.54 -1.84,0 -3.23,0 -3.23,0.9 0,0.3 0.1,0.55 0.14,0.85 z"
           inkscape:connector-curvature="0"
           style="fill:#000000;stroke-width:0" /><path
           id="path15701"
           d="m 499.3,420.79 0,0.06 -0.01,0.05 0,0.05 -0.01,0.06 -0.01,0.06 -0.02,0.05 -0.01,0.06 -0.02,0.06 -0.03,0.05 -0.02,0.06 -0.03,0.05 -0.03,0.06 -0.03,0.05 -0.03,0.05 -0.04,0.05 -0.04,0.05 -0.05,0.05 -0.04,0.05 -0.05,0.04 -0.06,0.05 -0.05,0.04 -0.06,0.03 -0.06,0.04 -0.07,0.03 -0.07,0.03 -0.07,0.02 -0.07,0.02 -0.08,0.02 -0.08,0.02 -0.08,0.01 -0.09,0 -0.09,0.01 c -0.94,0 -1.95,-0.91 -1.95,-1.92 0,-0.59 0.45,-1.32 1.39,-1.32 1.02,0 1.96,0.97 1.96,1.91 z"
           inkscape:connector-curvature="0"
           style="fill:#000000;stroke-width:0" /><path
           id="path15703"
           d="m 492.18,403.08 -0.05,-0.17 -0.05,-0.17 -0.03,-0.08 -0.03,-0.09 -0.02,-0.08 -0.03,-0.09 -0.02,-0.09 -0.02,-0.09 -0.01,-0.1 -0.02,-0.09 -0.01,-0.1 -0.01,-0.05 0,-0.05 0,-0.05 -0.01,-0.06 0,-0.05 0,-0.06 c 0,-1.63 1.4,-2.96 3.31,-2.96 3.49,0 5.02,4.81 5.02,5.33 0,0.46 -0.45,0.46 -0.56,0.46 -0.48,0 -0.52,-0.21 -0.66,-0.59 -0.8,-2.79 -2.33,-4.22 -3.69,-4.22 -0.7,0 -0.88,0.45 -0.88,1.22 0,0.8 0.25,1.46 0.56,2.23 0.35,0.94 0.74,1.88 1.12,2.79 0.31,0.84 1.57,4.01 1.71,4.43 0.1,0.34 0.21,0.77 0.21,1.11 0,1.64 -1.4,2.97 -3.31,2.97 -3.46,0 -5.06,-4.74 -5.06,-5.34 0,-0.45 0.49,-0.45 0.59,-0.45 0.49,0 0.52,0.17 0.63,0.56 0.91,2.99 2.44,4.25 3.73,4.25 0.56,0 0.87,-0.28 0.87,-1.22 0,-0.8 -0.21,-1.32 -1.08,-3.48 z"
           inkscape:connector-curvature="0"
           style="fill:#000000;stroke-width:0" /><path
           id="path15705"
           d="m 555.22,422.29 0.14,0 0.15,0 0.15,0.01 0.07,0 0.07,0 0.07,0.01 0.08,0.01 0.07,0.01 0.07,0.01 0.06,0.02 0.07,0.01 0.07,0.02 0.06,0.02 0.06,0.03 0.06,0.03 0.05,0.03 0.06,0.03 0.05,0.04 0.04,0.04 0.05,0.05 0.03,0.05 0.02,0.03 0.02,0.02 0.02,0.03 0.01,0.03 0.02,0.03 0.01,0.04 0.01,0.03 0.01,0.04 0.01,0.03 0.01,0.04 0.01,0.04 0,0.04 0.01,0.04 0,0.04 0,0.05 0,0.05 c 0,0.99 -0.94,0.99 -1.64,0.99 l -29.84,0 c -0.7,0 -1.64,0 -1.64,-0.99 0,-1 0.94,-1 1.69,-1 z"
           inkscape:connector-curvature="0"
           style="fill:#000000;stroke-width:0" /><path
           id="path15707"
           d="m 555.27,412.62 0.13,0.01 0.14,0 0.14,0 0.07,0.01 0.07,0 0.07,0.01 0.07,0.01 0.07,0.01 0.07,0.01 0.06,0.01 0.07,0.02 0.06,0.02 0.06,0.02 0.06,0.02 0.06,0.03 0.06,0.03 0.05,0.04 0.05,0.04 0.04,0.04 0.05,0.04 0.02,0.03 0.02,0.03 0.01,0.02 0.02,0.03 0.02,0.03 0.01,0.03 0.02,0.03 0.01,0.03 0.01,0.04 0.01,0.03 0.01,0.04 0.01,0.04 0.01,0.04 0,0.04 0.01,0.04 0,0.04 0,0.05 0,0.04 c 0,1 -0.94,1 -1.69,1 l -29.74,0 c -0.75,0 -1.69,0 -1.69,-1 0,-1 0.94,-1 1.64,-1 z"
           inkscape:connector-curvature="0"
           style="fill:#000000;stroke-width:0" /><path
           id="path15709"
           d="m 597.67,422.94 0.45,0.12 0.44,0.12 0.44,0.14 0.43,0.15 0.42,0.16 0.42,0.17 0.4,0.18 0.4,0.18 0.39,0.2 0.37,0.21 0.37,0.21 0.35,0.23 0.34,0.23 0.33,0.24 0.32,0.25 0.3,0.26 0.29,0.26 0.27,0.28 0.26,0.28 0.24,0.29 0.23,0.29 0.21,0.3 0.19,0.31 0.17,0.32 0.16,0.32 0.14,0.33 0.11,0.33 0.1,0.34 0.08,0.35 0.05,0.35 0.04,0.35 0.01,0.36 c 0,4.79 -5.68,8.97 -13,8.97 l -15.65,0 0,-1.54 1.2,0 c 3.83,0 3.94,-0.55 3.94,-2.34 l 0,-26.25 c 0,-1.8 -0.11,-2.35 -3.94,-2.35 l -1.2,0 0,-1.54 14.55,0 0,1.54 -1.2,0 c -3.83,0 -3.93,0.55 -3.93,2.35 l 0,12.6 0,1.1 0,12.89 c 0,1.15 0,1.75 1.09,1.9 0.5,0.1 1.95,0.1 2.94,0.1 4.49,0 10.06,-0.2 10.06,-7.43 0,-3.43 -1.19,-7.46 -8.56,-7.46 l -5.53,0 0,-1.1 5.73,0 c 0.79,0 2.89,0 4.63,-1.7 1.89,-1.79 1.89,-3.33 1.89,-6.67 0,-3.24 0,-5.23 2.04,-7.12 2.05,-1.8 4.79,-2.1 6.28,-2.1 3.89,0 4.74,4.09 4.74,5.48 0,0.3 0,0.85 -0.65,0.85 -0.55,0 -0.55,-0.45 -0.6,-0.8 -0.3,-3.53 -2.04,-4.43 -3.29,-4.43 -2.44,0 -2.84,2.54 -3.53,7.17 l -0.65,3.99 c -0.9,3.19 -3.34,4.83 -6.08,5.78 z"
           inkscape:connector-curvature="0"
           style="fill:#000000;stroke-width:0" /></g>    </g>
    <path
       style="fill:none;fill-rule:evenodd;stroke:#0000ff;stroke-width:1.24416006;stroke-linecap:butt;stroke-linejoin:miter;stroke-miterlimit:4;stroke-dasharray:none;stroke-opacity:1;marker-end:url(#Arrow1Mend)"
       d="m 174.90543,293.35885 0,37.3248"
       id="path15831"
       inkscape:connector-curvature="0" />
    <path
       inkscape:connector-curvature="0"
       id="use16005"
       d="m 599.69721,290.69279 0,37.3248"
       style="fill:none;fill-rule:evenodd;stroke:#ff0000;stroke-width:1.24416006;stroke-linecap:butt;stroke-linejoin:miter;stroke-miterlimit:4;stroke-dasharray:none;stroke-opacity:1;marker-end:url(#marker16009)" />
    <path
       inkscape:connector-curvature="0"
       id="use4264"
       style="fill:none;stroke:#ff0000;stroke-width:2.48832011;stroke-linecap:butt;stroke-linejoin:miter;stroke-miterlimit:10;stroke-dasharray:2.48831999, 12.44191205;stroke-dashoffset:0;stroke-opacity:1"
       d="m 99.458413,233.00691 46.899017,0" />
  </g>
</svg>
